<?xml version="1.0" encoding="UTF-8" standalone="no"?>
<!-- Created with Inkscape (http://www.inkscape.org/) -->

<svg
   xmlns:dc="http://purl.org/dc/elements/1.1/"
   xmlns:cc="http://creativecommons.org/ns#"
   xmlns:rdf="http://www.w3.org/1999/02/22-rdf-syntax-ns#"
   xmlns:svg="http://www.w3.org/2000/svg"
   xmlns="http://www.w3.org/2000/svg"
   xmlns:sodipodi="http://sodipodi.sourceforge.net/DTD/sodipodi-0.dtd"
   xmlns:inkscape="http://www.inkscape.org/namespaces/inkscape"
   width="774.06879"
   height="449.89752"
   id="svg2"
   version="1.1"
   inkscape:version="0.48.4 r9939"
   sodipodi:docname="campsite.svg">
  <defs
     id="defs4">
    <inkscape:path-effect
       effect="skeletal"
       id="path-effect3131"
       is_visible="true"
       pattern="m -7.0710678,315.28801 c 0,-2.76 2.24,-5 5,-5 2.75999976,0 4.9999998,2.24 4.9999998,5 0,2.76 -2.24000004,5 -4.9999998,5 -2.76,0 -5,-2.24 -5,-5 z"
       copytype="single_stretched"
       prop_scale="1"
       scale_y_rel="false"
       spacing="0"
       normal_offset="0"
       tang_offset="0"
       prop_units="false"
       vertical_pattern="false"
       fuse_tolerance="0" />
    <inkscape:path-effect
       effect="skeletal"
       id="path-effect3127"
       is_visible="true"
       pattern="m 7.0710678,315.288 c 0,-2.76 2.24,-5 5.0000002,-5 2.76,0 5,2.24 5,5 0,2.76 -2.24,5 -5,5 -2.7600002,0 -5.0000002,-2.24 -5.0000002,-5 z"
       copytype="single_stretched"
       prop_scale="1"
       scale_y_rel="false"
       spacing="0"
       normal_offset="0"
       tang_offset="0"
       prop_units="false"
       vertical_pattern="false"
       fuse_tolerance="0" />
    <inkscape:path-effect
       effect="skeletal"
       id="path-effect3111"
       is_visible="true"
       pattern="m -2.6758535e-8,320.33877 c 0,-2.76 2.240000026758535,-5 5.000000326758535,-5 2.76,0 4.9999997,2.24 4.9999997,5 0,2.76 -2.2399997,5 -4.9999997,5 -2.7600003,0 -5.000000326758535,-2.24 -5.000000326758535,-5 z"
       copytype="single_stretched"
       prop_scale="1"
       scale_y_rel="false"
       spacing="0"
       normal_offset="0"
       tang_offset="0"
       prop_units="false"
       vertical_pattern="false"
       fuse_tolerance="0" />
    <inkscape:path-effect
       effect="skeletal"
       id="path-effect3107"
       is_visible="true"
       pattern="m 6.0609153,6.0101525 c 0,-2.76 2.2400001,-5 4.9999997,-5 2.76,0 5,2.24 5,5 0,2.76 -2.24,5.0000005 -5,5.0000005 -2.7599996,0 -4.9999997,-2.2400005 -4.9999997,-5.0000005 z"
       copytype="single_stretched"
       prop_scale="1"
       scale_y_rel="false"
       spacing="0"
       normal_offset="0"
       tang_offset="0"
       prop_units="false"
       vertical_pattern="false"
       fuse_tolerance="0" />
    <inkscape:path-effect
       effect="skeletal"
       id="path-effect3103"
       is_visible="true"
       pattern="M 0,5 C 0,2.24 2.24,0 5,0 7.76,0 10,2.24 10,5 10,7.76 7.76,10 5,10 2.24,10 0,7.76 0,5 z"
       copytype="single_stretched"
       prop_scale="1"
       scale_y_rel="false"
       spacing="0"
       normal_offset="0"
       tang_offset="0"
       prop_units="false"
       vertical_pattern="false"
       fuse_tolerance="0" />
    <inkscape:path-effect
       effect="skeletal"
       id="path-effect3099"
       is_visible="true"
       pattern="m -6.0609153,9.0406101 c 0,-2.76 2.24,-5 5,-5 2.76,0 5,2.24 5,5 0,2.7600009 -2.24,5.0000009 -5,5.0000009 -2.76,0 -5,-2.24 -5,-5.0000009 z"
       copytype="single_stretched"
       prop_scale="1"
       scale_y_rel="false"
       spacing="0"
       normal_offset="0"
       tang_offset="0"
       prop_units="false"
       vertical_pattern="false"
       fuse_tolerance="0" />
    <inkscape:path-effect
       effect="skeletal"
       id="path-effect3079"
       is_visible="true"
       pattern="m -7.0710678,310.23725 c 0,-2.76 2.24,-5 5,-5 2.75999999,0 5,2.24 5,5 0,2.76 -2.24000001,5 -5,5 -2.76,0 -5,-2.24 -5,-5 z"
       copytype="single_stretched"
       prop_scale="1"
       scale_y_rel="false"
       spacing="0"
       normal_offset="0"
       tang_offset="0"
       prop_units="false"
       vertical_pattern="false"
       fuse_tolerance="0" />
    <inkscape:path-effect
       effect="skeletal"
       id="path-effect3051"
       is_visible="true"
       pattern="m -9.0913729,18.131983 c 0,-2.76 2.24,-5 5,-5 2.76,0 4.99999999,2.24 4.99999999,5 0,2.76 -2.23999999,5 -4.99999999,5 -2.76,0 -5,-2.24 -5,-5 z"
       copytype="single_stretched"
       prop_scale="1"
       scale_y_rel="false"
       spacing="0"
       normal_offset="0"
       tang_offset="0"
       prop_units="false"
       vertical_pattern="false"
       fuse_tolerance="0" />
    <inkscape:path-effect
       effect="skeletal"
       id="path-effect3043"
       is_visible="true"
       pattern="m -13.131983,0.95938982 c 0,-2.76000002 2.24,-5.00000002 4.9999999,-5.00000002 2.76,0 5,2.24 5,5.00000002 0,2.75999998 -2.24,4.99999998 -5,4.99999998 -2.7599999,0 -4.9999999,-2.24 -4.9999999,-4.99999998 z"
       copytype="single_stretched"
       prop_scale="1"
       scale_y_rel="false"
       spacing="0"
       normal_offset="0"
       tang_offset="0"
       prop_units="false"
       vertical_pattern="false"
       fuse_tolerance="0" />
    <inkscape:path-effect
       effect="skeletal"
       id="path-effect3039"
       is_visible="true"
       pattern="M 0,5 C 0,2.24 2.24,0 5,0 7.76,0 10,2.24 10,5 10,7.76 7.76,10 5,10 2.24,10 0,7.76 0,5 z"
       copytype="single_stretched"
       prop_scale="1"
       scale_y_rel="false"
       spacing="0"
       normal_offset="0"
       tang_offset="0"
       prop_units="false"
       vertical_pattern="false"
       fuse_tolerance="0" />
    <inkscape:path-effect
       effect="skeletal"
       id="path-effect3027"
       is_visible="true"
       pattern="M 0,5 C 0,2.24 2.24,0 5,0 7.76,0 10,2.24 10,5 10,7.76 7.76,10 5,10 2.24,10 0,7.76 0,5 z"
       copytype="single_stretched"
       prop_scale="1"
       scale_y_rel="false"
       spacing="0"
       normal_offset="0"
       tang_offset="0"
       prop_units="false"
       vertical_pattern="false"
       fuse_tolerance="0" />
    <inkscape:path-effect
       effect="skeletal"
       id="path-effect3023"
       is_visible="true"
       pattern="M 0,5 C 0,2.24 2.24,0 5,0 7.76,0 10,2.24 10,5 10,7.76 7.76,10 5,10 2.24,10 0,7.76 0,5 z"
       copytype="single_stretched"
       prop_scale="1"
       scale_y_rel="false"
       spacing="0"
       normal_offset="0"
       tang_offset="0"
       prop_units="false"
       vertical_pattern="false"
       fuse_tolerance="0" />
    <inkscape:path-effect
       effect="skeletal"
       id="path-effect3019"
       is_visible="true"
       pattern="M 0,5 C 0,2.24 2.24,0 5,0 7.76,0 10,2.24 10,5 10,7.76 7.76,10 5,10 2.24,10 0,7.76 0,5 z"
       copytype="single_stretched"
       prop_scale="1"
       scale_y_rel="false"
       spacing="0"
       normal_offset="0"
       tang_offset="0"
       prop_units="false"
       vertical_pattern="false"
       fuse_tolerance="0" />
    <inkscape:path-effect
       effect="skeletal"
       id="path-effect2995"
       is_visible="true"
       pattern="M 0,5 C 0,2.24 2.24,0 5,0 7.76,0 10,2.24 10,5 10,7.76 7.76,10 5,10 2.24,10 0,7.76 0,5 z"
       copytype="single_stretched"
       prop_scale="1"
       scale_y_rel="false"
       spacing="0"
       normal_offset="0"
       tang_offset="0"
       prop_units="false"
       vertical_pattern="false"
       fuse_tolerance="0" />
    <inkscape:path-effect
       effect="skeletal"
       id="path-effect2991"
       is_visible="true"
       pattern="M 0,5 C 0,2.24 2.24,0 5,0 7.76,0 10,2.24 10,5 10,7.76 7.76,10 5,10 2.24,10 0,7.76 0,5 z"
       copytype="single_stretched"
       prop_scale="1"
       scale_y_rel="false"
       spacing="0"
       normal_offset="0"
       tang_offset="0"
       prop_units="false"
       vertical_pattern="false"
       fuse_tolerance="0" />
    <inkscape:path-effect
       effect="skeletal"
       id="path-effect2987"
       is_visible="true"
       pattern="M 0,5 C 0,2.24 2.24,0 5,0 7.76,0 10,2.24 10,5 10,7.76 7.76,10 5,10 2.24,10 0,7.76 0,5 z"
       copytype="single_stretched"
       prop_scale="1"
       scale_y_rel="false"
       spacing="0"
       normal_offset="0"
       tang_offset="0"
       prop_units="false"
       vertical_pattern="false"
       fuse_tolerance="0" />
  </defs>
  <sodipodi:namedview
     id="base"
     pagecolor="#ffffff"
     bordercolor="#666666"
     borderopacity="1.0"
     inkscape:pageopacity="0.0"
     inkscape:pageshadow="2"
     inkscape:zoom="0.98994949"
     inkscape:cx="291.04891"
     inkscape:cy="221.40086"
     inkscape:document-units="px"
     inkscape:current-layer="layer1"
     showgrid="false"
     inkscape:window-width="1920"
     inkscape:window-height="1056"
     inkscape:window-x="1920"
     inkscape:window-y="0"
     inkscape:window-maximized="1"
     fit-margin-top="0"
     fit-margin-left="0"
     fit-margin-right="0"
     fit-margin-bottom="0" />
  <metadata
     id="metadata7">
    <rdf:RDF>
      <cc:Work
         rdf:about="">
        <dc:format>image/svg+xml</dc:format>
        <dc:type
           rdf:resource="http://purl.org/dc/dcmitype/StillImage" />
        <dc:title />
      </cc:Work>
    </rdf:RDF>
  </metadata>
  <g
     inkscape:label="Layer 1"
     inkscape:groupmode="layer"
     id="layer1"
     transform="translate(-193.71109,-419.68643)">
    <path
       style="fill:#000000;fill-rule:evenodd;stroke:none"
       d="m 460.62956,188.51058 c -0.0312,-0.16392 0.13027,-0.3668 0.41237,-0.61236 0.14105,-0.12278 0.31062,-0.25408 0.44463,-0.38852 0.134,-0.13445 0.23553,-0.27079 0.15218,-0.41484 0,0 0,0 0,0 -0.01,0.0239 -0.24688,-0.0654 -0.36069,-0.38596 -0.20652,-0.30949 -0.53982,-0.68711 -0.90977,-1.34451 0,0 0,0 0,0 -0.3715,-0.43988 -0.61905,-1.29344 -0.23848,-2.65952 0.78513,-1.24459 1.44535,-1.58724 0.85698,-1.08675 -0.0998,0.8356 -0.38785,0.81979 -0.3036,-0.29429 -0.0117,-0.87353 0.63259,-1.63129 1.97793,-2.14185 10e-6,0 2e-5,-1e-5 4e-5,-1e-5 1.14182,0.0206 1.82912,0.22027 1.93503,0.38522 0.23871,0.0756 0.6165,0.23898 1.12384,0.56946 0.73165,0.15155 1.17959,1.20119 1.00741,3.19467 0,1e-5 0,2e-5 0,3e-5 -0.49936,1.31714 -1.2079,2.51108 -1.90704,3.57458 -0.69914,1.0635 -1.39086,1.99521 -1.68763,2.85625 -0.5682,1.3631 -1.14777,2.7316 -1.58498,4.11287 -0.13335,0.87405 -0.35092,0.99426 -0.16682,0.21545 10e-6,-1e-5 10e-6,-3e-5 2e-5,-5e-5 0.24346,-0.77703 -0.6084,-1.61683 -2.57936,-2.61408 -5e-5,-3e-5 -9e-5,-5e-5 -1.3e-4,-7e-5 -1.32649,0.0782 -1.92755,0.15531 -1.78708,0.30334 0,1e-5 0,1e-5 10e-6,1e-5 -0.16784,0.11842 -0.16094,0.0474 0.0782,-0.16364 0.87654,0.6287 1.80611,1.21674 2.7952,1.76785 1e-5,1e-5 3e-5,2e-5 4e-5,3e-5 0.20526,0.1607 0.4121,0.31878 0.62393,0.47897 0.0451,0.0341 0.0903,0.0672 0.1367,0.10449 0.0253,0.0203 0.0481,0.0455 0.0691,0.0696 0.1597,0.18275 0.3075,0.35961 0.46061,0.53563 10e-6,1e-5 2e-5,2e-5 3e-5,3e-5 0.35801,0.41157 0.72131,0.81284 1.09261,1.20522 10e-6,10e-6 2e-5,2e-5 3e-5,4e-5 -0.17034,0.27329 -0.33029,0.51912 -0.47236,0.73985 -1.88937,2.93559 -3.95491,6.06128 -6.13409,9.37097 -1.9888,3.02133 -4.10765,6.24901 -6.50116,9.58559 -0.81753,1.14437 -1.7381,2.35367 -2.84056,3.56968 -0.96022,1.06071 -1.89804,2.10802 -2.76995,3.16909 -2.47191,2.98935 -4.94405,6.22675 -7.53924,9.61295 -3.8361,5.00868 -7.64819,10.52247 -11.84758,16.21002 -3.643,4.93611 -7.4068,9.99555 -11.26654,15.14188 -0.26629,0.35505 -0.53232,0.70955 -0.79806,1.06349 -4.12316,5.49166 -8.15802,10.93341 -12.22803,16.14769 -3.8721,4.95934 -7.72887,9.57664 -11.31548,14.02688 -3.52802,4.3759 -6.87713,8.88172 -10.46301,13.01162 -3.30233,3.78996 -6.61378,6.95739 -9.5246,9.95761 -3.30143,3.40682 -6.41086,6.89211 -9.64529,9.83711 -2.04172,1.84809 -4.02272,3.37279 -5.8375,4.75134 -1.81477,1.37855 -3.46476,2.60979 -4.9157,3.77728 -3.48944,2.81339 -6.24332,5.12575 -8.24586,6.57474 -2.00254,1.44898 -3.23002,2.0635 -3.54508,1.74844 -0.31506,-0.31506 0.29472,-1.53394 1.70748,-3.55635 1.41276,-2.0224 3.60002,-4.87257 6.70462,-8.32351 1.34784,-1.49135 2.88193,-3.02058 4.50391,-4.60997 1.62197,-1.5894 3.33289,-3.23747 4.94595,-5.04415 2.64406,-2.9335 5.29904,-6.50628 8.53745,-10.36595 2.81715,-3.36416 5.88648,-6.68264 8.65814,-10.24543 3.11739,-3.98459 6.18562,-8.52227 9.74005,-13.25236 3.51065,-4.67478 7.24188,-9.38443 10.90788,-14.25737 3.89692,-5.1774 7.85474,-10.62346 12.01563,-16.1772 0.26537,-0.35422 0.5312,-0.70886 0.7975,-1.06391 3.85974,-5.14632 7.66294,-10.17621 11.38156,-15.0556 4.17386,-5.4768 8.19129,-10.98505 12.39609,-16.11488 2.71067,-3.3038 5.40827,-6.55032 8.1824,-9.60447 1.08533,-1.19368 2.16793,-2.29089 3.21387,-3.3299 0.8053,-0.78074 1.58355,-1.70658 2.39204,-2.69801 2.45224,-3.02838 4.73922,-6.05623 6.96687,-8.93793 2.44639,-3.1661 4.77377,-6.09849 6.93189,-8.81263 0.16986,-0.21468 0.32107,-0.40101 0.44872,-0.5651 10e-6,1e-5 2e-5,1e-5 4e-5,2e-5 0.44469,0.28465 0.8811,0.57814 1.30671,0.8787 1e-5,1e-5 2e-5,2e-5 4e-5,3e-5 0.18202,0.12854 0.36641,0.25942 0.53599,0.38754 0.0223,0.0169 0.0428,0.0326 0.0608,0.0533 0.033,0.038 0.0669,0.0804 0.10086,0.12196 0.15969,0.19558 0.32061,0.39731 0.47937,0.60042 1e-5,1e-5 2e-5,3e-5 3e-5,4e-5 0.81429,0.71057 1.57588,1.46443 2.28149,2.25486 -0.19906,0.20366 -0.62997,0.55199 -1.31084,0.97122 0,0 0,10e-6 0,10e-6 -0.0345,0.25064 -0.82944,0.43503 -2.35583,0.48515 -4e-5,-2e-5 -9e-5,-4e-5 -1.3e-4,-6e-5 -2.14238,-1.02134 -3.08377,-2.05174 -2.85985,-3.00003 1e-5,-2e-5 1e-5,-4e-5 2e-5,-6e-5 0.0479,-1.97264 0.458,-2.98129 0.75016,-3.19183 0.75293,-1.65222 1.56794,-3.07491 2.32468,-4.36169 0.90749,-1.54749 1.88804,-2.60376 2.69354,-3.47088 0.80551,-0.86711 1.43813,-1.54402 1.79301,-2.22011 0,1e-5 0,2e-5 0,3e-5 0.0152,1.55621 0.0924,2.14627 0.45738,2.01596 0.0507,-0.0205 -0.0885,-0.0994 -0.34643,-0.27215 -0.41166,-0.0938 -0.25719,-0.20762 0.33141,-0.13248 10e-6,0 2e-5,-1e-5 3e-5,-1e-5 1.09764,-0.48613 1.58726,-0.99449 1.56125,-1.62415 0.0431,-0.41491 0.0923,0.29815 -0.30359,1.72603 -1.03982,1.40335 -1.53744,1.35608 -1.16334,0.93355 -0.0508,-0.50331 0.0337,-0.36921 -0.005,-0.0132 0,0 0,0 0,0 0.0867,0.433 0.31376,0.9943 0.46352,1.60431 0.26069,0.64591 0.13117,1.56888 -0.29609,2.29067 0,0 0,0 0,0 -0.43985,0.45164 -0.84551,0.64422 -1.18562,0.73879 -0.3401,0.0946 -0.61682,0.0886 -0.83297,0.0564 -0.43229,-0.0644 -0.63319,-0.21728 -0.66437,-0.3812 z"
       id="path2985"
       inkscape:path-effect="#path-effect2987"
       inkscape:original-d="m 460.62956,188.51058 c 4.25768,-0.80983 0.24232,-3.51509 1.01015,-5.05076 0.21296,-0.42592 0.7972,-0.58424 1.01016,-1.01015 0.26937,-0.53875 -0.6061,-1.81828 1.01015,-1.01016 0.42592,0.21296 1.19773,0.57247 1.01015,1.01016 -0.95648,2.23178 -2.95473,3.88915 -4.04061,6.06091 -7.75306,15.50612 6.9957,-5.95539 -8.08122,15.15229 -13.72086,19.20921 -4.47897,5.4278 -20.20305,25.25381 -4.18469,5.27635 -8.08122,10.77496 -12.12183,16.16245 -4.04061,5.38748 -8.08122,10.77496 -12.12183,16.16244 -4.04061,5.38748 -8.02444,10.81801 -12.12183,16.16244 -3.6476,4.75773 -7.43105,9.4099 -11.11168,14.14213 -3.39054,4.35926 -6.5843,8.87429 -10.10153,13.13199 -2.88511,3.49251 -6.06091,6.73435 -9.09137,10.10152 -3.03046,3.36718 -5.88813,6.89828 -9.09137,10.10153 -3.20325,3.20324 -6.81723,5.97129 -10.10153,9.09137 -3.45238,3.27976 -6.73435,6.73435 -10.10152,10.10152"
       inkscape:connector-curvature="0"
       transform="translate(0,308.2677)" />
    <path
       style="fill:#000000;fill-rule:evenodd;stroke:none"
       d="m 800.57931,615.97628 c -0.0443,0.0678 -0.23759,0.0304 -0.58561,-0.0681 -0.34801,-0.0985 -0.85701,-0.24124 -1.55141,-0.46089 -0.85067,-0.26454 -1.95499,-0.60937 -3.31714,-1.03639 -2.24423,-0.70321 -5.16781,-1.61665 -8.74285,-2.77382 -2.57596,-0.83343 -5.49613,-1.78145 -8.72457,-2.95133 -1.06384,-0.38512 -2.17485,-0.79858 -3.32067,-1.28235 -0.64194,-0.25775 -1.41156,-0.58047 -2.2337,-1.13013 -3.34044,-2.27638 -6.86226,-4.93623 -10.55686,-7.9361 -3.69461,-2.99988 -7.56025,-6.34206 -11.66221,-9.87557 -3.89873,-3.35146 -8.35252,-6.74019 -12.69062,-11.01225 -4.64781,-4.58996 -9.21106,-9.73493 -13.84406,-15.19306 -4.21041,-4.95127 -8.6083,-10.23035 -12.71109,-16.1877 -0.5836,-0.85455 -1.08064,-1.67777 -1.5443,-2.42903 -10e-6,-10e-6 -10e-6,-10e-6 -2e-5,-2e-5 -0.87065,-1.4062 -1.73476,-2.82603 -2.60007,-4.25375 -2.31672,-3.82238 -4.66168,-7.74316 -7.04332,-11.75229 -2.30518,-3.88035 -4.64938,-7.84994 -7.01461,-11.91666 -0.85273,-1.4661 -1.71223,-2.95062 -2.56891,-4.45943 -0.472,-0.82738 -0.99026,-1.72468 -1.49909,-2.72427 -10e-6,-10e-6 -10e-6,-2e-5 -2e-5,-3e-5 -2.95335,-5.82705 -5.61074,-11.93871 -8.06624,-18.26422 -2.4555,-6.3255 -4.709,-12.86489 -6.89568,-19.52577 -1.8472,-5.61312 -3.66913,-11.372 -5.32933,-17.31244 -1.05884,-3.81234 -1.79082,-7.56406 -2.66978,-11.11569 -0.97539,-3.79106 -1.78902,-7.36153 -3.33631,-10.23667 -0.0207,-1.56216 -1.16528,-3.19701 -2.3074,-5.69045 -4.55244,2.2547 -9.18031,4.67653 -14.00895,6.94684 -6.17968,2.17153 -12.42427,4.07504 -18.56175,6.1653 -6.75126,2.2984 -13.58633,4.72883 -20.55256,7.14959 -6.78461,2.35777 -13.64841,4.74084 -20.58681,7.14758 -6.72806,2.33453 -13.57206,4.87738 -20.69191,7.16946 -6.9841,2.24298 -13.95581,3.92209 -20.56169,6.1034 -5.22059,1.71232 -10.56966,4.08929 -16.43581,6.08259 -5.56943,1.88526 -11.14302,3.43754 -16.56778,5.10747 -4.12834,1.3561 -8.23292,2.64493 -12.25821,4.024 -10e-6,0 -2e-5,10e-6 -3e-5,10e-6 -3.4687,1.18693 -6.95351,2.45544 -10.47636,3.74324 -3.42747,1.25115 -6.86678,2.35018 -10.27827,3.39682 -2.85568,0.87716 -5.23704,1.21394 -6.85298,1.89973 -1.59409,0.59752 -4.22666,2.96335 -9.0402,4.28298 -5e-5,0 -10e-5,1e-5 -1.5e-4,1e-5 -2.27023,0.23843 -3.7898,-0.004 -4.49213,-0.44633 -1e-5,-10e-6 -3e-5,-2e-5 -4e-5,-3e-5 -1.01415,-0.37689 -1.77045,-0.73738 -2.30656,-0.98378 -10e-6,0 -2e-5,-1e-5 -3e-5,-1e-5 -0.68788,-0.19463 -0.66739,-0.31734 0.0289,-0.12022 0.42714,0.20383 1.31651,-0.0768 2.72749,-0.78865 1.26278,-1.25286 1.86118,-2.13031 1.75944,-2.7227 0.0603,-2.01796 -0.7309,-3.42854 -2.51922,-4.50806 -6e-5,-4e-5 -1.2e-4,-7e-5 -1.7e-4,-1.1e-4 -0.84413,-0.16142 -0.94214,-0.30153 -0.37616,-0.18998 1.13895,0.15823 3.25116,0.10675 6.30459,0.61785 1.25635,1.00682 3.15419,2.33956 5.1869,4.45908 0.28186,0.29391 0.56622,0.60286 0.85169,0.92805 1.86543,2.78274 2.65748,5.17032 3.41449,6.57731 1.60547,2.95451 3.37811,5.93026 5.11926,9.03579 2.13956,3.8151 4.05755,7.55052 6.11443,11.00484 2.77682,4.66554 5.48941,9.21029 8.44717,13.4222 3.14561,4.49135 6.52545,8.91908 9.83079,13.49744 4.2746,5.91639 8.02366,11.81089 12.18932,16.99584 4.63247,5.79481 9.77362,11.25502 14.9404,16.75284 5.18273,5.50863 10.43093,10.91324 15.61092,16.33 5.8628,6.12868 11.3935,12.25168 17.0994,17.88175 5.67804,5.61087 11.72234,10.90642 17.61791,16.39249 5.63377,5.24162 11.19283,10.41709 16.67271,15.52221 3.86148,3.59505 7.6831,7.15358 11.46674,10.67062 1.31814,1.22525 2.62941,2.4439 3.93615,3.65343 1e-5,10e-6 2e-5,2e-5 3e-5,2e-5 0.39989,0.37013 0.79607,0.73663 1.1897,1.09828 10e-6,10e-6 2e-5,10e-6 3e-5,2e-5 0.21874,0.19903 0.37033,0.34434 0.46491,0.42504 1e-5,10e-6 1e-5,2e-5 2e-5,2e-5 1.60136,1.38672 3.34715,2.73669 5.13764,4.1605 10e-6,10e-6 2e-5,2e-5 2e-5,2e-5 2.88041,2.28753 5.75511,4.54216 8.61476,6.77353 2.96576,2.31411 5.90822,4.59703 8.83302,6.84032 10e-6,10e-6 2e-5,2e-5 2e-5,2e-5 1.99168,1.52617 3.90935,3.01748 5.8213,4.38606 2.85916,2.046 5.62826,4.05217 8.3987,5.8918 1.07048,0.702 2.02867,1.32427 2.93419,1.74939 0,0 10e-6,10e-6 2e-5,10e-6 1.04132,0.50049 2.21182,1.01797 3.45705,1.65414 2.99749,1.54546 5.80809,3.21008 8.51963,4.83636 2.41129,2.42825 4.46355,5.01243 6.46025,7.31787 -0.46274,-1.4047 -1.03107,-3.26726 -1.08778,-5.36169 0,-10e-6 1e-5,-2e-5 1e-5,-4e-5 1.09319,-2.6828 2.7264,-4.72767 4.40277,-6.27557 2.22426,-2.07386 4.24962,-3.02285 5.19592,-3.9971 1.60337,-1.49756 3.07856,-3.63163 5.01543,-5.80289 2.36372,-2.65444 4.72237,-5.5359 7.48387,-8.20512 3.2295,-3.08913 6.56078,-5.59158 9.50784,-8.1127 3.88248,-3.32702 7.65366,-6.7111 11.51153,-9.87843 4.21098,-3.4547 8.49941,-6.5169 12.76339,-9.26906 5.44715,-3.50923 10.85246,-6.18505 15.73603,-8.94933 5.43819,-3.08186 10.58921,-6.2406 15.6984,-8.86954 3.0159,-1.54817 5.95264,-2.88168 8.75358,-4.13901 2.80094,-1.25734 5.46636,-2.43796 7.96346,-3.62794 5.27962,-2.51789 10.04664,-4.77509 14.26321,-6.79294 0.95115,-0.45536 1.86606,-0.89131 2.73912,-1.32498 0.19687,-0.0983 0.37554,-0.18583 0.53333,-0.27038 0.27046,0.41868 0.5064,0.8582 0.70624,1.31493 10e-6,0 10e-6,0 10e-6,0 0.0494,0.0546 0.0982,0.10933 0.14526,0.16275 0.016,0.0181 0.0341,0.0343 0.044,0.053 0.0145,0.0273 0.0272,0.0605 0.0407,0.0921 0.0304,0.0713 0.0603,0.14399 0.0896,0.21686 0.10513,0.26135 0.20208,0.52691 0.29021,0.79434 0,2e-5 10e-6,5e-5 2e-5,7e-5 0,0 0,0 0,0 -0.11762,0.0432 -0.24637,0.0961 -0.38716,0.15417 -10e-6,10e-6 -10e-6,10e-6 -10e-6,10e-6 -0.42117,0.17404 -0.83945,0.35433 -1.25633,0.53447 -0.42751,0.18472 -0.84806,0.36792 -1.26182,0.54875 -0.13975,0.0611 -0.27864,0.12185 -0.41668,0.18232 -0.23805,-0.39286 -0.47506,-0.78359 -0.71103,-1.17219 -1e-5,0 -1e-5,-1e-5 -2e-5,-2e-5 -0.0392,-0.0547 -0.0785,-0.10924 -0.11764,-0.16375 -0.0142,-0.0198 -0.0284,-0.0395 -0.0427,-0.0593 -0.007,-0.0228 -0.0132,-0.0453 -0.0197,-0.0679 -0.0186,-0.0647 -0.0371,-0.12924 -0.0556,-0.19373 -0.0763,-0.26579 -0.15191,-0.53012 -0.22699,-0.79297 0,-2e-5 -1e-5,-4e-5 -1e-5,-6e-5 0.18762,-0.0828 0.37376,-0.16485 0.55842,-0.24626 0.89409,-0.3942 1.75225,-0.77155 2.57419,-1.13121 0,-10e-6 1e-5,-10e-6 1e-5,-10e-6 8.52621,-3.7309 13.13833,-5.54319 13.32289,-5.16658 0.18456,0.37661 -4.0677,2.91993 -12.25546,7.35215 0,0 0,0 0,0 -0.78932,0.42728 -1.61541,0.87213 -2.4782,1.33383 -0.17823,0.0954 -0.35809,0.19148 -0.53959,0.28831 -10e-6,-2e-5 -2e-5,-3e-5 -3e-5,-5e-5 -0.15998,-0.22155 -0.3207,-0.4445 -0.48217,-0.66885 -0.0392,-0.0544 -0.0784,-0.10894 -0.11766,-0.16353 -0.0137,-0.0191 -0.0274,-0.0384 -0.0411,-0.0575 -0.007,-0.0233 -0.0134,-0.0468 -0.0202,-0.0702 -0.0185,-0.0645 -0.0371,-0.12905 -0.0557,-0.19371 0,0 0,-10e-6 0,-2e-5 -0.15883,-0.4259 -0.31856,-0.85398 -0.47919,-1.28425 0.13435,-0.0711 0.26956,-0.14251 0.40564,-0.21421 0.4026,-0.21213 0.81343,-0.42722 1.23295,-0.64457 0.40581,-0.21037 0.82422,-0.42588 1.25897,-0.64118 0,0 0,-10e-6 10e-6,-10e-6 0.13905,-0.0692 0.29182,-0.1439 0.46085,-0.22032 0,0 0,0 0,0 10e-6,2e-5 2e-5,4e-5 4e-5,6e-5 0.17017,0.2332 0.34943,0.46466 0.53875,0.69661 0.0528,0.0647 0.10634,0.12928 0.16091,0.19491 0.0242,0.0291 0.0494,0.0565 0.0731,0.0898 0.0163,0.0228 0.0245,0.0483 0.035,0.0716 0.031,0.0689 0.0613,0.13633 0.0923,0.20362 0,10e-6 0,10e-6 0,10e-6 0.11987,0.51202 0.27153,1.00061 0.45782,1.46857 -0.21442,0.13342 -0.41844,0.25157 -0.60656,0.36066 -0.87395,0.50749 -1.77696,1.01005 -2.69716,1.52145 -4.10122,2.27919 -8.75491,4.7922 -13.90987,7.55277 -2.50814,1.34199 -5.1572,2.65907 -7.89108,4.02546 -2.73389,1.3664 -5.55287,2.78157 -8.3728,4.37003 -4.8054,2.69994 -9.75669,5.98355 -15.22119,9.3132 -4.95556,3.02176 -10.22637,5.82295 -15.18363,9.23343 -4.02658,2.76168 -8.04934,5.79603 -11.96057,9.17491 -3.63883,3.14 -7.28535,6.5751 -11.17458,10.0634 -3.10129,2.78291 -6.30246,5.28666 -9.04394,8.04974 -2.3182,2.30945 -4.48017,5.0902 -6.94527,7.95732 -1.51962,1.7811 -3.06506,4.06324 -5.29111,6.31893 -2.14979,2.06027 -4.18764,3.07335 -5.11062,4.08412 -1.18556,1.25711 -2.18973,2.40705 -2.50447,3.53834 0,10e-6 0,10e-6 0,2e-5 -1.53148,1.90076 -2.81481,4.30335 -4.48705,7.0477 -4.1141,-1.68737 -8.05873,-3.44267 -12.09155,-4.80395 -2.71927,-1.5674 -5.40944,-3.10945 -8.1436,-4.46127 -0.95995,-0.47851 -2.06745,-0.94449 -3.27767,-1.50423 -1e-5,0 -2e-5,-10e-6 -3e-5,-10e-6 -1.48989,-0.70285 -2.79174,-1.49436 -3.9541,-2.25206 -2.98147,-1.92068 -5.86325,-3.94384 -8.72507,-5.93501 -2.10807,-1.46826 -4.12298,-2.98915 -6.10531,-4.46926 0,-10e-6 -10e-6,-10e-6 -2e-5,-2e-5 -2.98035,-2.22387 -5.97189,-4.48386 -8.97953,-6.77102 -2.89971,-2.20503 -5.8217,-4.44033 -8.75735,-6.71613 -10e-6,-10e-6 -10e-6,-2e-5 -2e-5,-2e-5 -1.75471,-1.35778 -3.60777,-2.76188 -5.46758,-4.32976 -10e-6,-10e-6 -2e-5,-10e-6 -3e-5,-2e-5 -0.29337,-0.25047 -0.515,-0.45363 -0.67424,-0.59792 -1e-5,0 -2e-5,-10e-6 -3e-5,-2e-5 -0.41279,-0.37082 -0.82143,-0.74044 -1.227,-1.10756 -1e-5,-10e-6 -2e-5,-2e-5 -3e-5,-2e-5 -1.32931,-1.20329 -2.65891,-2.41211 -3.99095,-3.62382 -3.82654,-3.48083 -7.68782,-7.00278 -11.58543,-10.56067 -5.53007,-5.05137 -11.13665,-10.17603 -16.81519,-15.36983 -5.81318,-5.31472 -11.96058,-10.62085 -17.95437,-16.45018 -5.99962,-5.84315 -11.64271,-12.00216 -17.4128,-17.96596 -5.17997,-5.35253 -10.47522,-10.74756 -15.75682,-16.3064 -5.20547,-5.47229 -10.53938,-11.10331 -15.53108,-17.28082 -4.61063,-5.73261 -8.4859,-11.75451 -12.54638,-17.34936 -3.2168,-4.42913 -6.6335,-8.88524 -9.94695,-13.59039 -3.23483,-4.60519 -6.09296,-9.35773 -8.87863,-14.03821 -2.26422,-3.80594 -4.22988,-7.61492 -6.25341,-11.2185 -1.6592,-2.95398 -3.4539,-5.96569 -5.18728,-9.14697 -1.4105,-2.57626 -1.9905,-4.62474 -2.76943,-5.54451 0.0123,-0.0572 0.009,-0.11752 -0.0101,-0.18205 -0.13429,-0.46538 -1.03754,-1.15157 -2.19654,-2.51204 0.41775,0.0805 -0.15791,0.62793 -1.68297,0.87038 -0.55293,0.14693 -1.81276,0.0442 -3.69357,-0.53722 -8e-5,-5e-5 -1.7e-4,-9e-5 -2.5e-4,-1.4e-4 -2.53664,-1.38272 -3.77762,-3.62018 -3.58201,-6.43364 -0.034,-0.99068 0.72809,-2.27458 2.32053,-3.76078 1.71942,-0.93012 3.01026,-1.25161 3.81406,-1.01883 1.84401,0.28534 2.92849,0.68939 3.29028,0.96484 2e-5,10e-6 3e-5,10e-6 5e-5,2e-5 0.7567,0.33256 1.27431,0.59754 1.59221,0.69792 10e-6,0 2e-5,0 3e-5,0 0.44087,-0.0328 0.15057,0.0864 -0.93236,0.0754 -2e-5,0 -5e-5,0 -7e-5,0 1.21609,0.0533 3.33653,-2.15805 7.45026,-3.79824 3.04686,-1.14224 5.66313,-1.55746 7.57618,-2.14089 3.34435,-1.02256 6.62023,-2.06019 9.79043,-3.21355 3.53498,-1.28443 7.08858,-2.56823 10.6811,-3.78853 1e-5,-10e-6 3e-5,-10e-6 4e-5,-10e-6 4.21943,-1.43161 8.39564,-2.73103 12.4774,-4.0572 5.63511,-1.71752 11.15238,-3.23047 16.41314,-4.99405 5.30793,-1.77137 10.70583,-4.13825 16.54511,-6.03923 7.13084,-2.30652 14.12261,-3.95293 20.66449,-6.01844 6.8606,-2.16119 13.65887,-4.6407 20.53425,-6.97268 6.95474,-2.35913 13.83605,-4.69115 20.63933,-6.99454 6.9439,-2.35096 13.82209,-4.72995 20.6736,-6.99255 6.34892,-2.09644 12.57702,-3.92706 18.54177,-5.95654 6.37428,-1.60501 12.66509,-3.43845 18.97197,-5.17498 2.3214,2.25902 5.38206,4.84317 7.99916,8.45167 2.06146,4.1988 3.05175,8.39529 3.89962,12.18333 0.90106,3.84774 1.56053,7.51796 2.46213,10.91103 1.52925,5.78203 3.23467,11.45127 4.97723,17.03279 2.07371,6.62527 4.17626,13.06705 6.45134,19.2491 2.27508,6.18206 4.72261,12.10444 7.44502,17.71216 0,10e-6 0,2e-5 10e-6,2e-5 0.36535,0.76159 0.81521,1.56877 1.29057,2.4474 0.80814,1.48922 1.62696,2.96893 2.44627,4.44386 2.26994,4.08628 4.52263,8.08612 6.73908,12.00556 2.28994,4.04933 4.53776,8.00518 6.75296,11.85914 0.82842,1.4412 1.64837,2.86305 2.46833,4.26104 0,0 1e-5,1e-5 1e-5,2e-5 0.47768,0.81011 0.89814,1.55387 1.31989,2.19876 3.73279,5.72919 7.87984,10.96966 11.9155,16.00509 4.44152,5.53187 8.7283,10.67857 13.06207,15.24363 3.86043,4.08482 8.15077,7.58873 12.04504,11.21109 3.98002,3.6989 7.66562,7.16819 11.15816,10.28404 3.49254,3.11585 6.79028,5.88055 9.91023,8.26977 0.37006,0.31133 0.9411,0.56809 1.59025,0.89967 1.03055,0.50965 2.06914,0.96929 3.09081,1.415 3.09066,1.34751 5.92224,2.49596 8.42341,3.53837 3.46114,1.44249 6.29811,2.65786 8.44275,3.66331 1.29992,0.60937 2.3538,1.14422 3.14134,1.59522 0.62416,0.35627 1.108,0.66769 1.39811,0.91717 0.2901,0.24948 0.39892,0.42384 0.35464,0.49161 z"
       id="path2989"
       inkscape:path-effect="#path-effect2991"
       inkscape:original-d="m 800.57931,615.97628 c -3.09195,-2.0203 -24.46698,-8.95115 -27.45863,-11.11168 -8.88885,-6.4194 -13.32636,-10.73969 -21.64373,-18.18274 -4.13006,-3.69592 -8.49156,-7.16053 -12.36784,-11.11168 -7.27997,-7.42056 -20.00605,-22.72342 -25.76635,-31.31473 -2.02137,-3.01481 -19.73592,-33.53204 -21.64373,-37.37564 -6.24115,-12.57384 -10.17809,-24.11859 -14.42915,-37.37565 -1.82528,-5.69214 -3.58468,-11.4074 -5.15327,-17.17259 -1.4502,-5.33008 -3.33104,-16.63109 -6.18392,-22.22336 -1.32167,-2.59075 -3.43552,-4.71404 -5.15328,-7.07106 -5.49682,2.0203 -10.95453,4.14592 -16.49046,6.06091 -6.14681,2.12631 -12.38426,3.99295 -18.55176,6.06092 -6.88781,2.30948 -13.74205,4.71404 -20.61308,7.07107 -6.87102,2.35702 -13.74205,4.71404 -20.61307,7.07106 -6.87103,2.35703 -13.68983,4.86577 -20.61308,7.07107 -6.82231,2.17314 -13.80765,3.83756 -20.61309,6.06092 -5.56934,1.81952 -10.9387,4.19046 -16.49046,6.06091 -5.44617,1.83489 -10.99364,3.36718 -16.49046,5.05076 -4.12261,1.34687 -8.26342,2.64139 -12.36784,4.04061 -11.32002,3.85908 -10.0189,3.82625 -20.61308,7.07107 -2.38724,0.73118 -4.89237,1.1099 -7.21458,2.02031 -2.85303,1.11851 -5.24062,3.40957 -8.24523,4.04061 -2.04335,0.42915 -5.84036,-3.03046 -6.18392,-1.01016 -0.34355,2.02031 4.12262,0.67344 6.18392,1.01016 1.37421,1.34687 3.00814,2.48017 4.12262,4.04061 1.32161,1.85045 2.00744,4.06788 3.09196,6.06091 1.66451,3.05887 3.44869,6.05378 5.15327,9.09138 2.07451,3.6968 4.01492,7.46734 6.18392,11.11167 8.37751,14.07577 8.53963,13.44673 18.55177,27.27412 4.13738,5.71397 7.94363,11.66894 12.36785,17.1726 7.59323,9.44586 22.72888,24.82068 30.91961,33.33503 22.68434,23.58056 11.65118,12.76799 35.04224,34.34519 0.47168,0.4351 32.84166,30.31604 34.01157,31.31473 3.40876,2.90986 24.27503,18.98903 28.85831,22.22335 17.06812,12.0446 7.04628,4.3457 23.70503,14.14214 3.18652,1.87387 6.18393,4.04061 9.2759,6.06091 1.64161,-5.63138 1.17299,-7.21058 5.15326,-11.11168 1.55549,-1.52455 3.59778,-2.51605 5.15327,-4.04061 1.89732,-1.85958 3.40705,-4.06418 5.15327,-6.06091 2.37669,-2.71765 4.63222,-5.55023 7.21457,-8.08122 2.92524,-2.86705 6.1929,-5.37763 9.27589,-8.08122 8.97791,-7.87308 13.36856,-12.31838 23.70504,-19.1929 4.97287,-3.30733 10.30654,-6.06092 15.45981,-9.09137 5.15326,-3.03046 10.19043,-6.2592 15.45981,-9.09138 5.38856,-2.89624 11.02932,-5.31863 16.49046,-8.08122 41.75616,-21.12287 -9.60725,4.203 29.88895,-15.15228"
       inkscape:connector-curvature="0"
       sodipodi:nodetypes="csssssssscssssssscssssscssssssssssscsssssssssc" />
    <path
       style="fill:#000000;fill-rule:evenodd;stroke:none"
       d="m 339.41126,339.02331 c 0.3063,-0.14795 0.84251,0.18734 1.56416,0.99002 0.72165,0.80268 1.62733,2.07402 2.62983,3.80446 2.00501,3.46088 4.38935,8.79251 6.2988,15.69836 0,0 0,0 0,1e-5 0.93561,3.34275 1.93328,7.08458 2.66952,11.30104 0.68536,3.99016 1.03273,8.15869 1.47389,12.30399 0,10e-6 0,10e-6 0,10e-6 0.4825,4.49073 1.11195,9.35072 1.34699,14.62808 0.21458,4.98678 0.1117,10.02246 0.12408,15.01517 0.003,1.08091 0.0118,2.17412 0.0217,3.27938 0.039,4.34023 0.09,8.70283 -0.0863,13.03715 -0.25062,5.94017 -1.02379,11.28425 -1.29655,16.14909 -0.33945,5.93479 -0.35692,11.68951 -0.60216,17.03185 -0.90949,19.58856 -2.38185,32.32488 -4.04244,32.32488 -1.66059,0 -3.13295,-12.73632 -4.04244,-32.32488 -0.24524,-5.19213 -0.63488,-10.96631 -0.60216,-17.31333 0.0394,-5.43638 0.6232,-10.87826 0.72375,-16.17579 0.0847,-4.01838 -0.0138,-8.23516 -0.0524,-12.64013 -0.01,-1.12175 -0.0153,-2.24475 -0.0122,-3.36822 0.0124,-5.20376 0.20603,-10.11762 0.14144,-14.73238 -0.0569,-4.76403 -0.46782,-9.5344 -0.69067,-14.21323 0,0 0,0 0,-1e-5 -0.21458,-4.37944 -0.24319,-8.3507 -0.54641,-11.93965 -0.31447,-3.83896 -0.88411,-7.50772 -1.3711,-10.9223 0,0 0,0 -10e-6,0 -0.94686,-6.6617 -2.18393,-11.99235 -3.02521,-15.72697 -0.84129,-3.73462 -1.23672,-5.9107 -0.62411,-6.2066 z"
       id="path2993"
       inkscape:path-effect="#path-effect2995"
       inkscape:original-d="m 339.41126,339.02331 c 3.26432,6.75827 5.5267,13.87747 7.07106,21.21321 0.77555,3.68386 1.5334,7.37868 2.02031,11.11167 0.52442,4.02056 0.69918,8.07916 1.01015,12.12183 1.37001,17.81006 1.01015,10.88022 1.01015,29.29443 0,5.38748 0.16828,10.77759 0,16.16244 -0.1686,5.39536 -0.84665,10.76692 -1.01015,16.16244 -0.17338,5.72157 0,11.44839 0,17.17259 0,21.33334 0,10.99155 0,32.32488"
       inkscape:connector-curvature="0"
       transform="translate(0,308.2677)" />
    <path
       style="fill:#000000;fill-rule:evenodd;stroke:none"
       d="m 662.66007,698.80935 c 0.4403,-0.10476 1.07601,0.65294 1.86164,2.18899 0.78563,1.53604 1.74415,3.84313 2.61505,6.9738 0.60397,2.16738 1.16685,4.67373 1.742,7.41473 0.52847,2.4655 1.24378,5.29101 1.61572,8.69504 0.37075,3.53399 0.37153,7.21092 0.5191,10.8144 0,0 0,0 0,0 0.14866,3.5943 0.42915,7.52988 0.37283,11.85356 -0.0713,4.93278 -0.46733,9.96999 -0.76007,15.0165 -0.20343,3.50528 -0.43081,7.0873 -0.67797,10.72774 -0.11054,1.62822 -0.22334,3.24352 -0.33785,4.84433 -0.23519,3.28838 -0.47919,6.51328 -0.72359,9.66183 -0.14638,1.91267 -0.31725,3.69885 -0.4076,5.37407 -0.25289,4.58354 -0.21341,9.17563 -0.36784,13.6345 0,0 0,0 0,1e-5 -0.14699,4.28175 -0.42715,8.18267 -0.54398,11.73779 -0.14212,4.0539 0.0143,7.80804 0.22506,11.1449 0.20886,3.19818 0.44178,5.92004 0.7351,8.17664 0.31861,2.45825 0.62122,4.46196 0.68061,5.87032 0.0594,1.40837 -0.0992,2.21831 -0.48729,2.34143 -0.38809,0.12312 -0.98126,-0.4378 -1.76117,-1.61019 -0.77991,-1.17238 -1.76943,-2.94512 -2.79745,-5.40674 -0.95693,-2.31119 -1.8337,-5.18365 -2.5942,-8.4361 -0.808,-3.44282 -1.51349,-7.42816 -1.84424,-11.90686 -0.27926,-3.79224 -0.34799,-7.8078 -0.49498,-11.9112 0,0 0,0 0,0 -0.15443,-4.26805 -0.44227,-8.91505 -0.36784,-13.96142 0.0331,-1.95634 0.14869,-3.8514 0.24099,-5.67263 0.15959,-3.17121 0.34585,-6.41083 0.5522,-9.70427 0.10057,-1.60518 0.20637,-3.22364 0.31704,-4.85375 0.24744,-3.64467 0.51077,-7.22437 0.78338,-10.72148 0.40678,-5.24356 0.96985,-10.135 1.26023,-14.70218 0.25364,-3.81799 0.22417,-7.69463 0.37283,-11.4968 0,0 0,0 0,-10e-6 0.14757,-3.92653 0.49677,-7.35774 0.5191,-10.41321 0.0465,-2.75057 -0.27585,-5.57349 -0.40458,-8.28706 -0.13035,-2.81854 -0.19801,-5.29815 -0.27832,-7.44461 -0.10249,-3.00583 -0.28161,-5.4518 -0.25102,-7.15989 0.0306,-1.70808 0.24681,-2.67742 0.68711,-2.78218 z"
       id="path3017"
       inkscape:path-effect="#path-effect3019"
       inkscape:original-d="m 662.66007,698.80935 c 0.90808,3.81653 1.37909,5.51005 2.0203,9.55243 0.39143,2.46766 0.69548,4.94991 1.01016,7.42967 0.35878,2.82735 0.85957,5.64307 1.01015,8.49105 0.18678,3.53249 0,7.07587 0,10.61381 0,3.89173 0.14804,7.78657 0,11.67518 -0.18889,4.96177 -0.67344,9.90623 -1.01015,14.85934 -0.22251,3.27306 -1.9257,27.99666 -2.02031,30.78005 -0.15623,4.59639 0,9.19864 0,13.79796 0,9.79572 -0.40205,13.95282 1.01015,23.35038 1.11703,7.43326 1.97517,9.41016 4.04062,15.92071"
       inkscape:connector-curvature="0" />
    <path
       style="fill:#000000;fill-rule:evenodd;stroke:none"
       d="m 787.91899,309.72889 c 0.34714,0.11571 0.50625,0.77208 0.47147,1.90101 -0.0174,0.56446 -0.0835,1.24513 -0.17774,2.02251 -0.0942,0.77739 -0.21793,1.65115 -0.31113,2.59802 -0.0791,0.7881 -0.11986,1.66537 -0.14142,2.65351 -0.0216,0.98813 -0.023,2.08744 -0.0705,3.32026 0,0 0,1e-5 0,1e-5 -0.0728,2.30383 -0.22261,4.83964 -0.27958,7.52439 0.003,0.5748 -0.0182,0.92515 0.0612,0.99179 0.13965,1.18936 0.1135,2.1486 0.0813,2.79913 -0.0652,2.87684 -0.27716,5.90253 -0.50967,9.01521 0,0 0,10e-6 0,10e-6 -0.33554,4.48302 -0.81221,9.32439 -1.56307,14.43978 -0.734,4.97488 -1.79206,10.03912 -2.76898,15.14776 -0.32794,2.84585 -0.6307,5.79363 -0.99148,8.82754 -0.29049,2.44286 -0.61329,4.88403 -1.00743,7.30875 -0.96893,5.90596 -2.34132,11.24042 -3.29074,16.17026 -0.92264,4.76615 -1.59835,9.51876 -2.48656,14.01073 -0.8981,4.55068 -1.97235,8.45899 -2.68067,11.93764 0,0 -10e-6,0 -10e-6,0 -0.41184,1.99432 -0.72748,3.93742 -1.03757,5.77067 -0.3101,1.83325 -0.61375,3.55652 -0.94547,5.12419 -0.68056,3.18795 -1.34814,5.66994 -1.95143,7.34943 -0.60328,1.67949 -1.14701,2.55542 -1.61374,2.50875 -0.46673,-0.0467 -0.8264,-1.01479 -1.07978,-2.78218 -0.25337,-1.76739 -0.39562,-4.33417 -0.46509,-7.56268 -0.0363,-1.53415 -0.0841,-3.23842 -0.10113,-5.12281 -0.017,-1.88439 -0.004,-3.94924 0.1384,-6.20569 0,0 0,0 0,0 0.25411,-3.90009 0.90505,-8.06237 1.35993,-12.30602 0.46706,-4.31734 0.81832,-9.08949 1.55406,-14.27355 0.77059,-5.39024 1.97749,-10.78626 2.77016,-16.15462 0.34491,-2.30512 0.64243,-4.68013 0.93331,-7.11698 0.36127,-3.02645 0.70416,-6.06009 1.1084,-9.07161 1.12433,-5.39766 2.35326,-10.43025 3.29194,-15.1568 0.96573,-4.84083 1.75294,-9.49312 2.47753,-13.8445 0,0 0,0 0,0 0.51436,-3.11116 1.02758,-5.9761 1.41817,-8.62682 0.0863,-0.78672 0.21164,-1.24849 0.20739,-1.4406 -0.0403,-1.08234 0.06,-1.87134 0.17047,-2.40858 0.48232,-2.87071 1.06828,-5.38607 1.59783,-7.59957 0,0 0,0 0,0 0.26818,-1.13454 0.52938,-2.26502 0.82992,-3.33224 0.30054,-1.06721 0.6395,-2.07128 1.02134,-2.97453 0.87895,-2.01562 1.76041,-3.36248 2.44041,-4.25263 0.68001,-0.89016 1.19281,-1.30465 1.53995,-1.18894 z"
       id="path3021"
       inkscape:path-effect="#path-effect3023"
       inkscape:original-d="m 787.91899,309.72889 c -2.19656,6.58965 -2.12363,5.32055 -3.03046,12.12183 -2.23764,16.78227 0.26216,1.18249 -2.02031,20.20305 -0.56736,4.72798 -1.21122,9.44947 -2.0203,14.14214 -0.87516,5.07589 -2.02031,10.10152 -3.03046,15.15228 -0.67344,5.38748 -1.18213,10.79812 -2.02031,16.16244 -0.84619,5.41566 -2.12932,10.75566 -3.03045,16.16244 -0.78286,4.69712 -1.29623,9.43561 -2.02031,14.14214 -0.62288,4.04871 -1.49049,8.05989 -2.0203,12.12183 -0.48104,3.68793 -0.65754,7.40927 -1.01016,11.11168 -0.32083,3.36872 -0.67343,6.73435 -1.01015,10.10152"
       inkscape:connector-curvature="0"
       transform="translate(0,308.2677)" />
    <path
       style="fill:#000000;fill-rule:evenodd;stroke:none"
       d="m 667.71083,539.03352 c -0.2797,0.0699 -0.63806,-0.20456 -1.09788,-0.79791 -0.22991,-0.29668 -0.48694,-0.67557 -0.75616,-1.16622 -0.26922,-0.49065 -0.55273,-1.09231 -0.78948,-1.87231 -0.41523,-1.39988 -0.64664,-3.17172 -0.6431,-5.10716 -0.0172,-1.47207 0.079,-3.19371 0.60958,-5.16186 0.3513,-1.20743 0.81781,-2.36478 1.29743,-3.45373 0.47963,-1.08895 0.97283,-2.10913 1.31546,-3.06199 0.64333,-1.70936 1.31298,-3.48433 1.9268,-5.323 0.18485,-0.57911 0.41477,-1.35767 0.81664,-2.32355 1.37503,-3.18481 3.30778,-5.93115 4.8015,-8.42685 0,0 0,0 1e-5,-10e-6 1.8341,-3.09038 3.82092,-6.34627 6.04235,-9.69123 2.00583,-3.04377 4.25809,-6.32005 7.15462,-9.49825 3.01555,-3.25013 6.35412,-5.9503 9.43922,-8.54651 0.77778,-0.65947 1.5659,-1.32401 2.36638,-1.99049 2.61086,-2.17385 5.2756,-4.30058 8.03758,-6.27828 4.74337,-3.38096 9.48827,-6.30952 14.06309,-8.9119 4.57482,-2.60238 8.97934,-4.87989 13.08756,-6.919 5.88765,-2.92837 11.19731,-5.26589 15.68404,-7.21101 0,0 0,0 0,0 9.87105,-4.28464 16.08086,-6.34012 16.64946,-5.274 0.5686,1.06612 -4.59782,5.07796 -13.65509,10.88844 0,0 -10e-6,0 -10e-6,0 -4.16037,2.66665 -9.1613,5.61944 -14.62054,8.95143 -3.87666,2.36635 -8.03134,4.88153 -12.31537,7.60233 -4.28402,2.7208 -8.69621,5.64783 -13.06192,8.89165 -2.46525,1.82393 -4.9341,3.83624 -7.46884,5.94678 -0.77714,0.64707 -1.55332,1.29713 -2.33024,1.94689 -3.26774,2.75357 -6.34066,5.10897 -8.74354,7.61593 -2.38128,2.42947 -4.48153,5.28419 -6.618,8.15583 -2.27078,3.07014 -4.40058,6.11033 -6.44899,9.02019 0,0 0,0 0,0 -2.0001,2.90385 -3.90574,5.02492 -5.00012,7.06578 -0.24491,0.40282 -0.50147,1.03658 -0.86483,1.81619 -0.91385,1.94762 -1.85349,3.71674 -2.75254,5.3492 -0.68599,1.27579 -1.38578,2.30473 -1.98801,3.20528 -0.60222,0.90055 -1.10745,1.6726 -1.46002,2.40082 -0.6034,1.15041 -0.96325,2.47481 -1.28905,3.74155 -0.40183,1.66289 -0.66733,3.02976 -0.76477,4.17219 -0.0693,0.55999 -0.0613,1.11696 -0.0597,1.6251 0.002,0.50813 -8.7e-4,0.9673 -0.0337,1.34855 -0.0656,0.7625 -0.25014,1.2012 -0.52984,1.27113 z"
       id="path3025"
       inkscape:path-effect="#path-effect3027"
       inkscape:original-d="m 667.71083,539.03352 c -0.33672,-1.34687 -0.83795,-2.66301 -1.01015,-4.04061 -0.32636,-2.61087 0.15188,-6.73114 1.01015,-9.09138 0.77192,-2.12277 2.0839,-4.01004 3.03046,-6.06091 4.9762,-10.78177 0.81114,-3.91671 8.08122,-15.15229 3.33876,-5.1599 8.93903,-13.72774 13.13198,-18.18275 2.77889,-2.95257 5.98996,-5.46949 9.09138,-8.08122 3.29836,-2.77757 6.61418,-5.54497 10.10152,-8.08122 9.05173,-6.58307 16.38871,-10.71402 26.26397,-16.16244 5.01198,-2.76523 10.10152,-5.38748 15.15229,-8.08122 5.05076,-2.69374 10.10152,-5.38748 15.15228,-8.08122"
       inkscape:connector-curvature="0"
       transform="translate(0,308.2677)" />
    <path
       style="fill:#000000;fill-rule:evenodd;stroke:none"
       d="m 352.54324,488.52589 c 0,0.15051 -0.21078,0.2852 -0.57608,0.49537 -0.18265,0.10508 -0.40587,0.23269 -0.68995,0.3844 -0.28409,0.15172 -0.62827,0.33012 -1.08632,0.49044 0,1e-5 0,1e-5 0,1e-5 -0.30875,0.14066 -0.76369,0.28859 -1.48213,0.21982 -0.72251,-0.20376 -1.26904,-0.74868 -1.36066,-1.59004 0.0155,-0.76414 0.41682,-1.45123 1.24182,-1.80354 0.66143,-0.19589 1.25966,-0.21242 1.65804,-0.14779 0.95432,0.0783 1.85405,0.31121 2.58545,0.3554 1.15829,0.1232 2.36544,0.36847 3.59164,0.66196 1.2262,0.29349 2.47098,0.63706 3.71369,0.85653 2.68701,0.49283 5.74601,0.92411 9.17996,1.52126 3.7258,0.74476 7.84036,1.5543 12.30857,2.54245 3.99611,0.88245 8.27144,1.84885 12.79496,2.95643 1.13532,0.27565 2.09334,0.56017 2.88471,0.67491 0,0 0,0 0,0 1.31085,0.21836 2.74747,0.38924 4.3067,0.63293 5.23242,0.81175 10.70904,1.77106 16.40097,2.7937 3.48067,0.62595 7.02451,1.31138 10.62915,2.00224 5.53042,1.0601 11.25109,2.174 17.13896,3.33123 5.42439,1.06615 10.98909,2.17063 16.67721,3.2986 1.98119,0.39287 3.97335,0.78825 5.97654,1.18021 1.10456,0.21577 2.15659,0.42961 3.16108,0.60249 10.58952,1.83505 21.51677,3.6684 32.7175,4.96991 0.82834,0.0964 1.65855,0.1926 2.49055,0.28863 10.6316,1.22704 21.08834,2.38698 31.23069,3.76842 12.46442,1.69921 24.23167,3.78795 35.31181,5.38443 4.68648,0.67586 9.29604,1.27223 13.7969,1.87474 6.92171,0.9266 13.53806,1.81973 19.79833,2.69105 7.09872,0.98804 13.74141,1.94495 19.85428,2.8778 5.03143,0.7679 9.74132,1.50489 14.04887,2.30495 4.80011,0.8928 9.06309,1.82004 12.76782,2.67982 3.70474,0.85978 6.85095,1.6543 9.40049,2.34598 5.09907,1.38336 7.81525,2.36081 7.7265,2.89334 -0.0888,0.53253 -2.98635,0.57922 -8.25782,0.15504 -2.63573,-0.21209 -5.86359,-0.54291 -9.62536,-0.95496 -3.76177,-0.41205 -8.05704,-0.90751 -12.83117,-1.38246 -4.27104,-0.42546 -8.96044,-0.80867 -14.0434,-1.25377 -6.14377,-0.53708 -12.81634,-1.12862 -19.95142,-1.78674 -6.28977,-0.58011 -12.93818,-1.20928 -19.89847,-1.90245 -4.50596,-0.44843 -9.16763,-0.90928 -13.96877,-1.47094 -11.32892,-1.32644 -23.16408,-3.19467 -35.39887,-4.71709 -10.01462,-1.24774 -20.42219,-2.33975 -31.10701,-3.57308 -0.83617,-0.0965 -1.67114,-0.19362 -2.50484,-0.29146 -11.54975,-1.35785 -22.66067,-3.30004 -33.28953,-5.29126 -1.18601,-0.22212 -2.30444,-0.46447 -3.36445,-0.68879 -2.01804,-0.42561 -4.0153,-0.85501 -5.99248,-1.28235 -5.68052,-1.22775 -11.22685,-2.44875 -16.62375,-3.64731 -5.86014,-1.30144 -11.5451,-2.57886 -17.03332,-3.82064 -3.59953,-0.81416 -7.08926,-1.62131 -10.47924,-2.36948 -5.64335,-1.24442 -11.01709,-2.43719 -16.11837,-3.49694 -1.37497,-0.28771 -2.84556,-0.54388 -4.37104,-0.88193 0,0 0,0 -10e-6,0 -1.3537,-0.30606 -2.4569,-0.6872 -3.37722,-0.9778 -4.38699,-1.34694 -8.56241,-2.57933 -12.477,-3.7478 -4.27856,-1.27954 -8.28585,-2.41947 -11.93509,-3.51847 -3.23383,-0.88459 -6.28443,-1.66084 -9.00278,-2.51936 -1.46202,-0.45671 -2.70253,-0.98378 -3.81699,-1.43612 -1.11446,-0.45233 -2.10241,-0.83179 -3.01982,-1.08599 -1.10178,-0.28912 -1.83891,-0.65767 -2.44902,-0.83546 -0.34846,-0.0576 -0.49689,-0.1627 -0.49872,-0.16111 0.28417,-0.1913 0.33634,-0.35593 0.35183,-0.59936 -0.0916,-0.28922 -0.24396,-0.36286 -0.47678,-0.45362 0.0439,0.10715 0.32561,0.0824 0.66445,0.0936 0,0 0,0 0,0 0.373,-0.006 0.75187,-0.043 1.0926,-0.0552 0.34072,-0.0122 0.64348,-0.002 0.88615,0.0332 0.48535,0.071 0.71966,0.23149 0.71966,0.382 z"
       id="path3037"
       inkscape:path-effect="#path-effect3039"
       inkscape:original-d="m 352.54324,488.52589 c -1.34687,0 -4.04061,1.34687 -4.04061,0 0,-1.34687 2.71546,-0.24094 4.04061,0 2.4118,0.43851 4.69292,1.42577 7.07107,2.0203 3.01169,0.75293 6.06091,1.34687 9.09137,2.02031 4.04061,1.01015 8.09016,1.98521 12.12183,3.03046 27.94594,7.24524 1.97744,1.20361 36.36549,8.08122 6.62094,1.32418 49.24057,10.33671 53.53809,11.11167 33.57245,6.05405 32.21356,4.59705 66.67006,9.09138 11.80477,1.53975 23.55058,3.51101 35.35534,5.05076 11.9062,1.55298 55.48369,6.33886 67.68022,8.08122 10.13794,1.44828 20.20305,3.36718 30.30458,5.05076"
       inkscape:connector-curvature="0"
       transform="translate(0,308.2677)" />
    <path
       style="fill:#000000;fill-rule:evenodd;stroke:none"
       d="m 453.48185,557.3877 c 0.33356,-0.0408 0.76193,0.77457 1.29712,2.36449 0.53519,1.58991 1.21178,3.94569 1.81238,7.11974 0,0 0,0 0,0 0.50854,2.72278 0.82534,6.01815 0.80713,9.76369 -0.0136,3.657 -0.23795,7.76449 -0.70939,12.23726 -0.46284,4.45529 -1.01484,9.3907 -2.13862,14.73129 -1.24531,5.8707 -3.08152,11.94811 -4.81161,18.22328 0,10e-6 -10e-6,10e-6 -10e-6,10e-6 -1.87835,6.81615 -3.8735,14.08267 -6.20412,21.66983 -2.69172,8.77217 -5.47331,18.12623 -9.0189,27.72455 -1.68614,4.55918 -3.48455,9.15823 -5.38671,13.78119 -2.15298,5.23257 -4.37533,10.34233 -6.6356,15.31532 -4.53905,9.98641 -9.11511,19.42027 -13.32622,28.32366 -2.17905,4.6063 -4.24486,9.1345 -6.28803,13.50215 -2.04316,4.36764 -4.06368,8.57459 -6.10906,12.55662 -1.99162,3.87448 -4.05231,7.39255 -5.97439,10.67938 -1.92208,3.28683 -3.70651,6.34229 -5.25206,9.23447 -1.33617,2.49295 -2.51927,4.91193 -3.61795,7.18945 -1.09868,2.27752 -2.11227,4.41381 -3.06956,6.36414 -2.20512,4.49162 -4.00387,7.99904 -5.3644,10.33375 -1.36053,2.33472 -2.27692,3.49972 -2.67665,3.33977 -0.39973,-0.15995 -0.25986,-1.6341 0.35985,-4.26389 0.6197,-2.62978 1.71291,-6.41715 3.27219,-11.19933 0.66773,-2.05298 1.40808,-4.30485 2.26346,-6.73783 0.85538,-2.43297 1.82519,-5.04742 2.99498,-7.80986 1.35337,-3.18733 2.94145,-6.49481 4.6316,-9.92428 1.69015,-3.42947 3.48304,-6.98027 5.13665,-10.70547 1.76937,-3.97104 3.54497,-8.18515 5.38789,-12.6032 1.84292,-4.41804 3.75328,-9.04012 5.83406,-13.80621 3.97486,-9.10719 8.36091,-18.62883 12.74667,-28.5342 2.17348,-4.90903 4.32951,-9.93326 6.43906,-15.05963 1.86379,-4.52915 3.64271,-9.02075 5.32816,-13.46206 3.49077,-9.18531 6.39564,-18.36527 9.35148,-27.12853 2.48518,-7.36569 4.72498,-14.50986 6.91756,-21.25869 0,0 0,-10e-6 0,-10e-6 2.06963,-6.38599 4.17689,-12.15812 5.68574,-17.55048 1.35811,-4.80893 2.24873,-9.51839 3.11006,-13.88771 0.83817,-4.25488 1.46712,-8.14054 1.91495,-11.6119 0.44845,-3.46397 0.62075,-6.50093 0.62132,-9.06316 0,0 0,-1e-5 0,-1e-5 -1.9e-4,-3.07656 -0.0716,-5.53786 0.0217,-7.22027 0.0933,-1.68241 0.31572,-2.58654 0.64928,-2.62732 0,0 0,0 0,0 z"
       id="path3041"
       inkscape:path-effect="#path-effect3043"
       inkscape:original-d="m 453.48185,557.3877 c 0.9962,8.14789 1.81778,11.2681 1.31217,19.07934 -0.25812,3.98779 -0.71825,7.96652 -1.31217,11.92458 -0.71895,4.79128 -1.47003,9.58903 -2.62434,14.3095 -1.47298,6.02371 -3.46207,11.93368 -5.24868,17.88689 -2.14996,7.164 -4.26558,14.33757 -6.56084,21.46426 -2.95381,9.17146 -5.79641,18.38016 -9.18519,27.42654 -8.21604,21.93283 -15.19293,35.8121 -24.93121,57.23803 -3.96901,8.73254 -7.65517,17.57302 -11.80952,26.23409 -3.28371,6.84597 -7.2299,13.41941 -10.49735,20.2718 -2.84824,5.9732 -9.14318,21.95551 -11.80952,28.61901"
       inkscape:connector-curvature="0" />
    <path
       style="fill:#000000;fill-rule:evenodd;stroke:none"
       d="m 457.22535,567.46304 c -0.16538,-0.0503 -0.22511,-0.36252 -0.34272,-0.89827 -0.0588,-0.26788 -0.13687,-0.59573 -0.22855,-1.01096 -0.0917,-0.41524 -0.20111,-0.91788 -0.23865,-1.56044 0,0 0,0 0,0 -0.0696,-0.45848 -0.0869,-1.10764 0.30901,-1.97618 0.57755,-0.7945 1.45098,-1.23065 2.35231,-1.06395 0.63784,0.11863 1.19526,0.49476 1.54968,1.1369 0.26284,0.59459 0.35451,1.13739 0.31487,1.53483 -0.0253,0.98138 -0.26225,1.93772 -0.58503,2.76642 -0.22711,0.67324 -0.56359,1.45186 -1.16873,2.27491 0.14349,0.17191 -0.35765,0.55591 -1.63137,0.9913 -3e-5,0 -6e-5,0 -1e-4,0 -0.95362,-0.0413 -1.62164,-0.39912 -1.9735,-1.06106 -10e-6,-3e-5 -2e-5,-5e-5 -3e-5,-7e-5 -0.25168,-0.62374 -0.3367,-1.01206 -0.28064,-1.13343 -0.14511,-1.97861 -0.35949,-4.22557 -0.34385,-6.8143 -0.12341,-0.0626 -0.0809,-0.70693 0.38294,-1.91806 2e-5,-3e-5 3e-5,-7e-5 4e-5,-10e-5 0.22557,-0.78319 1.2053,-1.1944 2.93165,-1.18524 8e-5,0 1.6e-4,0 2.4e-4,0 0.9169,0.4628 1.33119,0.75819 1.2463,0.84371 -1e-5,0 -1e-5,10e-6 -1e-5,10e-6 0.65657,0.56289 0.6187,0.79343 0.0374,0.224 -0.70773,-0.16639 -1.17834,-0.17879 -1.49353,0.0595 0,0 0,0 -10e-6,0 -0.15408,0.16768 -0.17224,-2.4e-4 0.10421,-0.35931 -0.36854,0.97735 -0.50737,1.29292 -0.34616,0.95597 -0.003,-0.0494 -0.0129,-0.1468 -0.0208,-0.29418 -0.0251,-0.37847 -0.0656,-0.79149 -0.10545,-1.24386 -0.0376,-0.40851 -0.079,-0.85666 -0.10673,-1.34946 -0.0112,-0.13926 -0.0176,-0.35345 -0.008,-0.64482 0,0 0,-10e-6 0,-10e-6 8e-5,-6e-5 8e-5,-6e-5 8e-5,-6e-5 0.43937,-0.40277 0.9147,-0.95136 1.43247,-1.6459 4e-5,-1.4e-4 8e-5,-1.3e-4 1.2e-4,-1.1e-4 0.2203,0.0698 0.43208,0.12947 0.64843,0.21163 2.70233,1.02619 3.9205,2.0243 3.65707,2.6172 0,0 0,10e-6 0,2e-5 -0.11949,0.71006 -0.21524,0.76671 -0.0817,0.14714 0.0668,-0.1162 0.17484,0.58093 -0.0705,2.14492 -0.52838,1.88495 -1.30039,3.51561 -1.88405,4.93993 -0.48104,1.34209 -0.92629,2.48597 -0.78725,3.31135 0.0164,1.82583 0.54959,3.7864 1.27527,6.00456 0.72569,2.21817 1.64473,4.69397 2.26654,7.57971 0.66262,2.99114 1.13322,6.03158 1.63131,9.03194 0.49809,3.00036 1.02344,5.96057 1.88352,8.7728 0.99269,3.36481 2.29452,6.80114 3.73016,10.38568 1.43563,3.58455 3.00506,7.31742 4.46476,11.29601 0,1e-5 0,1e-5 0,1e-5 1.61573,4.39236 3.13957,8.89103 4.70682,13.42051 1.56724,4.52948 3.17809,9.08962 5.00808,13.59302 3.70645,9.15811 8.33125,18.50053 12.75804,28.45936 1.22094,3.11701 2.4571,6.25996 3.70131,9.42871 3.08304,7.85191 6.10779,15.59462 8.97048,23.21686 3.88735,10.35531 7.452,20.41962 10.86969,30.02166 2.97894,8.36609 5.57963,16.38256 8.29297,23.84545 0,10e-6 0,10e-6 0,10e-6 3.00363,8.26386 6.26286,15.88616 9.67574,22.76876 1.22776,2.4865 2.59073,4.89475 3.93875,7.27318 1.94699,3.43226 3.85943,6.68124 5.6983,9.74781 2.10748,3.5138 4.10957,6.77093 6.00968,9.75024 0,1e-5 0,1e-5 0,1e-5 1.74072,2.72175 3.3282,5.17071 4.91483,7.27406 1.86134,2.48065 3.71818,4.60318 5.3518,6.46428 1.63362,1.8611 3.04842,3.45669 4.15799,4.79086 2.21915,2.66834 3.2186,4.27302 2.91367,4.57675 -0.30493,0.30373 -1.87678,-0.69051 -4.63616,-2.77091 -1.37969,-1.04019 -3.06073,-2.35185 -4.99447,-3.98178 -1.93374,-1.62992 -4.12454,-3.57397 -6.42283,-6.00498 -1.97031,-2.09666 -3.91371,-4.52395 -5.89797,-7.11206 -10e-6,0 -10e-6,0 -10e-6,0 -2.20291,-2.86943 -4.49833,-6.02664 -6.87657,-9.43559 -2.07658,-2.97611 -4.22654,-6.1558 -6.41275,-9.54587 -1.4958,-2.31562 -3.05527,-4.76516 -4.54848,-7.43648 -3.90594,-6.99083 -7.62666,-14.78098 -11.02261,-23.23875 0,0 0,-10e-6 -1e-5,-10e-6 -3.0392,-7.56806 -5.88077,-15.57039 -8.97783,-23.71288 -3.63177,-9.55131 -7.33742,-19.53316 -11.27903,-29.75648 -2.88316,-7.48096 -5.90806,-15.12532 -8.97195,-22.93146 -1.23648,-3.15028 -2.46186,-6.28351 -3.66902,-9.39927 -4.25567,-9.65399 -8.82509,-19.11704 -12.55475,-28.71976 -3.72563,-9.62657 -6.37732,-18.97406 -9.26971,-27.56653 0,-10e-6 0,-10e-6 -1e-5,-2e-5 -1.26693,-3.75863 -2.7025,-7.48134 -4.04838,-11.2188 -1.34587,-3.73746 -2.60197,-7.4896 -3.57715,-11.28334 -0.862,-3.45223 -1.31948,-6.74794 -1.69547,-9.85319 -0.37598,-3.10526 -0.67031,-6.02021 -1.11792,-8.72881 -0.37225,-2.21766 -1.11919,-4.58702 -1.72661,-7.09541 -0.60742,-2.50839 -1.07614,-5.15552 -1.05976,-7.90986 0.13904,-2.44744 0.88463,-4.368 1.6785,-5.85595 0.80393,-1.65586 1.58342,-2.93725 1.97838,-4.08613 0.0108,0.72251 -0.13734,0.52541 -0.0705,-0.45412 0.13357,-1.18165 0.30201,-1.64798 0.31385,-1.47728 0,0 -10e-6,0 -10e-6,10e-6 -0.16329,0.18163 0.97844,0.61636 3.26156,1.64255 0.18279,0.0822 0.38699,0.1908 0.59941,0.29322 4e-5,2e-5 8e-5,4e-5 1.2e-4,6e-5 0.49949,-0.61907 0.96917,-1.08964 1.40332,-1.41493 0,0 0,0 10e-6,0 7e-5,-6e-5 7e-5,-6e-5 7e-5,-6e-5 -0.009,-0.0146 -0.0108,0.048 -0.0177,0.18433 -0.0142,0.36746 -0.013,0.77004 -0.0142,1.20345 -0.001,0.44233 -9e-4,0.91409 -0.0151,1.41095 -0.004,0.17287 -0.0122,0.39468 -0.0336,0.66232 0.15154,-0.16999 0.0271,0.32746 -0.42803,1.44703 -0.26467,0.52991 -0.87871,1.24957 -1.8927,1.94898 0,10e-6 -1e-5,10e-6 -2e-5,10e-6 -0.77289,0.52135 -1.82113,0.61699 -3.02007,0.2525 -1.44063,-0.91598 -1.93025,-1.58696 -1.85627,-1.71053 0,0 -10e-6,0 -10e-6,0 -0.16415,-0.008 0.16786,0.1848 0.96856,0.61047 8e-5,0 1.5e-4,0 2.3e-4,0 1.64042,-0.0183 2.53453,-0.36222 2.71647,-1.06675 1e-5,-3e-5 2e-5,-7e-5 3e-5,-10e-5 0.16578,-0.6737 0.26833,-0.66097 0.10873,-0.12262 -0.27703,2.27185 -0.34262,4.48962 -0.48773,6.53259 0.0561,0.0436 -0.0236,-0.1727 -0.19875,-0.652 -2e-5,-2e-5 -3e-5,-5e-5 -4e-5,-7e-5 -0.3078,-0.57884 -0.88593,-0.87808 -1.7464,-0.9281 -3e-5,0 -6e-5,0 -9e-5,0 -0.93609,0.40385 -1.21117,0.46326 -0.85271,0.38129 0.31971,-0.26911 0.59807,-0.74055 0.90771,-1.26317 0.34008,-0.64812 0.61666,-1.15836 0.70038,-1.60386 0.004,-0.1767 0.0716,-0.21592 0.10475,-0.11542 0.14945,0.2013 0.28843,0.26911 0.47438,0.29495 0.0645,-0.005 0.0541,-0.15029 0.22643,-0.29237 -0.15756,0.0226 -0.21287,0.40072 -0.33369,0.82591 0,0 0,0 0,0 -0.10253,0.47846 -0.1596,0.97967 -0.24004,1.42351 -0.0804,0.44385 -0.18028,0.83157 -0.2961,1.1325 -0.23163,0.60185 -0.5039,0.84716 -0.66928,0.79683 z"
       id="path3049"
       inkscape:path-effect="#path-effect3051"
       inkscape:original-d="m 457.22535,567.46304 c 0.52735,-1.7327 -0.52736,-5.63128 1.58204,-5.19809 2.1094,0.43316 -1.58204,6.98412 -1.58204,5.19809 0,-14.57579 0.16001,-2.86192 3.16409,-7.79716 0.16538,-0.2717 -0.15976,-3.89858 0,-3.89858 0.52735,0 0,0.86636 0,1.29954 0,0.43317 0.12796,0.87928 0,1.29952 -0.93112,3.05941 -3.16409,5.94312 -3.16409,9.09668 0,4.84304 2.23259,9.51256 3.16409,14.29477 1.17828,6.04908 1.52144,12.21779 3.16411,18.19337 2.05826,7.48735 5.31189,14.71875 7.91023,22.09193 3.20254,9.0876 5.92664,18.29413 9.49231,27.29004 3.82181,9.64218 8.43759,19.0597 12.65639,28.58955 4.2188,10.82938 8.52757,21.63539 12.65638,32.48815 3.78165,9.94017 7.40537,19.92045 11.07436,29.88907 6.53172,17.74677 10.16782,30.07003 18.98458,46.78293 3.81719,7.23581 16.2643,26.83943 22.14867,33.78765 4.28016,5.05397 9.49231,9.52987 14.23846,14.29478"
       inkscape:connector-curvature="0" />
    <path
       style="fill:none;stroke:#000000;stroke-width:1px;stroke-linecap:butt;stroke-linejoin:miter;stroke-opacity:1"
       d="m 338.4011,338.01316 c -11.52651,11.52651 2.66667,-3.04762 -7.07107,8.08122 -1.25429,1.43348 -2.78631,2.60713 -4.04061,4.04061 -4.18729,4.78548 -2.18897,3.56003 -6.06091,9.09137 -1.23641,1.7663 -2.77249,3.30709 -4.04061,5.05077 -1.42814,1.96369 -2.58375,4.11843 -4.04061,6.06091 -1.57791,2.10388 -3.5222,3.92092 -5.05076,6.06092 -1.84636,2.58489 -3.21888,5.48605 -5.05077,8.08122 -2.21398,3.13648 -4.71404,6.06091 -7.07106,9.09137 -2.35703,3.03046 -4.69215,6.07807 -7.07107,9.09137 -2.67196,3.38449 -5.49397,6.65186 -8.08122,10.10153 -2.4661,3.28813 -4.60497,6.81339 -7.07107,10.10152 -14.41117,19.2149 -1.93341,1.25299 -15.15229,19.1929 -2.43814,3.30891 -4.63292,6.79262 -7.07107,10.10153 -2.58108,3.5029 -10.51863,13.25257 -13.13198,17.17259 -1.50585,2.25877 -2.69374,4.71405 -4.04061,7.07107 -1.34687,2.35702 -2.67275,4.72616 -4.04061,7.07107 -0.98929,1.69593 -2.15241,3.29465 -3.03046,5.05076 -2.32186,4.64372 -1.74441,4.5902 -3.03045,9.09137 -0.006,0.0212 -2.01728,6.04881 -2.02031,6.06092 -0.0817,0.32666 0,0.67343 0,1.01015 0,0.33672 0,0.67343 0,1.01015"
       id="path3053"
       inkscape:connector-curvature="0"
       transform="translate(0,308.2677)" />
    <path
       style="fill:none;stroke:#000000;stroke-width:1px;stroke-linecap:butt;stroke-linejoin:miter;stroke-opacity:1"
       d="m 673.77175,389.53094 c 1.01492,5.07461 0.56167,5.75285 4.04061,10.10152 1.48737,1.85922 3.54305,3.20801 5.05076,5.05077 1.53757,1.87925 2.39988,4.27103 4.04061,6.06091 2.09771,2.28841 4.87594,3.86579 7.07107,6.06092 2.53099,2.53098 4.71404,5.38748 7.07107,8.08122 2.35702,2.69374 4.70288,5.39728 7.07106,8.08122 2.68263,3.0403 5.45526,6.002 8.08122,9.09137 3.09943,3.64638 6.06092,7.40779 9.09138,11.11168 7.30845,8.93255 12.26658,14.76554 19.1929,24.24366 5.00568,6.84989 12.38622,18.07426 17.17259,25.25381 2.69374,4.04061 5.47404,8.02484 8.08122,12.12183 4.40137,5.98894 7.19368,12.92411 11.11168,19.1929 1.53517,2.45628 3.40201,4.68955 5.05076,7.07107 0.74253,1.07254 5.51809,8.54855 7.07107,10.10153 1.19047,1.19047 2.85013,1.83998 4.04061,3.03045 0.85846,0.85847 1.16184,2.172 2.0203,3.03046 0.5324,0.5324 1.34687,0.67344 2.02031,1.01015 0.67343,0.33672 1.34687,0.67344 2.0203,1.01016"
       id="path3055"
       inkscape:connector-curvature="0"
       transform="translate(0,308.2677)" />
    <path
       style="fill:none;stroke:#000000;stroke-width:1px;stroke-linecap:butt;stroke-linejoin:miter;stroke-opacity:1"
       d="m 780.84792,311.74919 c 4.53852,0 6.10113,-0.48999 10.10152,1.01016 3.22762,1.21035 7.60044,4.24194 10.10153,6.06091 4.88237,3.55081 7.81074,6.49265 12.12183,11.11168 2.44226,2.61671 4.87355,5.25585 7.07107,8.08122 4.01607,5.16352 10.81683,15.7502 14.14213,21.2132 2.43223,3.9958 4.91294,7.97158 7.07107,12.12183 2.22421,4.27733 3.90487,8.8199 6.06092,13.13199 1.88682,3.77364 4.04061,7.40778 6.06091,11.11167 4.99315,9.15411 6.6341,12.52429 12.12183,21.21321 6.33962,10.03774 6.28759,9.37471 14.14214,19.1929 5.38748,6.73435 10.77496,13.4687 16.16244,20.20305 2.69374,3.36717 5.49397,6.65185 8.08122,10.10152 2.46609,3.28813 4.54767,6.85716 7.07107,10.10153 4.63304,5.95677 8.85467,9.86483 14.14213,15.15229 2.02031,2.0203 4.04061,4.04061 6.06092,6.06091 1.68358,1.68359 3.28101,3.45799 5.05076,5.05076 1.60257,1.44232 3.52621,2.51606 5.05076,4.04061 2.84377,2.84377 2.75648,4.20322 5.05076,7.07107 -0.25878,1.55771 3.39115,2.381 4.04062,3.03046 0.23809,0.23809 -0.2381,0.77206 0,1.01015 0.23809,0.2381 1.01015,-0.33672 1.01015,0 0,0.33672 -0.67344,0 -1.01015,0"
       id="path3057"
       inkscape:connector-curvature="0"
       transform="translate(0,308.2677)" />
    <path
       style="fill:#000000;fill-rule:evenodd;stroke:none"
       d="m 194.02929,793.37898 c 0.20767,-0.22056 0.49115,-0.35691 0.81575,-0.45509 0.32459,-0.0982 0.6905,-0.16083 1.10494,-0.22279 0.41444,-0.062 0.87883,-0.12541 1.42956,-0.17729 0.55073,-0.0519 1.1899,-0.0935 1.95618,-0.0373 0,0 0,0 0,0 0.73384,-0.006 1.60301,0.0558 2.63376,0.31374 1.03075,0.25797 2.22452,0.71264 3.56819,1.552 1.55809,1.15624 2.63612,2.35302 3.28336,2.92533 1.74158,1.62069 3.54736,3.45853 5.34295,5.46169 0.40142,0.44782 0.79458,0.89526 1.17898,1.34141 1.75239,2.03389 3.32286,4.04111 4.66542,5.93741 0,0 0,0 0,0 0.49904,0.76137 1.54171,1.99449 2.43546,3.60867 0.53353,1.10473 0.73696,1.88818 0.80955,2.4185 0.0726,0.53033 0.0143,0.80844 -0.0379,0.92128 -0.36278,-0.0295 0.0298,0.50998 0.43515,1.30886 0.40056,0.60971 0.44324,0.99284 0.39806,1.23799 -0.0452,0.24515 -0.17956,0.35459 -0.26531,0.42527 0,0 0,0 0,0 -0.42393,0.10576 -0.47735,0.18609 -0.42053,0.2845 0.0568,0.0984 0.22562,0.21244 0.37457,0.34229 0.14895,0.12985 0.28055,0.27375 0.35984,0.421 0.0793,0.14725 0.10947,0.29711 0.10947,0.44744 0,0.15033 -0.0261,0.29881 -0.0583,0.4524 -0.0322,0.1536 -0.0679,0.3142 -0.13969,0.47736 -0.0718,0.16316 -0.17815,0.33147 -0.43739,0.45528 -0.25923,0.12381 -0.67067,0.20605 -1.45606,0.11019 0,0 0,0 0,0 -0.52278,-0.1731 -1.06238,-0.44853 -1.50125,-0.7016 -0.43888,-0.25307 -0.77497,-0.48545 -0.8808,-0.44066 -0.34876,-0.0424 -1.00702,-0.27934 -2.07963,-1.49664 -0.52683,-0.68134 -0.92857,-1.32509 -1.20952,-1.76577 -0.28095,-0.44068 -0.44034,-0.67778 -0.53363,-0.50541 -0.40707,-0.32077 -1.30014,-0.76341 -2.59412,-2.00235 0,0 0,0 0,0 -1.73874,-1.54119 -3.56289,-3.32101 -5.39372,-5.28457 -0.40161,-0.43072 -0.80355,-0.87029 -1.20497,-1.31812 -1.7956,-2.00315 -3.42575,-3.99843 -4.84704,-5.90624 -1.12406,-1.40377 -1.4896,-2.32356 -1.74622,-2.68567 -0.0898,-0.36004 -0.47681,-0.69396 -0.98292,-1.06031 -0.50612,-0.36635 -1.13053,-0.76391 -1.74054,-1.19775 0,0 0,0 0,0 -0.68691,-0.4064 -1.37001,-0.89267 -1.93512,-1.40527 -0.56512,-0.5126 -1.01316,-1.04918 -1.30744,-1.54744 -0.29429,-0.49826 -0.43671,-0.9564 -0.4467,-1.33496 -0.01,-0.37855 0.10995,-0.67686 0.31762,-0.89742 z"
       id="path3077"
       inkscape:path-effect="#path-effect3079"
       inkscape:original-d="m 194.02929,793.37898 c 2.3887,2.24916 6.24814,2.07164 8.80174,4.20823 0.94839,0.79351 1.67653,1.87033 2.51479,2.8055 2.09566,2.33792 4.19131,4.67582 6.28697,7.01373 1.67652,1.87033 3.35304,3.74066 5.02957,5.61099 0.83827,0.93518 1.8035,1.74748 2.51479,2.80551 0.56232,0.83643 0.73752,1.93554 1.25739,2.80548 0.32879,0.55021 0.83827,0.93518 1.25739,1.40275 0.41913,0.46758 0.72724,1.10703 1.2574,1.40276 0.37487,0.2091 0.83826,0 1.25739,0"
       inkscape:connector-curvature="0" />
    <path
       style="fill:#000000;fill-rule:evenodd;stroke:none"
       d="m 194.95944,791.13723 c -0.44221,-1.14787 1.45619,-3.08495 5.11715,-5.41375 0,0 0,0 0,0 0.8208,-0.36212 1.67539,-0.68135 2.48169,-0.98931 0.80631,-0.30795 1.56381,-0.60414 2.17233,-0.96555 1.78524,-0.47023 3.96877,-1.34529 6.99306,-2.28022 1e-5,0 1e-5,0 1e-5,0 1.02176,0.54147 2.29036,1.17746 3.73042,2.04856 1.44006,0.8711 3.05161,1.9782 4.70561,3.47586 0.74919,1.21218 1.05056,1.87133 0.96591,1.91406 0,0 0,0 0,0 0.17177,0.49686 0.30125,0.93427 0.40154,1.30403 0.16638,0.60245 0.31495,1.19656 0.45061,1.77919 0.0902,0.38756 0.17397,0.76644 0.253,1.13621 0.19749,0.91926 0.37303,1.81832 0.53365,2.69447 0,0 1e-5,10e-6 1e-5,10e-6 0.056,0.30483 0.10813,0.59828 0.15835,0.88036 0,0 0,0 0,0 0.094,0.35065 0.0638,0.31899 -0.0564,-0.0954 0.45318,1.55348 0.88122,2.8951 1.42183,3.99007 0,0 0,0 0,0 0.71489,1.45593 1.64311,3.03544 2.43585,4.7153 0.60771,1.32857 1.20744,2.73185 1.63995,4.12071 0.34349,1.15042 0.53707,2.16111 0.66089,3.0492 0.12382,0.8881 0.17707,1.65461 0.19006,2.31821 0,0 0,0 0,0 0.0613,1.75232 -0.23095,2.87189 -0.92046,3.17019 -0.68951,0.2983 -1.7056,-0.25535 -2.94076,-1.49975 0,0 0,0 0,0 -0.99233,-1.02659 -2.03321,-2.54486 -3.18967,-3.97249 -0.65882,-0.81844 -1.47417,-1.7304 -2.40065,-2.88423 -0.94216,-1.12732 -2.12139,-2.43419 -3.37265,-4.20501 0,0 0,0 0,0 -1.23096,-1.81246 -2.1801,-3.79625 -2.87119,-5.76944 -0.20387,-0.67199 -0.27268,-0.97504 -0.2352,-0.89071 0,0 0,0 0,0 -0.0748,-0.30693 -0.14581,-0.60633 -0.21457,-0.89726 0,0 0,0 0,0 -0.20101,-0.85108 -0.39667,-1.70459 -0.59281,-2.55607 -0.0816,-0.35284 -0.16106,-0.69995 -0.24004,-1.0405 -0.11874,-0.51197 -0.23479,-1.00192 -0.35389,-1.46909 -0.0795,-0.30374 -0.13612,-0.53499 -0.18523,-0.69166 -1e-5,0 -1e-5,0 -1e-5,0 -0.21349,-0.33852 -0.0232,-0.0776 0.48777,0.81342 0.21961,-0.43646 0.0874,-0.91002 -0.24026,-1.52101 -0.32767,-0.61099 -0.84992,-1.35931 -1.42523,-2.29449 0,0 0,0 0,0 -0.57062,0.72702 -1.64112,1.73221 -3.10847,2.38976 -1.21093,0.26943 -2.24562,0.36244 -3.13999,0.3952 -0.89436,0.0328 -1.64909,0.005 -2.30751,-0.0151 0,0 0,0 0,0 -3.89997,0.58405 -6.56246,0.40405 -7.00467,-0.74381 z"
       id="path3097"
       inkscape:path-effect="#path-effect3099"
       inkscape:original-d="m 194.95944,791.13723 c 2.0203,-0.77832 4.04061,-1.55665 6.06091,-2.33497 1.68359,-0.38916 3.40624,-0.59729 5.05076,-1.16748 1.73681,-0.60221 3.36718,-1.55666 5.05077,-2.33499 1.68359,1.55665 3.64763,2.778 5.05076,4.66996 0.54269,0.73175 1.93382,7.90587 2.02031,8.17242 1.49882,4.6194 2.54162,5.27997 5.05076,9.33991 0.70565,1.14178 1.41796,2.28419 2.0203,3.50247 0.74711,1.51108 1.34687,3.1133 2.02031,4.66995 0.33672,0.77832 0.67343,1.55665 1.01015,2.33497"
       inkscape:connector-curvature="0" />
    <path
       style="fill:#000000;fill-rule:evenodd;stroke:none"
       d="m 802.06112,837.19987 c 0.74195,0.14839 1.34502,0.79727 1.78105,1.8156 0.43603,1.01833 0.68235,2.39795 0.95812,3.77063 0.13027,-0.0174 0.40532,0.34023 0.53296,1.48479 0.19282,0.94635 0.351,1.96167 0.46931,3.03045 0.1612,1.45616 0.24841,3.01158 0.24841,4.62704 0,0.48368 -0.008,0.96197 -0.0231,1.43383 -0.0339,1.04556 -0.10436,2.05952 -0.20764,3.03044 -0.0155,1.49821 -0.32345,1.6721 -0.40728,0.92979 0,0 0,0 0,0 -0.69782,-1.11468 -0.0502,-0.13424 0.56128,2.13252 0.14045,2.15944 -0.22505,2.88704 -0.48408,2.99856 0,0 0,0 0,0 -0.8954,2.50474 -2.10212,4.04059 -3.42903,4.04059 -1.32691,0 -2.53363,-1.53585 -3.42903,-4.04059 0,0 0,0 0,0 -0.25903,-1.12784 -0.27057,-1.78561 -0.48408,-1.042 0.13322,0.44326 0.0507,0.63081 -0.21152,0.37646 -0.26227,-0.25434 -0.70461,-0.95128 -1.2475,-2.28454 0,0 0,0 0,0 -0.39957,-2.00524 -0.39174,-3.20915 -0.40728,-3.11079 -0.10328,-0.97092 -0.17378,-1.98488 -0.20764,-3.03044 -0.0153,-0.47186 -0.0231,-0.95015 -0.0231,-1.43383 0,-1.61546 0.0872,-3.17088 0.24841,-4.62704 0.11831,-1.06878 0.27649,-2.0841 0.46931,-3.03045 0.12764,-0.28755 0.22447,-1.29031 0.53296,-2.55581 0.72185,-1.74982 1.58412,-2.87578 2.40202,-3.60428 0.8179,-0.72851 1.6155,-1.05932 2.35745,-0.91093 z"
       id="path3101"
       inkscape:path-effect="#path-effect3103"
       inkscape:original-d="m 802.06112,837.19987 c -0.33672,1.68358 -0.76734,3.35106 -1.01015,5.05072 -0.0952,0.66667 0,1.34687 0,2.0203 0,1.01015 0,2.0203 0,3.03045 0,2.02028 0,4.04058 0,6.06087 0,1.01015 0,2.02029 0,3.03044 0,0.67343 -0.16333,1.36697 0,2.02029 0.18261,0.73044 0.82754,1.28986 1.01015,2.0203 0.16333,0.65332 0,1.34686 0,2.02028 0,1.34686 0,2.69373 0,4.04059"
       inkscape:connector-curvature="0" />
    <path
       style="fill:#000000;fill-rule:evenodd;stroke:none"
       d="m 797.01035,835.76073 c 0,-1.01118 0.97438,-1.95258 2.67645,-2.7771 0.85103,-0.41226 1.89174,-0.79511 3.12753,-1.10948 1.23579,-0.31437 2.66873,-0.56061 4.30283,-0.65621 1.28763,0.066 2.33152,0.24325 3.03634,0.3899 0.70481,0.14665 1.06954,0.26209 1.04014,0.16202 0.6464,0.0275 1.40946,-0.001 2.31083,-0.0267 0.93928,-0.0267 1.98965,-0.0453 3.11473,0.0118 0,0 0,0 0,0 7.80297,0.42315 13.72619,2.46588 13.72619,4.91959 0,2.45371 -5.92322,4.49644 -13.72619,4.91959 0,0 0,0 0,0 -0.82293,0.0571 -1.78183,0.13211 -2.89238,0.15098 -1.06573,0.0181 -2.22796,-0.0196 -3.44738,-0.16596 -1.43773,-0.23133 -2.39672,-0.55449 -2.98413,-0.81104 -0.58742,-0.25655 -0.80442,-0.44625 -0.78291,-0.46452 -1.25129,-0.28767 -2.4886,-0.54886 -3.63356,-0.84299 -1.14495,-0.29413 -2.19549,-0.62075 -3.07397,-0.99576 -1.75696,-0.75001 -2.79452,-1.69286 -2.79452,-2.70404 0,0 0,0 0,0 z"
       id="path3105"
       inkscape:path-effect="#path-effect3107"
       inkscape:original-d="m 797.01035,835.76073 c 3.26814,0 6.56913,-0.21536 9.80443,0 1.44686,0.0963 2.48859,0.78016 3.92176,0.91374 1.92281,0.17919 3.92178,0 5.88266,0 4.57539,0 9.15078,0 13.72619,0"
       inkscape:connector-curvature="0" />
    <path
       style="fill:#000000;fill-rule:evenodd;stroke:none"
       d="m 802.06509,868.88823 c -0.15129,-0.30902 -0.17673,-0.66345 -0.17608,-1.0293 6.6e-4,-0.36584 0.0222,-0.74533 0.0164,-1.17857 -0.006,-0.43324 -0.0419,-0.92468 -0.042,-1.53663 -1.1e-4,-0.61194 0.0354,-1.34944 0.31378,-2.22419 0,0 10e-6,0 10e-6,0 0.0716,-0.79863 0.2226,-1.77759 0.65638,-2.9621 0.43378,-1.1845 1.15244,-2.57722 2.44103,-4.1127 1.42492,-1.12076 2.55053,-1.74873 3.10416,-1.97978 0.55363,-0.23106 0.53422,-0.065 -0.33671,0.32557 0.23338,-0.1575 0.51322,-1.12835 1.47717,-2.7093 0.33193,-0.5444 0.74,-1.14793 1.23996,-1.78717 1.57716,-1.8656 2.87774,-2.77608 3.56666,-3.36038 1.38429,-1.28814 2.67605,-2.37079 3.83454,-3.31746 0.21105,-0.12283 0.55616,-0.45612 1.03572,-0.88739 0.774,-0.69599 1.30428,-0.9822 1.61417,-1.08312 3.1614,-1.62993 5.57088,-2.17953 6.49435,-1.1755 0.92347,1.00403 0.19323,3.37114 -1.80804,6.3852 -0.36382,0.50511 -0.59379,0.80621 -0.46536,0.86489 -0.0646,0.2049 -0.22328,0.57894 -0.58526,1.1426 -0.87094,1.48461 -1.94143,3.00152 -3.09222,4.48918 -1.25241,1.54138 -2.39321,2.4918 -2.74324,3.08808 -0.11251,0.14315 -0.24684,0.38616 -0.42925,0.71912 -0.52974,0.96695 -1.46891,2.64428 -3.1635,4.45709 -1.73994,1.27866 -2.93527,1.83671 -3.53199,1.99637 -0.59672,0.15966 -0.59541,-0.0782 -0.0104,-0.42636 -0.37222,-0.008 -0.74604,0.44074 -1.21299,1.06678 -0.46695,0.62604 -1.02473,1.42699 -1.66399,2.18979 0,0 0,0 0,0 -0.4523,0.73011 -1.10806,1.51111 -1.81976,2.13376 -0.71169,0.62265 -1.47463,1.08924 -2.15197,1.34728 -0.67735,0.25804 -1.26602,0.31204 -1.6993,0.21447 -0.43327,-0.0976 -0.71095,-0.34121 -0.86224,-0.65023 z"
       id="path3109"
       inkscape:path-effect="#path-effect3111"
       inkscape:original-d="m 802.06509,868.88823 c 2.99795,-1.46771 3.75927,-7.3267 6.30989,-9.67267 0.95056,-0.87429 2.23258,-0.6695 3.15494,-1.61211 1.23747,-1.26464 2.0124,-3.3768 3.15494,-4.83634 0.97098,-1.24037 2.12645,-2.09806 3.15495,-3.22423 7.66739,-8.39546 0.57466,-1.49582 9.46483,-9.67267"
       inkscape:connector-curvature="0" />
    <path
       style="fill:#000000;fill-rule:evenodd;stroke:none"
       d="m 946.08544,831.13877 c -0.23844,0 -0.4767,-0.13666 -0.69868,-0.37878 -0.111,-0.12106 -0.21668,-0.26454 -0.32256,-0.38108 -0.10589,-0.11654 -0.21072,-0.20696 -0.34427,-0.17281 0,0 0,0 0,0 -0.34472,-0.29071 -0.79921,-0.6356 -1.33911,-1.46716 -0.39957,-0.54097 -0.82159,-1.1675 -1.26272,-1.87308 0,0 0,0 0,0 -0.41388,-0.63804 -0.86591,-1.3815 -1.30814,-2.29357 -0.44223,-0.91208 -0.87544,-1.99309 -1.19944,-3.32711 -0.27154,-1.48673 -0.29623,-2.7524 -0.40227,-3.51212 -0.14744,-1.52731 -0.14727,-2.85045 -0.36834,-3.74356 0,0 0,0 0,-10e-6 -0.29032,-1.68819 -1.12824,-3.76958 -1.80208,-6.65645 -0.30548,-1.18024 -0.71589,-2.70761 -0.93054,-4.68504 -0.18284,-2.17493 -0.0777,-4.04973 -0.0727,-5.53912 -6.8e-4,-0.0422 -0.001,-0.0852 -0.002,-0.12914 -0.0193,-0.96762 -0.0759,-2.32748 0.0915,-4.02354 0.78381,-2.56729 1.66776,-4.79124 2.40633,-6.72361 2.39479,-1.28355 4.99648,-2.70516 7.74439,-3.82298 2.17259,-0.29265 3.02707,-0.17758 2.69712,-0.0764 0,0 0,0 0,0 0.48772,0.0354 0.96887,0.0724 1.4431,0.11097 1.52255,0.0532 2.15999,0.33224 2.16699,0.32656 -0.29155,0.30605 0.82476,-0.31434 2.94758,-0.68761 1.95332,-0.11711 3.00387,0.19011 3.54404,0.35521 1.04212,0.16742 2.00688,0.34495 2.88621,0.53143 0.73975,0.10717 1.2543,0.28019 1.64522,0.42914 0.39091,0.14894 0.65846,0.27486 0.87989,0.34533 0,0 0,0 0,0 0.30231,0.12714 0.67557,0.15669 1.04489,0.18499 0.36933,0.0283 0.73441,0.0533 1.04844,0.10954 0.62807,0.11243 1.03088,0.35105 1.15396,0.69555 0.12308,0.3445 0.008,0.76396 -0.32957,1.27931 -0.16857,0.25767 -0.39715,0.54182 -0.73697,0.84508 -0.33981,0.30327 -0.79004,0.62754 -1.45857,0.92811 0,0 0,0 0,0 -0.58456,0.21445 -1.20629,0.36768 -1.78092,0.48115 -0.57463,0.11348 -1.102,0.18615 -1.46637,0.29332 -0.87933,0.18648 -1.84409,0.36401 -2.88621,0.53143 -1.27432,0.1651 -2.1751,0.11386 -2.22836,0.35521 0.19907,-0.0296 -0.42586,0.69228 -2.82482,1.37481 -1.82712,0.32198 -3.1368,0.27341 -3.60543,0.32656 -0.47423,0.0386 -0.95538,0.0756 -1.4431,0.11097 0,0 0,0 0,0 -1.28473,0.10123 -1.42003,-0.0529 -0.18908,-0.0763 -1.01162,-0.0432 -2.19121,0.15481 -3.80041,0.30186 0.31703,1.07984 0.58819,1.92022 1.03749,2.51671 -0.0727,0.57515 0.0214,1.54049 0.0163,2.91672 -2.3e-4,0.0624 -6.8e-4,0.12564 -0.001,0.18962 0.005,2.01621 -0.15071,3.59221 -0.0726,4.77296 0.007,0.86817 0.28294,2.06832 0.51256,3.56464 0.3421,2.19497 0.97214,4.869 1.0841,7.78047 0,0 0,0 0,0 0.0301,1.97825 -0.2209,3.41934 -0.36834,4.50611 -0.10604,1.40646 -0.3576,2.21621 -0.40227,2.67511 -0.0875,0.69386 -0.0228,1.46838 0.0715,2.26856 0.0943,0.80019 0.21886,1.62546 0.30718,2.42287 0,0 0,0 0,0 0.095,0.82675 0.15556,1.57971 0.18038,2.25174 -0.0422,0.59089 0.0583,1.3894 0.004,2.054 0,0 0,0 0,0 -0.007,0.45079 -0.0922,0.74371 -0.19599,0.96039 -0.10378,0.21668 -0.22734,0.35676 -0.34943,0.46341 -0.24418,0.21332 -0.48193,0.30963 -0.72037,0.30963 0,0 0,0 0,0 z"
       id="path3125"
       inkscape:path-effect="#path-effect3127"
       inkscape:original-d="m 946.08544,831.13877 c 0,-1.79983 0.10756,-0.72376 -0.72155,-3.09363 -0.24052,-0.68747 -0.48103,-1.37494 -0.72155,-2.06241 -0.58884,-1.68309 -1.22019,-3.24464 -1.44311,-5.15605 -0.11861,-1.01717 0,-2.06242 0,-3.09362 0,-1.37495 0.11933,-2.76051 0,-4.12484 -0.25062,-2.86554 -0.91061,-4.55494 -1.44309,-7.21846 -0.27244,-1.36274 -0.61204,-2.71625 -0.72155,-4.12484 -0.13281,-1.70817 0,-3.43737 0,-5.15604 0,-4.84635 -0.14151,-2.08245 0.72155,-8.24967 1.92413,-0.68748 3.82757,-1.50652 5.7724,-2.06242 0.4717,-0.13483 0.96207,0 1.4431,0 0.48104,0 0.96207,0 1.4431,0 0.96207,0 1.93157,0.17054 2.88621,0 0.98402,-0.17579 1.90218,-0.85542 2.8862,-1.03121 0.95464,-0.17054 1.92414,0 2.8862,0 0.96207,0 1.92414,0 2.88621,0 0.96206,0 1.93156,0.17054 2.8862,0 0.98402,-0.17579 1.92413,-0.68748 2.8862,-1.03121"
       inkscape:connector-curvature="0" />
    <path
       style="fill:#000000;fill-rule:evenodd;stroke:none"
       d="m 945.77318,826.08107 c -0.29818,-0.0365 -0.57539,-0.18568 -0.84068,-0.42406 -0.26529,-0.23838 -0.52122,-0.56457 -0.76473,-0.9973 -0.24352,-0.43273 -0.47755,-0.97221 -0.645,-1.68802 -0.16744,-0.71581 -0.27071,-1.60949 -0.15783,-2.78792 0.32318,-1.18104 0.85367,-2.21269 1.47079,-2.88735 0.14555,-0.36196 0.15289,-0.41664 -0.23651,-0.0493 -8.3e-4,-0.25873 -0.0861,-0.74866 -0.0699,-1.58677 0.0162,-0.8381 0.13435,-2.02615 0.6353,-3.63687 1.02792,-2.43242 2.22062,-3.85984 2.3572,-4.30555 0.5392,-1.08278 1.07804,-2.29612 1.68603,-3.62077 0.92553,-2.01648 1.96475,-4.1438 3.24409,-6.14293 1.19938,-1.85654 2.23766,-2.82572 2.81418,-3.50177 0.72431,-0.83941 1.45591,-2.01339 2.30672,-3.1327 2.67271,-3.38055 4.98699,-5.17275 6.2692,-4.54401 1.28221,0.62874 1.28235,3.55582 0.24624,7.73889 -0.24104,1.10732 -0.55373,2.49351 -1.30704,4.23704 -0.79408,1.71974 -1.68888,3.02165 -2.0042,3.86797 -0.74667,1.61613 -1.49323,3.5264 -2.48171,5.66429 -0.64934,1.4044 -1.37874,2.83537 -2.22489,4.22465 -0.68235,1.11663 -1.29389,1.84464 -1.73139,2.3126 -0.43749,0.46796 -0.70098,0.67647 -0.72977,0.75159 -0.20976,0.0803 -0.35487,0.65595 -0.61856,1.49748 -0.26369,0.84152 -0.64542,1.9471 -1.22522,3.10522 -0.7901,1.34799 -1.52191,2.03653 -2.08981,2.33663 -0.18815,0.0726 -0.30844,-0.11028 -0.28967,-0.36009 -0.36866,0.29463 -0.64796,0.77984 -0.92872,1.27963 -0.28076,0.49978 -0.56016,1.01364 -0.85565,1.43661 -0.2955,0.42296 -0.60431,0.75595 -0.91345,0.96197 -0.30915,0.20602 -0.61684,0.28736 -0.91502,0.25081 z"
       id="path3129"
       inkscape:path-effect="#path-effect3131"
       inkscape:original-d="m 945.77318,826.08107 c 0.20076,-1.63772 0.14313,-3.50856 0.6023,-4.91316 0.40152,-1.2283 1.34347,-1.32252 1.80688,-2.45658 0.57479,-1.40663 0.62028,-3.52294 1.20459,-4.91317 0.65328,-1.5543 1.65373,-2.33681 2.40918,-3.68487 1.7094,-3.0503 3.10896,-6.77601 4.81836,-9.82632 0.75546,-1.34806 1.64702,-2.3526 2.40919,-3.68487 0.64671,-1.13047 1.20458,-2.45658 1.80688,-3.68487 1.00382,-2.04715 2.00765,-4.09431 3.01148,-6.14145"
       inkscape:connector-curvature="0" />
    <path
       style="fill:#ff8080;fill-opacity:1;stroke:#000000;stroke-width:0.10101525;stroke-miterlimit:4;stroke-opacity:1;stroke-dasharray:none"
       d="m 657.39507,537.43303 c -9.26225,-2.49682 -37.03313,-7.13859 -64.07519,-10.70984 l -21.64877,-2.85902 -6.13043,-7.2185 c -10.71572,-12.61766 -25.32422,-37.70307 -32.26856,-55.41095 -1.9609,-5.00026 -7.26637,-19.54646 -11.78993,-32.32489 -11.77948,-33.27543 -20.26688,-55.16753 -28.78471,-74.24621 -4.09273,-9.16713 -9.47232,-22.34962 -11.95463,-29.29442 -2.48232,-6.9448 -6.31599,-17.39988 -8.51928,-23.23351 -2.20328,-5.83363 -4.75952,-14.24315 -5.68051,-18.68782 -0.921,-4.44467 -2.63233,-11.62628 -3.80297,-15.95913 -1.67805,-6.21088 -1.91079,-8.5871 -1.09987,-11.22932 0.73894,-2.40767 0.71129,-3.34458 -0.0982,-3.32717 -3.04059,0.0654 -4.66225,-0.38823 -4.66225,-1.30419 0,-0.55558 0.77276,-1.01015 1.71726,-1.01015 1.06907,0 1.35504,-0.35195 0.75761,-0.93244 -0.5278,-0.51285 -2.1589,-0.69685 -3.62465,-0.40891 -2.59898,0.51058 -2.68205,0.76516 -3.3532,10.27636 -1.18955,16.85767 -5.00983,32.51671 -16.06389,65.84466 -12.00037,36.18109 -14.62404,43.00271 -28.93345,75.22798 -5.67418,12.77843 -11.16159,25.37104 -12.19426,27.98355 -1.03266,2.61253 -5.48545,12.61304 -9.89509,22.22336 -4.40963,9.61033 -9.50098,22.24628 -11.31411,28.07992 -1.81313,5.83363 -3.33695,10.68499 -3.38626,10.78079 -0.0493,0.0958 -4.17816,-0.59649 -9.17521,-1.5384 l -9.08554,-1.71259 0.26454,-3.51237 c 1.18003,-15.6673 2.4375,-41.61417 2.93619,-60.58598 0.91604,-34.84912 -2.57451,-60.57157 -10.2842,-75.7859 -1.38214,-2.72753 -2.51298,-5.18138 -2.51298,-5.453 0,-0.27163 4.21778,-3.85168 9.37285,-7.95567 16.68268,-13.28122 33.48244,-32.85263 68.24217,-79.5009 11.38474,-15.27856 22.60387,-30.05204 24.9314,-32.82996 6.44501,-7.69216 17.06021,-24.02049 16.91027,-26.01143 -0.2381,-3.16171 1.19909,-1.87291 4.09756,3.67448 22.92211,43.87066 55.15275,82.07476 116.5837,138.19079 33.11909,30.25368 54.42178,46.84135 71.67944,55.81433 l 7.25639,3.77291 0.31976,9.75919 c 0.36821,11.23855 -0.51393,32.47234 -2.24411,54.01746 -0.66666,8.30162 -1.00147,24.04262 -0.75203,35.35534 0.40007,18.14367 0.75055,21.50499 3.17943,30.493 1.50139,5.55584 3.17292,10.89702 3.71452,11.86929 1.22469,2.19853 0.63545,2.17663 -8.62883,-0.32074 l 0,0 z M 463.25615,247.96262 c -0.59411,-1.54821 -4.21425,-2.87399 -5.18821,-1.90004 -0.8479,0.84791 2.26732,3.20846 4.23421,3.20846 0.80084,0 1.23015,-0.58879 0.954,-1.30842 l 0,0 z"
       id="path3152"
       inkscape:connector-curvature="0"
       transform="translate(0,308.2677)" />
    <path
       style="fill:#ff8080;fill-opacity:1;stroke:#000000;stroke-width:0.10101525;stroke-miterlimit:4;stroke-opacity:1;stroke-dasharray:none"
       d="m 668.62244,391.85253 c -0.97703,-1.49114 -5.98963,-5.04521 -11.1391,-7.89792 -15.52098,-8.59832 -39.08738,-27.63563 -70.20954,-56.71636 -24.39551,-22.79533 -55.44088,-54.32259 -68.98358,-70.05435 -5.14806,-5.98019 -23.53765,-31.82468 -30.13356,-42.34931 -9.60153,-15.32047 -17.5011,-30.82127 -15.96022,-31.31769 22.09262,-7.11748 54.83637,-17.95393 64.4854,-21.34126 6.9448,-2.438 16.03617,-5.42692 20.20305,-6.64204 17.34937,-5.05933 86.99405,-29.45933 94.60023,-33.14317 l 8.23219,-3.98703 2.10004,5.75064 c 1.15503,3.16285 3.44644,10.97818 5.09202,17.3674 3.61684,14.04286 12.00071,38.56822 17.3042,50.62002 4.17328,9.48347 20.54603,37.66683 28.09871,48.36797 8.71177,12.34337 22.42741,27.17506 35.27329,38.1435 20.86655,17.81687 24.44873,20.25132 35.04508,23.81677 l 9.51483,3.20152 -15.2977,7.07107 c -18.63009,8.6114 -45.21721,23.2228 -54.80295,30.1179 -8.33894,5.99826 -31.45617,25.4805 -32.565,27.44443 -0.8332,1.47575 -8.02084,9.03895 -13.84006,14.56323 -1.99023,1.88935 -3.98362,4.84383 -4.42974,6.56552 l -0.81116,3.13034 -1.77643,-2.71118 0,0 z"
       id="path3154"
       inkscape:connector-curvature="0"
       transform="translate(0,308.2677)" />
    <path
       style="fill:#ff8080;fill-opacity:1;stroke:#000000;stroke-width:0.10101525;stroke-miterlimit:4;stroke-opacity:1;stroke-dasharray:none"
       d="m 551.32905,520.71859 c -4.44467,-0.76123 -17.39988,-2.52604 -28.78935,-3.92179 -32.22947,-3.94962 -40.93029,-5.31838 -70.78523,-11.13544 -15.31956,-2.98494 -33.50231,-6.37469 -40.4061,-7.53279 -10.81531,-1.81425 -36.17968,-7.06539 -37.11041,-7.68291 -0.503,-0.33372 10.56553,-22.03184 17.18383,-33.68618 7.33392,-12.91448 28.86648,-58.3358 37.8022,-79.7409 9.13592,-21.88467 22.02663,-64.00764 26.54672,-86.74675 l 1.75806,-8.84427 0.73745,5.55584 c 1.00217,7.55026 17.24051,55.00955 24.36668,71.21576 6.65493,15.13452 16.48654,39.9687 29.79324,75.25636 5.1329,13.61181 11.80101,29.97628 14.81803,36.36549 6.89844,14.60907 20.91393,35.61392 30.15354,45.19076 8.02673,8.31967 8.2055,8.15155 -6.06866,5.70682 z"
       id="path3156"
       inkscape:connector-curvature="0"
       transform="translate(0,308.2677)" />
    <path
       style="fill:#ff8080;fill-opacity:1;stroke:#000000;stroke-width:0.10101525;stroke-miterlimit:4;stroke-opacity:1;stroke-dasharray:none"
       d="m 722.93251,448.86035 c -7.31498,-8.99657 -25.95799,-30.03821 -31.61251,-35.67983 -3.10236,-3.09528 -7.59364,-7.96373 -9.98062,-10.81878 -4.25992,-5.09526 -4.31143,-5.24616 -2.79316,-8.18217 0.85074,-1.64515 2.83525,-3.90864 4.41003,-5.02998 1.57478,-1.12134 5.55911,-5.27846 8.85408,-9.23803 5.44684,-6.5455 21.07017,-21.04693 32.855,-30.4957 8.31052,-6.66316 55.08292,-34.14819 58.11137,-34.14819 0.32919,0 0.3009,0.77556 -0.0628,1.72346 -0.36374,0.9479 -1.55935,7.19822 -2.65689,13.8896 -1.09755,6.69137 -3.33855,19.21195 -4.98002,27.8235 -4.89737,25.69287 -9.28319,57.47331 -10.36628,75.11607 -0.23288,3.79341 -0.40972,3.96414 -6.45229,6.2294 -3.41706,1.281 -11.55213,4.86704 -18.07793,7.96898 -6.52581,3.10194 -12.19843,5.63989 -12.60583,5.63989 -0.40741,0 -2.49636,-2.1592 -4.64212,-4.79822 z"
       id="path3158"
       inkscape:connector-curvature="0"
       transform="translate(0,308.2677)" />
    <path
       style="fill:#ff8080;fill-opacity:1;stroke:#000000;stroke-width:0.10101525;stroke-miterlimit:4;stroke-opacity:1;stroke-dasharray:none"
       d="m 668.5598,498.61036 c 0.30367,-9.44493 1.04682,-23.30927 1.65145,-30.80965 1.71696,-21.29897 1.40184,-48.38493 -0.6853,-58.90304 -0.96879,-4.88221 -1.51972,-9.11846 -1.2243,-9.41388 0.29543,-0.29543 1.51427,-0.0142 2.70853,0.62495 1.62677,0.87062 2.51961,0.87311 3.55969,0.01 1.09837,-0.91156 2.18917,-0.24059 5.22319,3.2129 2.10919,2.40079 7.49996,8.22891 11.9795,12.95138 9.90789,10.4452 20.50511,22.38919 28.12475,31.69901 l 5.68846,6.95027 -9.28079,5.86047 c -12.15876,7.67778 -26.13225,19.20882 -31.0485,25.62147 -4.72796,6.16704 -14.47226,22.11978 -16.08807,26.33835 -0.91618,2.39197 -1.04441,-0.58762 -0.60861,-14.14214 z"
       id="path3160"
       inkscape:connector-curvature="0"
       transform="translate(0,308.2677)" />
    <path
       style="fill:#ff8080;fill-opacity:1;stroke:#000000;stroke-width:0.10101525;stroke-miterlimit:4;stroke-opacity:1;stroke-dasharray:none"
       d="m 208.86923,488.99537 c -2.16009,-2.21214 -4.63068,-4.0686 -5.4902,-4.12547 -0.85952,-0.0569 -0.19905,-0.45521 1.4677,-0.88519 1.66675,-0.42998 3.76103,-1.08902 4.65394,-1.46454 1.31058,-0.55115 1.82835,0.34959 2.68635,4.67326 0.58457,2.94581 0.96089,5.46131 0.83626,5.59001 -0.12463,0.1287 -1.99396,-1.57593 -4.15405,-3.78807 z"
       id="path3162"
       inkscape:connector-curvature="0"
       transform="translate(0,308.2677)" />
    <path
       style="fill:#ff8080;fill-opacity:1;stroke:#000000;stroke-width:0.10101525;stroke-miterlimit:4;stroke-opacity:1;stroke-dasharray:none"
       d="m 806.45197,543.0504 c -0.0327,-2.226 -0.4961,-5.56997 -1.02985,-7.43104 -0.9147,-3.18935 -0.84215,-3.34936 1.26269,-2.78504 1.22823,0.32929 4.48559,0.60492 7.23859,0.61251 l 5.00546,0.0138 -5.00546,4.79823 c -2.753,2.63902 -5.54693,5.70736 -6.20874,6.81853 -1.07017,1.79681 -1.20985,1.57257 -1.26269,-2.02698 z"
       id="path3164"
       inkscape:connector-curvature="0"
       transform="translate(0,308.2677)" />
    <path
       style="fill:#ffffff;fill-opacity:1;stroke:#000000;stroke-width:0.10101525;stroke-miterlimit:4;stroke-opacity:1;stroke-dasharray:none"
       d="m 946.61476,492.04437 c -0.21257,-4.16688 -0.14336,-7.85848 0.1538,-8.20355 0.29716,-0.34508 2.95021,-0.89465 5.89566,-1.22127 l 5.35537,-0.59385 -2.94902,3.74664 c -1.62197,2.06066 -4.1011,6.01949 -5.50917,8.79741 l -2.56014,5.05076 -0.3865,-7.57614 z"
       id="path3166"
       inkscape:connector-curvature="0"
       transform="translate(0,308.2677)" />
    <path
       style="fill:#ffffff;fill-opacity:1;stroke:#000000;stroke-width:0.10101525;stroke-miterlimit:4;stroke-opacity:1;stroke-dasharray:none"
       d="m 805.89308,539.56968 c -0.39788,-3.42816 -0.56191,-6.38066 -0.3645,-6.56111 0.1974,-0.18044 3.21803,-0.0389 6.7125,0.31452 l 6.35359,0.64261 -5.98908,5.9185 -5.98909,5.9185 -0.72342,-6.23302 z"
       id="path3168"
       inkscape:connector-curvature="0"
       transform="translate(0,308.2677)" />
    <path
       style="fill:#ffffff;fill-opacity:1;stroke:#000000;stroke-width:0.10101525;stroke-miterlimit:4;stroke-opacity:1;stroke-dasharray:none"
       d="m 722.77918,448.24496 c -2.77182,-2.85614 -8.33013,-9.05682 -12.3518,-13.77929 -4.02167,-4.72246 -11.63301,-13.25467 -16.91407,-18.96048 -12.20498,-13.18656 -15.41011,-17.23954 -15.41011,-19.48648 0,-2.28289 21.36259,-24.47014 35.51324,-36.88415 5.92049,-5.19389 15.23914,-12.36026 20.70813,-15.92527 17.98391,-11.72298 44.83518,-26.93146 47.54873,-26.93146 0.77557,0 -0.11348,5.74738 -5.54719,35.86041 -6.75565,37.43905 -8.73671,50.90449 -10.84893,73.74114 -1.00742,10.89183 -1.31715,11.60215 -5.93697,13.61552 -2.28819,0.99721 -10.36157,4.54235 -17.94085,7.87809 l -13.7805,6.06496 -5.03968,-5.19299 0,0 z"
       id="path3170"
       inkscape:connector-curvature="0"
       transform="translate(0,308.2677)" />
    <path
       style="fill:#ffffff;fill-opacity:1;stroke:#000000;stroke-width:0.10101525;stroke-miterlimit:4;stroke-opacity:1;stroke-dasharray:none"
       d="m 668.17353,391.72969 c -1.29445,-1.38478 -7.20385,-5.61578 -13.13199,-9.4022 -23.50707,-15.01444 -50.8644,-38.38933 -91.47352,-78.15762 -23.13836,-22.65926 -42.41563,-43.41167 -51.62203,-55.57226 -18.89233,-24.9546 -41.5802,-62.37739 -39.23724,-64.72035 0.47759,-0.47759 23.1355,-8.17844 50.35092,-17.11302 81.57463,-26.78021 120.80337,-40.42299 131.02042,-45.56562 l 5.7764,-2.90749 2.64705,8.83724 c 16.40282,54.76102 21.26982,66.84195 38.39246,95.29806 13.67349,22.72397 27.3616,39.1159 46.9415,56.21383 17.37565,15.1731 24.45799,20.02563 34.43803,23.59559 4.93062,1.76372 8.96475,3.39504 8.96475,3.62515 0,0.23011 -1.70463,1.12974 -3.78807,1.99915 -9.08855,3.79267 -40.19067,19.76203 -51.58919,26.48845 -11.44054,6.7512 -30.19209,20.93617 -41.78853,31.61171 -8.78712,8.08933 -22.88848,23.95917 -23.21917,26.13117 -0.32366,2.12576 -0.36128,2.12068 -2.68179,-0.36179 z"
       id="path3172"
       inkscape:connector-curvature="0"
       transform="translate(0,308.2677)" />
    <path
       style="fill:#ffffff;fill-opacity:1;stroke:#000000;stroke-width:0.10101525;stroke-miterlimit:4;stroke-opacity:1;stroke-dasharray:none"
       d="m 668.48731,507.95427 c 0.24584,-2.36123 0.97895,-17.70292 1.62912,-34.09265 1.10732,-27.91362 0.85259,-54.72328 -0.64416,-67.79501 l -0.64931,-5.67063 4.11835,0 c 4.02917,0 4.44185,0.35245 19.05892,16.27723 18.663,20.3327 32.56998,36.43969 32.56998,37.72238 0,0.53902 -3.97747,3.61515 -8.83883,6.83586 -21.8453,14.47278 -33.21285,26.51419 -43.70949,46.30056 -1.37584,2.59347 -2.83453,4.71541 -3.24155,4.71541 -0.40701,0 -0.53888,-1.93192 -0.29303,-4.29315 z"
       id="path3174"
       inkscape:connector-curvature="0"
       transform="translate(0,308.2677)" />
    <path
       style="fill:#ffffff;fill-opacity:1;stroke:#000000;stroke-width:0.10101525;stroke-miterlimit:4;stroke-opacity:1;stroke-dasharray:none"
       d="m 654.86969,536.83643 c -8.98106,-1.96195 -57.32581,-9.59091 -77.23254,-12.18755 -5.81065,-0.75795 -6.18569,-0.99247 -10.94736,-6.84568 -14.98953,-18.42572 -28.7585,-44.01485 -39.67851,-73.74108 -3.67371,-10.00051 -9.84372,-26.81955 -13.71112,-37.37564 -3.8674,-10.5561 -13.34456,-34.64823 -21.06036,-53.53809 -7.71579,-18.88985 -16.0792,-40.13441 -18.58534,-47.21011 -6.22539,-17.57645 -11.88041,-40.29865 -11.81957,-47.49169 0.0467,-5.52099 -0.0746,-5.80837 -2.45298,-5.80837 -2.86883,0 -3.37097,-1.62461 -0.73436,-2.37586 0.97228,-0.27704 0.17678,-0.42401 -1.76776,-0.32661 l -3.53554,0.17708 -0.77016,7.07107 c -1.73935,15.96951 -4.26225,28.2194 -9.362,45.45687 -12.70021,42.92755 -21.91565,66.76368 -52.69317,136.2932 -6.37537,14.40262 -13.44116,31.44894 -15.70175,37.88072 -2.26059,6.43178 -4.26557,11.88138 -4.4555,12.11021 -0.18994,0.22884 -4.27485,-0.19522 -9.07759,-0.94234 l -8.73225,-1.35842 0.69946,-12.18963 c 3.02335,-52.68869 3.2119,-68.6646 1.05326,-89.2425 -1.74954,-16.67796 -4.09343,-27.00531 -8.44337,-37.20206 l -2.9523,-6.92052 4.1908,-3.55697 c 23.16801,-19.66398 31.33026,-29.03175 74.8321,-85.8844 27.1734,-35.51297 39.99877,-53.56101 39.99877,-56.28683 0,-2.91295 1.89726,-0.87105 6.07375,6.53682 27.51813,48.80901 56.20289,81.60782 128.79299,147.2648 18.88146,17.07808 40.8678,33.68335 55.45987,41.88626 l 9.88321,5.55584 -0.4842,21.21321 c -0.2663,11.66726 -1.08013,33.12686 -1.80851,47.68801 -1.59426,31.87099 -0.57016,50.18039 3.57401,63.89859 1.42076,4.70307 2.46427,8.82501 2.3189,9.15988 -0.14535,0.33487 -5.03725,-0.43383 -10.87088,-1.70821 l 0,0 z M 462.9407,248.1606 c 0,-1.57542 -3.7715,-3.19928 -4.87276,-2.09802 -0.69293,0.69293 2.57004,3.54518 4.05568,3.54518 0.4494,0 0.81708,-0.65122 0.81708,-1.44716 z"
       id="path3176"
       inkscape:connector-curvature="0"
       transform="translate(0,308.2677)" />
    <path
       style="fill:#ffffff;fill-opacity:1;stroke:#000000;stroke-width:0.10101525;stroke-miterlimit:4;stroke-opacity:1;stroke-dasharray:none"
       d="m 546.78336,520.32274 c -6.38921,-0.9784 -22.07183,-3.21869 -34.85026,-4.97842 -32.89265,-4.52969 -134.98586,-23.09373 -136.75973,-24.8676 -0.6649,-0.6649 3.82822,-10.34484 11.20181,-24.13309 15.90167,-29.73535 37.12453,-74.74338 45.75435,-97.0328 7.65897,-19.78186 15.93946,-46.91198 21.71356,-71.14204 l 3.71363,-15.58365 1.25316,6.36966 c 1.9083,9.69971 15.3844,48.40051 25.51873,73.28497 4.97782,12.22284 13.99388,34.95127 20.03569,50.50762 21.24219,54.694 23.57128,59.99886 32.81945,74.75129 6.6026,10.53229 18.15166,25.96148 22.61026,30.20661 3.17745,3.02533 3.29638,4.73587 0.31426,4.52001 -0.93949,-0.068 -6.93569,-0.92415 -13.32491,-1.90256 l 0,0 z"
       id="path3178"
       inkscape:connector-curvature="0"
       transform="translate(0,308.2677)" />
    <path
       style="fill:#ffffff;fill-opacity:1;stroke:#000000;stroke-width:0.10101525;stroke-miterlimit:4;stroke-opacity:1;stroke-dasharray:none"
       d="m 207.62685,488.02029 c -4.07016,-3.62597 -4.17412,-3.85397 -2.02031,-4.43118 4.73219,-1.26821 5.60257,-0.79019 6.32276,3.47256 0.38178,2.25978 0.53538,4.26002 0.34132,4.44498 -0.19405,0.18496 -2.28375,-1.3839 -4.64377,-3.48636 z"
       id="path3182"
       inkscape:connector-curvature="0"
       transform="translate(0,308.2677)" />
  </g>
</svg>
