<?xml version="1.0" encoding="UTF-8" standalone="no"?>
<!-- Created with Inkscape (http://www.inkscape.org/) -->

<svg
   xmlns:dc="http://purl.org/dc/elements/1.1/"
   xmlns:cc="http://creativecommons.org/ns#"
   xmlns:rdf="http://www.w3.org/1999/02/22-rdf-syntax-ns#"
   xmlns:svg="http://www.w3.org/2000/svg"
   xmlns="http://www.w3.org/2000/svg"
   xmlns:sodipodi="http://sodipodi.sourceforge.net/DTD/sodipodi-0.dtd"
   xmlns:inkscape="http://www.inkscape.org/namespaces/inkscape"
   width="1013.5518"
   height="677.9007"
   id="svg2"
   version="1.1"
   inkscape:version="0.48.4 r9939"
   sodipodi:docname="house.svg">
  <defs
     id="defs4">
    <inkscape:path-effect
       effect="skeletal"
       id="path-effect3441"
       is_visible="true"
       pattern="M 0,5 C 0,2.24 2.24,0 5,0 7.76,0 10,2.24 10,5 10,7.76 7.76,10 5,10 2.24,10 0,7.76 0,5 z"
       copytype="single_stretched"
       prop_scale="1"
       scale_y_rel="false"
       spacing="0"
       normal_offset="0"
       tang_offset="0"
       prop_units="false"
       vertical_pattern="false"
       fuse_tolerance="0" />
    <inkscape:path-effect
       effect="skeletal"
       id="path-effect3437"
       is_visible="true"
       pattern="M 0,5 C 0,2.24 2.24,0 5,0 7.76,0 10,2.24 10,5 10,7.76 7.76,10 5,10 2.24,10 0,7.76 0,5 z"
       copytype="single_stretched"
       prop_scale="1"
       scale_y_rel="false"
       spacing="0"
       normal_offset="0"
       tang_offset="0"
       prop_units="false"
       vertical_pattern="false"
       fuse_tolerance="0" />
    <inkscape:path-effect
       effect="skeletal"
       id="path-effect3433"
       is_visible="true"
       pattern="M 0,5 C 0,2.24 2.24,0 5,0 7.76,0 10,2.24 10,5 10,7.76 7.76,10 5,10 2.24,10 0,7.76 0,5 z"
       copytype="single_stretched"
       prop_scale="1"
       scale_y_rel="false"
       spacing="0"
       normal_offset="0"
       tang_offset="0"
       prop_units="false"
       vertical_pattern="false"
       fuse_tolerance="0" />
    <inkscape:path-effect
       effect="skeletal"
       id="path-effect3429"
       is_visible="true"
       pattern="M 0,5 C 0,2.24 2.24,0 5,0 7.76,0 10,2.24 10,5 10,7.76 7.76,10 5,10 2.24,10 0,7.76 0,5 z"
       copytype="single_stretched"
       prop_scale="1"
       scale_y_rel="false"
       spacing="0"
       normal_offset="0"
       tang_offset="0"
       prop_units="false"
       vertical_pattern="false"
       fuse_tolerance="0" />
    <inkscape:path-effect
       effect="skeletal"
       id="path-effect3099"
       is_visible="true"
       pattern="m 15.152289,316.29816 c 0,-2.76 2.24,-5 5,-5 2.76,0 5,2.24 5,5 0,2.76 -2.24,5 -5,5 -2.76,0 -5,-2.24 -5,-5 z"
       copytype="single_stretched"
       prop_scale="1"
       scale_y_rel="false"
       spacing="0"
       normal_offset="0"
       tang_offset="0"
       prop_units="false"
       vertical_pattern="false"
       fuse_tolerance="0" />
    <inkscape:path-effect
       effect="skeletal"
       id="path-effect3095"
       is_visible="true"
       pattern="M 0,5 C 0,2.24 2.24,0 5,0 7.76,0 10,2.24 10,5 10,7.76 7.76,10 5,10 2.24,10 0,7.76 0,5 z"
       copytype="single_stretched"
       prop_scale="1"
       scale_y_rel="false"
       spacing="0"
       normal_offset="0"
       tang_offset="0"
       prop_units="false"
       vertical_pattern="false"
       fuse_tolerance="0" />
    <inkscape:path-effect
       effect="skeletal"
       id="path-effect3091"
       is_visible="true"
       pattern="M 0,5 C 0,2.24 2.24,0 5,0 7.76,0 10,2.24 10,5 10,7.76 7.76,10 5,10 2.24,10 0,7.76 0,5 z"
       copytype="single_stretched"
       prop_scale="1"
       scale_y_rel="false"
       spacing="0"
       normal_offset="0"
       tang_offset="0"
       prop_units="false"
       vertical_pattern="false"
       fuse_tolerance="0" />
    <inkscape:path-effect
       effect="skeletal"
       id="path-effect3087"
       is_visible="true"
       pattern="M 0,5 C 0,2.24 2.24,0 5,0 7.76,0 10,2.24 10,5 10,7.76 7.76,10 5,10 2.24,10 0,7.76 0,5 z"
       copytype="single_stretched"
       prop_scale="1"
       scale_y_rel="false"
       spacing="0"
       normal_offset="0"
       tang_offset="0"
       prop_units="false"
       vertical_pattern="false"
       fuse_tolerance="0" />
    <inkscape:path-effect
       effect="skeletal"
       id="path-effect3075"
       is_visible="true"
       pattern="m -1.0101525,337.51136 c 0,-2.76 2.24,-5 5,-5 2.76,0 5,2.24 5,5 0,2.76 -2.24,5 -5,5 -2.76,0 -5,-2.24 -5,-5 z"
       copytype="single_stretched"
       prop_scale="1"
       scale_y_rel="false"
       spacing="0"
       normal_offset="0"
       tang_offset="0"
       prop_units="false"
       vertical_pattern="false"
       fuse_tolerance="0" />
    <inkscape:path-effect
       effect="skeletal"
       id="path-effect3071"
       is_visible="true"
       pattern="M 0,5 C 0,2.24 2.24,0 5,0 7.76,0 10,2.24 10,5 10,7.76 7.76,10 5,10 2.24,10 0,7.76 0,5 z"
       copytype="single_stretched"
       prop_scale="1"
       scale_y_rel="false"
       spacing="0"
       normal_offset="0"
       tang_offset="0"
       prop_units="false"
       vertical_pattern="false"
       fuse_tolerance="0" />
    <inkscape:path-effect
       effect="skeletal"
       id="path-effect3063"
       is_visible="true"
       pattern="M 0,5 C 0,2.24 2.24,0 5,0 7.76,0 10,2.24 10,5 10,7.76 7.76,10 5,10 2.24,10 0,7.76 0,5 z"
       copytype="single_stretched"
       prop_scale="1"
       scale_y_rel="false"
       spacing="0"
       normal_offset="0"
       tang_offset="0"
       prop_units="false"
       vertical_pattern="false"
       fuse_tolerance="0" />
    <inkscape:path-effect
       effect="skeletal"
       id="path-effect3059"
       is_visible="true"
       pattern="M 0,5 C 0,2.24 2.24,0 5,0 7.76,0 10,2.24 10,5 10,7.76 7.76,10 5,10 2.24,10 0,7.76 0,5 z"
       copytype="single_stretched"
       prop_scale="1"
       scale_y_rel="false"
       spacing="0"
       normal_offset="0"
       tang_offset="0"
       prop_units="false"
       vertical_pattern="false"
       fuse_tolerance="0" />
    <inkscape:path-effect
       effect="skeletal"
       id="path-effect3055"
       is_visible="true"
       pattern="M 0,5 C 0,2.24 2.24,0 5,0 7.76,0 10,2.24 10,5 10,7.76 7.76,10 5,10 2.24,10 0,7.76 0,5 z"
       copytype="single_stretched"
       prop_scale="1"
       scale_y_rel="false"
       spacing="0"
       normal_offset="0"
       tang_offset="0"
       prop_units="false"
       vertical_pattern="false"
       fuse_tolerance="0" />
    <inkscape:path-effect
       effect="skeletal"
       id="path-effect3051"
       is_visible="true"
       pattern="M 0,5 C 0,2.24 2.24,0 5,0 7.76,0 10,2.24 10,5 10,7.76 7.76,10 5,10 2.24,10 0,7.76 0,5 z"
       copytype="single_stretched"
       prop_scale="1"
       scale_y_rel="false"
       spacing="0"
       normal_offset="0"
       tang_offset="0"
       prop_units="false"
       vertical_pattern="false"
       fuse_tolerance="0" />
    <inkscape:path-effect
       effect="skeletal"
       id="path-effect3047"
       is_visible="true"
       pattern="M 0,5 C 0,2.24 2.24,0 5,0 7.76,0 10,2.24 10,5 10,7.76 7.76,10 5,10 2.24,10 0,7.76 0,5 z"
       copytype="single_stretched"
       prop_scale="1"
       scale_y_rel="false"
       spacing="0"
       normal_offset="0"
       tang_offset="0"
       prop_units="false"
       vertical_pattern="false"
       fuse_tolerance="0" />
    <inkscape:path-effect
       effect="skeletal"
       id="path-effect2999"
       is_visible="true"
       pattern="m -4.0406102,287.00374 c 0,-2.76 2.24,-5 5.00000002,-5 2.75999998,0 4.99999998,2.24 4.99999998,5 0,2.76 -2.24,5 -4.99999998,5 -2.76000002,0 -5.00000002,-2.24 -5.00000002,-5 z"
       copytype="single_stretched"
       prop_scale="1"
       scale_y_rel="false"
       spacing="0"
       normal_offset="0"
       tang_offset="0"
       prop_units="false"
       vertical_pattern="false"
       fuse_tolerance="0" />
    <inkscape:path-effect
       effect="skeletal"
       id="path-effect2991"
       is_visible="true"
       pattern="m 0,292.0545 c 0,-2.76 2.24,-5 5,-5 2.76,0 5,2.24 5,5 0,2.76 -2.24,5 -5,5 -2.76,0 -5,-2.24 -5,-5 z"
       copytype="single_stretched"
       prop_scale="1"
       scale_y_rel="false"
       spacing="0"
       normal_offset="0"
       tang_offset="0"
       prop_units="false"
       vertical_pattern="false"
       fuse_tolerance="0" />
    <inkscape:path-effect
       effect="skeletal"
       id="path-effect2987"
       is_visible="true"
       pattern="m 0,292.0545 c 0,-2.76 2.24,-5 5,-5 2.76,0 5,2.24 5,5 0,2.76 -2.24,5 -5,5 -2.76,0 -5,-2.24 -5,-5 z"
       copytype="single_stretched"
       prop_scale="1"
       scale_y_rel="false"
       spacing="0"
       normal_offset="0"
       tang_offset="0"
       prop_units="false"
       vertical_pattern="false"
       fuse_tolerance="0" />
    <inkscape:path-effect
       effect="skeletal"
       id="path-effect3099-0"
       is_visible="true"
       pattern="m -8.9498328,312.94154 c 0,-2.76 2.24,-5 5,-5 2.76,0 5,2.24 5,5 0,2.76 -2.24,5 -5,5 -2.76,0 -5,-2.24 -5,-5 z"
       copytype="single_stretched"
       prop_scale="1"
       scale_y_rel="false"
       spacing="0"
       normal_offset="0"
       tang_offset="0"
       prop_units="false"
       vertical_pattern="false"
       fuse_tolerance="0" />
    <inkscape:path-effect
       effect="skeletal"
       id="path-effect3099-6"
       is_visible="true"
       pattern="m -271.58949,316.98215 c 0,-2.76 2.24,-5 5,-5 2.76,0 5,2.24 5,5 0,2.76 -2.24,5 -5,5 -2.76,0 -5,-2.24 -5,-5 z"
       copytype="single_stretched"
       prop_scale="1"
       scale_y_rel="false"
       spacing="0"
       normal_offset="0"
       tang_offset="0"
       prop_units="false"
       vertical_pattern="false"
       fuse_tolerance="0" />
    <inkscape:path-effect
       effect="skeletal"
       id="path-effect3099-06"
       is_visible="true"
       pattern="m -147.34074,316.98215 c 0,-2.76 2.24,-5 5,-5 2.76,0 5,2.24 5,5 0,2.76 -2.24,5 -5,5 -2.76,0 -5,-2.24 -5,-5 z"
       copytype="single_stretched"
       prop_scale="1"
       scale_y_rel="false"
       spacing="0"
       normal_offset="0"
       tang_offset="0"
       prop_units="false"
       vertical_pattern="false"
       fuse_tolerance="0" />
    <inkscape:path-effect
       effect="skeletal"
       id="path-effect3099-06-4"
       is_visible="true"
       pattern="m -244.25405,315.00722 c 0,-2.76 2.24,-5 5,-5 2.76,0 5,2.24 5,5 0,2.76 -2.24,5 -5,5 -2.76,0 -5,-2.24 -5,-5 z"
       copytype="single_stretched"
       prop_scale="1"
       scale_y_rel="false"
       spacing="0"
       normal_offset="0"
       tang_offset="0"
       prop_units="false"
       vertical_pattern="false"
       fuse_tolerance="0" />
    <inkscape:path-effect
       effect="skeletal"
       id="path-effect3099-06-6"
       is_visible="true"
       pattern="m 292.13696,318.03768 c 0,-2.76 2.24,-5 5,-5 2.76,0 5,2.24 5,5 0,2.76 -2.24,5 -5,5 -2.76,0 -5,-2.24 -5,-5 z"
       copytype="single_stretched"
       prop_scale="1"
       scale_y_rel="false"
       spacing="0"
       normal_offset="0"
       tang_offset="0"
       prop_units="false"
       vertical_pattern="false"
       fuse_tolerance="0" />
    <inkscape:path-effect
       effect="skeletal"
       id="path-effect3099-06-1"
       is_visible="true"
       pattern="m 390.12176,320.05798 c 0,-2.76 2.24,-5 5,-5 2.76,0 5,2.24 5,5 0,2.76 -2.24,5 -5,5 -2.76,0 -5,-2.24 -5,-5 z"
       copytype="single_stretched"
       prop_scale="1"
       scale_y_rel="false"
       spacing="0"
       normal_offset="0"
       tang_offset="0"
       prop_units="false"
       vertical_pattern="false"
       fuse_tolerance="0" />
    <inkscape:path-effect
       effect="skeletal"
       id="path-effect3099-06-4-8"
       is_visible="true"
       pattern="m -231.12206,432.1849 c 0,-2.76 2.24,-5 5,-5 2.76,0 5,2.24 5,5 0,2.76 -2.24,5 -5,5 -2.76,0 -5,-2.24 -5,-5 z"
       copytype="single_stretched"
       prop_scale="1"
       scale_y_rel="false"
       spacing="0"
       normal_offset="0"
       tang_offset="0"
       prop_units="false"
       vertical_pattern="false"
       fuse_tolerance="0" />
    <inkscape:path-effect
       effect="skeletal"
       id="path-effect3099-06-4-8-8"
       is_visible="true"
       pattern="m -230.40891,331.93676 c 0,-2.76 2.24,-5 5,-5 2.76,0 5,2.24 5,5 0,2.76 -2.24,5 -5,5 -2.76,0 -5,-2.24 -5,-5 z"
       copytype="single_stretched"
       prop_scale="1"
       scale_y_rel="false"
       spacing="0"
       normal_offset="0"
       tang_offset="0"
       prop_units="false"
       vertical_pattern="false"
       fuse_tolerance="0" />
    <inkscape:path-effect
       effect="skeletal"
       id="path-effect3099-06-4-8-3"
       is_visible="true"
       pattern="m -132.42412,433.96216 c 0,-2.76 2.24,-5 5,-5 2.76,0 5,2.24 5,5 0,2.76 -2.24,5 -5,5 -2.76,0 -5,-2.24 -5,-5 z"
       copytype="single_stretched"
       prop_scale="1"
       scale_y_rel="false"
       spacing="0"
       normal_offset="0"
       tang_offset="0"
       prop_units="false"
       vertical_pattern="false"
       fuse_tolerance="0" />
    <inkscape:path-effect
       effect="skeletal"
       id="path-effect3099-06-4-8-8-5"
       is_visible="true"
       pattern="m -132.34868,333.15005 c 0,-2.76 2.24,-5 5,-5 2.76,0 5,2.24 5,5 0,2.76 -2.24,5 -5,5 -2.76,0 -5,-2.24 -5,-5 z"
       copytype="single_stretched"
       prop_scale="1"
       scale_y_rel="false"
       spacing="0"
       normal_offset="0"
       tang_offset="0"
       prop_units="false"
       vertical_pattern="false"
       fuse_tolerance="0" />
    <inkscape:path-effect
       effect="skeletal"
       id="path-effect3099-06-4-8-8-2"
       is_visible="true"
       pattern="m 307.06767,336.1805 c 0,-2.76 2.24,-5 5,-5 2.76,0 5,2.24 5,5 0,2.76 -2.24,5 -5,5 -2.76,0 -5,-2.24 -5,-5 z"
       copytype="single_stretched"
       prop_scale="1"
       scale_y_rel="false"
       spacing="0"
       normal_offset="0"
       tang_offset="0"
       prop_units="false"
       vertical_pattern="false"
       fuse_tolerance="0" />
    <inkscape:path-effect
       effect="skeletal"
       id="path-effect3099-06-4-8-8-8"
       is_visible="true"
       pattern="m 405.05247,339.21096 c 0,-2.76 2.24,-5 5,-5 2.76,0 5,2.24 5,5 0,2.76 -2.24,5 -5,5 -2.76,0 -5,-2.24 -5,-5 z"
       copytype="single_stretched"
       prop_scale="1"
       scale_y_rel="false"
       spacing="0"
       normal_offset="0"
       tang_offset="0"
       prop_units="false"
       vertical_pattern="false"
       fuse_tolerance="0" />
    <inkscape:path-effect
       effect="skeletal"
       id="path-effect3099-06-4-8-3-0"
       is_visible="true"
       pattern="m 306.99223,434.97231 c 0,-2.76 2.24,-5 5,-5 2.76,0 5,2.24 5,5 0,2.76 -2.24,5 -5,5 -2.76,0 -5,-2.24 -5,-5 z"
       copytype="single_stretched"
       prop_scale="1"
       scale_y_rel="false"
       spacing="0"
       normal_offset="0"
       tang_offset="0"
       prop_units="false"
       vertical_pattern="false"
       fuse_tolerance="0" />
    <inkscape:path-effect
       effect="skeletal"
       id="path-effect3099-06-4-8-3-4"
       is_visible="true"
       pattern="m 404.97703,438.00277 c 0,-2.76 2.24,-5 5,-5 2.76,0 5,2.24 5,5 0,2.76 -2.24,5 -5,5 -2.76,0 -5,-2.24 -5,-5 z"
       copytype="single_stretched"
       prop_scale="1"
       scale_y_rel="false"
       spacing="0"
       normal_offset="0"
       tang_offset="0"
       prop_units="false"
       vertical_pattern="false"
       fuse_tolerance="0" />
  </defs>
  <sodipodi:namedview
     id="base"
     pagecolor="#ffffff"
     bordercolor="#666666"
     borderopacity="1.0"
     inkscape:pageopacity="0.0"
     inkscape:pageshadow="2"
     inkscape:zoom="0.49497475"
     inkscape:cx="515.44779"
     inkscape:cy="321.40792"
     inkscape:document-units="px"
     inkscape:current-layer="layer1"
     showgrid="false"
     inkscape:window-width="1920"
     inkscape:window-height="1056"
     inkscape:window-x="1920"
     inkscape:window-y="0"
     inkscape:window-maximized="1"
     fit-margin-top="0"
     fit-margin-left="0"
     fit-margin-right="0"
     fit-margin-bottom="0"
     showguides="true"
     inkscape:guide-bbox="true" />
  <metadata
     id="metadata7">
    <rdf:RDF>
      <cc:Work
         rdf:about="">
        <dc:format>image/svg+xml</dc:format>
        <dc:type
           rdf:resource="http://purl.org/dc/dcmitype/StillImage" />
      </cc:Work>
    </rdf:RDF>
  </metadata>
  <g
     inkscape:label="Layer 1"
     inkscape:groupmode="layer"
     id="layer1"
     transform="translate(-15.793659,-321.17758)">
    <path
       style="fill:#000000;fill-rule:evenodd;stroke:none"
       d="m 251.52805,477.20657 c -0.35565,-0.58581 6.29299,-5.38404 18.69628,-13.56324 12.4033,-8.1792 30.56186,-19.73936 53.17326,-33.84947 22.6114,-14.11012 49.67565,-30.77018 79.83296,-49.14966 30.15731,-18.37948 63.4071,-38.47839 98.33653,-59.46662 0.94522,0.58946 1.89167,1.17978 2.83934,1.77095 34.89237,21.7663 68.13557,42.62639 98.30297,61.70908 30.16739,19.08269 57.25838,36.38796 79.89944,51.04506 22.64106,14.65709 40.83219,26.66602 53.25751,35.15649 12.42531,8.49047 19.08541,13.4625 18.71753,14.04625 -0.36788,0.58375 -7.72135,-3.27571 -20.63305,-10.75288 -12.91171,-7.47716 -31.38106,-18.57203 -54.03383,-32.45956 -22.65278,-13.88752 -49.48899,-30.5677 -79.19204,-49.21595 -29.70305,-18.64826 -62.27354,-39.2646 -96.44801,-61.02491 -0.92817,-0.591 -1.85515,-1.18134 -2.78092,-1.77099 -34.20204,20.98151 -66.76842,40.83962 -96.44891,58.7877 -29.6805,17.94807 -56.47569,33.98609 -79.0823,47.32785 -22.60661,13.34176 -41.02462,23.98725 -53.8934,31.15074 -12.86878,7.16348 -20.18771,10.84497 -20.54336,10.25916 z"
       id="path2985"
       inkscape:path-effect="#path-effect2987"
       inkscape:original-d="M 251.52805,477.20657 501.53155,325.42935 754.58387,484.90541"
       inkscape:connector-curvature="0" />
    <path
       style="fill:#000000;fill-rule:evenodd;stroke:none"
       d="m 306.29258,483.01178 c -1.46022,-2.34209 40.52047,-31.15543 93.70688,-64.3155 53.18642,-33.16008 97.53731,-58.17178 98.99753,-55.82969 1.46022,2.34209 -40.52047,31.15543 -93.70688,64.3155 -53.18642,33.16008 -97.53731,58.17178 -98.99753,55.82969 z"
       id="path2989"
       inkscape:path-effect="#path-effect2991"
       inkscape:original-d="M 306.29258,483.01178 498.99699,362.86659"
       inkscape:connector-curvature="0" />
    <path
       style="fill:#000000;fill-rule:evenodd;stroke:none"
       d="m 494.93783,361.78909 c 1.41582,-2.36919 47.10394,22.32428 101.98242,55.11935 54.87848,32.79508 98.26847,61.33419 96.85265,63.70338 -1.41582,2.36919 -47.10394,-22.32428 -101.98242,-55.11935 -54.87848,-32.79508 -98.26847,-61.33419 -96.85265,-63.70338 z"
       id="path2997"
       inkscape:path-effect="#path-effect2999"
       inkscape:original-d="M 494.93783,361.78909 693.7729,480.61182"
       inkscape:connector-curvature="0" />
    <path
       style="fill:#000000;fill-rule:evenodd;stroke:none"
       d="m 29.294424,233.96745 c -0.566358,-0.39822 15.125154,-23.82638 44.661905,-66.18692 73.936511,-0.42297 196.521581,-0.55187 351.018411,-0.37637 154.49682,0.17551 340.90193,0.6551 542.00174,1.40521 4.09418,9.69539 8.20283,19.42695 12.32511,29.19178 5.0033,11.85177 9.98555,23.6551 14.94528,35.40475 -3e-5,0 -6e-5,0 -9e-5,0 -133.97776,0.76477 -261.33316,1.44052 -376.96428,1.91998 -115.63111,0.47946 -219.53748,0.76191 -306.66165,0.80951 -87.12416,0.0476 -157.46615,-0.1396 -206.01623,-0.52494 -48.550092,-0.38535 -75.30878,-0.96805 -75.310196,-1.643 -0.0014,-0.67495 26.748166,-1.36995 75.167016,-1.95879 48.41886,-0.58885 118.50648,-1.07077 205.225,-1.388 86.71852,-0.31723 190.0679,-0.46973 305.05801,-0.47426 114.99011,-0.005 241.6214,0.13819 374.9482,0.34198 3e-5,0 6e-5,0 8e-5,0 -4.96284,-9.93299 -9.94725,-19.90867 -14.95175,-29.92578 -4.12327,-8.25323 -8.23224,-16.47869 -12.3261,-24.67569 -199.13189,-0.61277 -383.54689,-1.3959 -536.88829,-2.26865 -153.3414,-0.87276 -275.61268,-1.83545 -349.980342,-2.76343 -28.993183,40.88204 -45.685466,63.51084 -46.251824,63.11262 z"
       id="path3045"
       inkscape:path-effect="#path-effect3047"
       inkscape:original-d="m 29.294424,233.96745 45.456864,-64.64977 889.944392,3.03046 27.27412,59.599 z"
       inkscape:connector-curvature="0"
       transform="translate(0,308.2677)" />
    <path
       style="fill:#000000;fill-rule:evenodd;stroke:none"
       d="m 96.974644,544.25551 c 2.759544,-0.0502 5.225446,12.35416 5.504246,27.68824 0.27881,15.33408 -1.73455,27.81986 -4.494093,27.87003 -2.759544,0.0502 -5.225448,-12.35416 -5.50425,-27.68824 -0.278802,-15.33408 1.734553,-27.81986 4.494097,-27.87003 z"
       id="path3049"
       inkscape:path-effect="#path-effect3051"
       inkscape:original-d="m 96.974644,544.25551 1.010153,55.55827"
       inkscape:connector-curvature="0" />
    <path
       style="fill:#000000;fill-rule:evenodd;stroke:none"
       d="m 935.35088,539.20469 c 0.44736,0 0.8762,5.50292 1.12454,15.97892 0.24835,10.476 0.3155,25.92577 0.10482,45.75424 -39.81984,0.38745 -97.73408,0.77769 -167.56241,1.13153 -69.82833,0.35383 -151.56985,0.67036 -238.9494,0.81564 -129.29361,0.21497 -246.52159,-0.0356 -331.31088,-0.7996 -84.78929,-0.76402 -137.139893,-2.04153 -137.138245,-3.42153 0.0016,-1.38 52.285245,-2.53258 136.592285,-3.09472 84.30704,-0.56215 200.63753,-0.53384 329.19247,-0.011 86.88035,0.35333 168.30456,0.86466 238.14778,1.38525 69.84322,0.52059 128.10636,1.04954 168.56969,1.53283 -0.21069,-18.68165 -0.14354,-33.48305 0.10481,-43.63069 0.24834,-10.14764 0.67718,-15.64084 1.12454,-15.64084 z"
       id="path3053"
       inkscape:path-effect="#path-effect3055"
       inkscape:original-d="m 935.35088,539.20469 0,60.50235 -873.731575,-1.04315"
       inkscape:connector-curvature="0" />
    <path
       style="fill:#000000;fill-rule:evenodd;stroke:none"
       d="m 65.625087,596.81442 c 2.463906,1.24369 -6.608233,24.18775 -20.25031,51.21442 -13.642078,27.02667 -26.713602,47.95199 -29.177508,46.7083 -2.463906,-1.24369 6.608233,-24.18775 20.25031,-51.21442 13.642078,-27.02667 26.713602,-47.95199 29.177508,-46.7083 z"
       id="path3057"
       inkscape:path-effect="#path-effect3059"
       inkscape:original-d="M 65.625087,596.81442 16.197269,694.73714"
       inkscape:connector-curvature="0" />
    <path
       style="fill:#000000;fill-rule:evenodd;stroke:none"
       d="m 976.83421,598.81341 c 2.44768,-1.27532 15.51417,18.95505 29.16629,45.15708 13.6521,26.20203 22.7455,48.50249 20.2978,49.77781 -2.4477,1.27532 -15.5142,-18.95505 -29.16625,-45.15708 -13.65209,-26.20203 -22.74552,-48.50249 -20.29784,-49.77781 z"
       id="path3061"
       inkscape:path-effect="#path-effect3063"
       inkscape:original-d="m 976.83421,598.81341 49.46409,94.93489"
       inkscape:connector-curvature="0" />
    <path
       style="fill:#000000;fill-rule:evenodd;stroke:none"
       d="m 925.29973,290.53599 c 0,-2.76 11.76626,-5 26.26396,-5 14.49771,0 26.26397,2.24 26.26397,5 0,2.76 -11.76626,5 -26.26397,5 -14.4977,0 -26.26396,-2.24 -26.26396,-5 z"
       id="path3069"
       inkscape:path-effect="#path-effect3071"
       inkscape:original-d="m 925.29973,290.53599 52.52793,0"
       inkscape:connector-curvature="0"
       transform="translate(0,308.2677)" />
    <path
       style="fill:#000000;fill-rule:evenodd;stroke:none"
       d="m 18.182745,691.73772 c 0,-2.76 226.500435,-5 505.581325,-5 279.0809,0 505.58133,2.24 505.58133,5 0,2.76 -226.50043,5 -505.58133,5 -279.08089,0 -505.581325,-2.24 -505.581325,-5 z"
       id="path3073"
       inkscape:path-effect="#path-effect3075"
       inkscape:original-d="m 18.182745,691.73772 1011.162655,0"
       inkscape:connector-curvature="0"
       sodipodi:nodetypes="cc" />
    <path
       style="fill:#000000;fill-rule:evenodd;stroke:none"
       d="m 91.923882,692.74788 c 2.759822,0.0314 4.320855,59.7932 3.484448,133.39695 -0.836406,73.60375 -3.755084,133.31468 -6.514906,133.28332 -2.759822,-0.0314 -4.320855,-59.7932 -3.484448,-133.39695 0.836406,-73.60375 3.755084,-133.31468 6.514906,-133.28332 z"
       id="path3085"
       inkscape:path-effect="#path-effect3087"
       inkscape:original-d="M 91.923882,692.74788 88.893424,959.42815"
       inkscape:connector-curvature="0" />
    <path
       style="fill:#000000;fill-rule:evenodd;stroke:none"
       d="m 940.45202,384.48018 c 2.76,0 5,51.13796 5,114.14724 0,63.00927 -2.24,114.14723 -5,114.14723 -2.76,0 -5,-51.13796 -5,-114.14723 0,-63.00928 2.24,-114.14724 5,-114.14724 z"
       id="path3089"
       inkscape:path-effect="#path-effect3091"
       inkscape:original-d="m 940.45202,384.48018 0,228.29447"
       inkscape:connector-curvature="0"
       transform="translate(0,308.2677)" />
    <path
       style="fill:#000000;fill-rule:evenodd;stroke:none"
       d="m 79.802051,607.72389 c 0.0016,-0.68229 23.984509,-1.27274 67.461629,-1.68989 43.47712,-0.41714 106.44901,-0.66042 184.37908,-0.69921 77.93007,-0.0388 170.81832,0.12689 274.07434,0.4724 103.25601,0.3455 216.87925,0.87026 336.22941,1.49837 2e-5,0 5e-5,0 7e-5,0 -0.13238,6.02497 -0.2652,12.06349 -0.39843,18.11478 -0.20841,9.46545 -0.41647,18.8998 -0.62414,28.30001 -2e-5,0 -5e-5,0 -7e-5,0 -118.30169,0.0481 -230.83194,0.0177 -333.03839,-0.14036 -102.20645,-0.15806 -194.08858,-0.44426 -271.14356,-0.85941 -77.05499,-0.41515 -139.28285,-0.95924 -182.23405,-1.58121 -42.9512,-0.62197 -66.626279,-1.32129 -66.624669,-1.99923 0.0016,-0.67794 23.672619,-1.2648 66.483669,-1.68306 42.81105,-0.41826 104.76159,-0.66738 181.37124,-0.71753 76.60964,-0.0502 167.87838,0.0987 269.37909,0.42449 101.50072,0.3258 213.23393,0.82805 330.82207,1.43651 2e-5,0 5e-5,0 7e-5,0 0.20153,-7.377 0.40411,-14.77869 0.6077,-22.2049 0.13015,-4.74759 0.26017,-9.48522 0.39005,-14.21283 -3e-5,0 -5e-5,0 -8e-5,0 -118.64761,0.0688 -231.47823,0.0613 -334.02925,-0.0769 -102.55102,-0.13818 -194.82298,-0.40764 -272.3034,-0.81168 -77.48043,-0.40404 -140.16931,-0.94263 -183.50033,-1.5638 -43.33103,-0.62116 -67.303652,-1.32431 -67.302049,-2.0066 z"
       id="path3093"
       inkscape:path-effect="#path-effect3095"
       inkscape:original-d="m 79.802051,607.72389 859.639819,2.0203 -1.01016,41.41626 -850.548439,-2.02031"
       inkscape:connector-curvature="0"
       transform="translate(0,308.2677)" />
    <path
       style="fill:#000000;fill-rule:evenodd;stroke:none"
       d="m 409.11178,918.0119 c -1.07039,-0.0172 -1.71187,-19.70916 -1.6167,-53.51816 0.0952,-33.809 0.93062,-81.73855 2.32947,-137.75852 32.51431,0.2167 67.89134,0.50916 104.8363,0.87345 38.11783,0.37586 74.56669,0.79518 107.9259,1.23234 -0.3946,55.24052 -1.09299,102.40965 -2.07597,135.64312 -0.98299,33.23346 -2.24701,52.5349 -3.30757,52.51761 -1.06056,-0.0173 -1.69581,-19.28075 -1.60679,-51.79676 0.089,-32.51601 0.90585,-78.2809 2.28415,-131.77863 -32.11335,-0.19849 -66.8662,-0.47046 -103.19545,-0.81739 -35.21143,-0.33626 -68.94205,-0.71474 -100.22519,-1.11744 -0.3712,54.31296 -1.05097,100.83268 -2.02852,133.88971 -0.97755,33.05703 -2.24924,52.64784 -3.31963,52.63067 z"
       id="path3097"
       inkscape:path-effect="#path-effect3099"
       inkscape:original-d="m 409.11178,918.0119 3.03046,-188.89853 208.09142,2.02031 -3.03045,185.86806"
       inkscape:connector-curvature="0" />
    <path
       style="fill:#000000;fill-rule:evenodd;stroke:none"
       d="m 434.13297,914.65528 c -1.09714,-0.0155 -1.83022,-17.32323 -1.86048,-46.95141 -0.0303,-29.62817 0.64591,-71.58032 1.85353,-120.38376 25.3598,0.19469 52.68212,0.45119 81.10696,0.76697 29.44171,0.32708 57.70076,0.69144 83.82264,1.07386 -0.17456,48.13095 -0.68612,89.41888 -1.55053,118.54223 -0.86442,29.12334 -2.07815,46.08572 -3.16518,46.07009 -1.08703,-0.0156 -1.8137,-16.93278 -1.85131,-45.32156 -0.0376,-28.38878 0.61739,-68.24557 1.80182,-114.64502 -24.81079,-0.1784 -51.37014,-0.41764 -79.02992,-0.7193 -26.70445,-0.29125 -52.38332,-0.61834 -76.45436,-0.96793 -0.14907,47.10602 -0.63947,87.62163 -1.4971,116.48384 -0.85764,28.8622 -2.07893,46.06751 -3.17607,46.05199 z"
       id="path3097-3"
       inkscape:path-effect="#path-effect3099-0"
       inkscape:original-d="m 434.13297,914.65528 2.33311,-164.9355 160.20694,1.76403 -2.33311,162.28945"
       inkscape:connector-curvature="0" />
    <path
       style="fill:#000000;fill-rule:evenodd;stroke:none"
       d="m 246.20455,918.69589 c -1.21121,-0.009 -2.12385,-20.3668 -2.32259,-54.54246 -0.0994,-17.08782 -0.0297,-37.6209 0.19991,-60.72362 0.22964,-23.10273 0.61903,-48.77485 1.11856,-76.10132 0,-10e-6 0,-10e-6 0,-2e-5 15.73706,0.28984 32.06015,0.60623 48.76937,0.94722 17.83677,0.36401 35.23377,0.73814 51.94831,1.11622 0,10e-6 0,10e-6 0,2e-5 0.16165,53.91202 -0.0578,101.14792 -0.77193,134.74486 -0.7141,33.59693 -1.91983,53.55795 -3.11965,53.54894 -1.19982,-0.009 -2.10641,-19.89315 -2.32206,-52.68581 -0.21566,-32.79266 0.26259,-78.49078 1.2214,-130.75647 0,-1e-5 0,-1e-5 0,-2e-5 -15.16212,-0.29401 -30.8357,-0.61714 -46.90338,-0.96797 -15.05196,-0.32866 -29.75829,-0.66649 -44.02288,-1.00921 0,10e-6 0,10e-6 0,2e-5 0.10176,26.51766 0.11783,51.37991 0.0112,73.79143 -0.1066,22.41152 -0.3361,42.37256 -0.6849,59.04833 -0.69759,33.35154 -1.91019,53.59881 -3.1214,53.58986 z"
       id="path3097-1"
       inkscape:path-effect="#path-effect3099-06"
       inkscape:original-d="m 246.20455,918.69589 1.39547,-188.89853 95.82197,2.02031 -1.39546,185.86806"
       inkscape:connector-curvature="0" />
    <path
       style="fill:#000000;fill-rule:evenodd;stroke:none"
       d="m 149.29124,916.72096 c -1.21121,-0.009 -2.12385,-20.3668 -2.32259,-54.54246 -0.0994,-17.08782 -0.0297,-37.6209 0.19991,-60.72362 0.22964,-23.10273 0.61903,-48.77485 1.11856,-76.10132 0,-10e-6 0,-10e-6 0,-2e-5 15.73706,0.28984 32.06015,0.60623 48.76937,0.94722 17.83677,0.36401 35.23377,0.73814 51.94831,1.11622 0,1e-5 0,1e-5 0,2e-5 0.16165,53.91202 -0.0578,101.14792 -0.77193,134.74486 -0.7141,33.59693 -1.91983,53.55795 -3.11965,53.54894 -1.19982,-0.009 -2.10641,-19.89315 -2.32206,-52.68581 -0.21566,-32.79266 0.26259,-78.49078 1.2214,-130.75647 0,-10e-6 0,-10e-6 0,-2e-5 -15.16212,-0.29401 -30.8357,-0.61714 -46.90338,-0.96797 -15.05196,-0.32866 -29.75829,-0.66649 -44.02288,-1.00921 0,10e-6 0,10e-6 0,2e-5 0.10176,26.51766 0.11783,51.37991 0.0112,73.79143 -0.1066,22.41152 -0.3361,42.37256 -0.6849,59.04833 -0.69759,33.35154 -1.91019,53.59881 -3.1214,53.58986 z"
       id="path3097-1-7"
       inkscape:path-effect="#path-effect3099-06-4"
       inkscape:original-d="m 149.29124,916.72096 1.39547,-188.89853 95.82197,2.02031 -1.39546,185.86806"
       inkscape:connector-curvature="0" />
    <path
       style="fill:#000000;fill-rule:evenodd;stroke:none"
       d="m 685.68224,919.75142 c -1.21121,-0.009 -2.12385,-20.3668 -2.32259,-54.54246 -0.0994,-17.08782 -0.0297,-37.6209 0.19991,-60.72362 0.22964,-23.10273 0.61903,-48.77485 1.11856,-76.10132 0,-10e-6 0,-10e-6 0,-2e-5 15.73706,0.28984 32.06015,0.60623 48.76937,0.94722 17.83677,0.36401 35.23377,0.73814 51.94831,1.11622 0,10e-6 0,10e-6 0,2e-5 0.16165,53.91202 -0.0578,101.14792 -0.77193,134.74486 -0.7141,33.59693 -1.91983,53.55795 -3.11965,53.54894 -1.19982,-0.009 -2.10641,-19.89315 -2.32206,-52.68581 -0.21566,-32.79266 0.26259,-78.49078 1.2214,-130.75647 0,-10e-6 0,-10e-6 0,-2e-5 -15.16212,-0.29401 -30.8357,-0.61714 -46.90338,-0.96797 -15.05196,-0.32866 -29.75829,-0.66649 -44.02288,-1.00921 0,10e-6 0,10e-6 0,2e-5 0.10176,26.51766 0.11783,51.37991 0.0112,73.79143 -0.1066,22.41152 -0.3361,42.37256 -0.6849,59.04833 -0.69759,33.35154 -1.91019,53.59881 -3.1214,53.58986 z"
       id="path3097-1-5"
       inkscape:path-effect="#path-effect3099-06-6"
       inkscape:original-d="m 685.68224,919.75142 1.39547,-188.89853 95.82197,2.02031 -1.39546,185.86806"
       inkscape:connector-curvature="0" />
    <path
       style="fill:#000000;fill-rule:evenodd;stroke:none"
       d="m 783.66704,921.77172 c -1.21121,-0.009 -2.12385,-20.3668 -2.32259,-54.54246 -0.0994,-17.08782 -0.0297,-37.6209 0.19991,-60.72362 0.22964,-23.10273 0.61903,-48.77485 1.11856,-76.10132 0,-10e-6 0,-10e-6 0,-2e-5 15.73706,0.28984 32.06015,0.60623 48.76937,0.94722 17.83677,0.36401 35.23377,0.73814 51.94831,1.11622 0,10e-6 0,10e-6 0,2e-5 0.16165,53.91202 -0.0578,101.14792 -0.77193,134.74486 -0.7141,33.59693 -1.91983,53.55795 -3.11965,53.54894 -1.19982,-0.009 -2.10641,-19.89315 -2.32206,-52.68581 -0.21566,-32.79266 0.26259,-78.49078 1.2214,-130.75647 0,-1e-5 0,-1e-5 0,-2e-5 -15.16212,-0.29401 -30.8357,-0.61714 -46.90338,-0.96797 -15.05196,-0.32866 -29.75829,-0.66649 -44.02288,-1.00921 0,10e-6 0,10e-6 0,2e-5 0.10176,26.51766 0.11783,51.37991 0.0112,73.79143 -0.1066,22.41152 -0.3361,42.37256 -0.6849,59.04833 -0.69759,33.35154 -1.91019,53.59881 -3.1214,53.58986 z"
       id="path3097-1-1"
       inkscape:path-effect="#path-effect3099-06-1"
       inkscape:original-d="m 783.66704,921.77172 1.39547,-188.89853 95.82197,2.02031 -1.39546,185.86806"
       inkscape:connector-curvature="0" />
    <path
       style="fill:#000000;fill-rule:evenodd;stroke:none"
       d="m 161.89632,904.49324 c -0.90388,-0.0144 -1.63014,-6.21578 -1.86949,-17.31942 -0.23935,-11.10365 0.0114,-27.11267 0.73374,-46.42267 10.22267,-0.0123 21.47722,0.0112 33.46695,0.0714 11.98973,0.0602 24.71418,0.1573 37.83493,0.29154 0.17736,0.002 0.35464,0.004 0.53184,0.005 -0.36018,23.73483 -0.80756,46.13573 -1.29365,65.27846 -20.86982,0.52693 -38.30982,0.6155 -50.44144,0.24401 -12.13162,-0.37149 -18.95823,-1.19972 -18.96288,-2.1488 -0.005,-0.94908 6.76053,-1.84391 18.22362,-2.33102 11.46308,-0.48711 27.6207,-0.56318 46.76256,-0.23231 0.0963,-16.91362 0.31543,-35.7783 0.66347,-55.89136 -0.15267,-0.001 -0.30541,-0.003 -0.45821,-0.004 -11.30356,-0.10512 -22.20979,-0.23967 -32.60437,-0.39879 -10.39459,-0.15913 -20.27798,-0.34284 -29.49416,-0.54564 0.13563,17.60405 -0.10288,32.38139 -0.68485,42.8356 -0.58197,10.45421 -1.50418,16.58214 -2.40806,16.56777 z"
       id="path3097-1-7-8"
       inkscape:path-effect="#path-effect3099-06-4-8"
       inkscape:original-d="m 161.89632,904.49324 0.97858,-61.57273 67.19523,0.65855 -0.97856,60.58491 z"
       inkscape:connector-curvature="0" />
    <path
       style="fill:#000000;fill-rule:evenodd;stroke:none"
       d="m 162.60948,827.61786 c -0.98382,-0.0114 -1.77258,-8.62832 -2.02665,-23.78368 -0.25406,-15.15537 0.0301,-36.85268 0.79193,-62.63462 21.24224,0.11834 45.5658,0.34894 71.21431,0.68951 0.24263,0.003 0.48513,0.006 0.7275,0.01 -0.18511,16.23004 -0.40218,31.92354 -0.64153,46.62829 -0.23935,14.70476 -0.50098,28.42019 -0.77537,40.74652 -21.09856,0.52857 -38.49233,0.6223 -50.53803,0.29244 -12.04571,-0.32986 -18.74635,-1.08033 -18.75216,-1.94814 -0.006,-0.86781 6.64118,-1.70766 18.06811,-2.19472 11.42693,-0.48705 27.63078,-0.61832 47.0322,-0.36098 0.006,-11.39944 0.0528,-23.77867 0.14217,-36.88954 0.0894,-13.11086 0.2214,-26.95393 0.39805,-41.33345 -0.20883,-0.003 -0.41776,-0.006 -0.62679,-0.008 -22.09607,-0.29892 -42.93505,-0.67322 -61.82186,-1.09237 0.18224,24.05617 -0.0229,44.43331 -0.62133,58.89287 -0.59846,14.45957 -1.58673,22.99809 -2.57055,22.98665 z"
       id="path3097-1-7-8-9"
       inkscape:path-effect="#path-effect3099-06-4-8-8"
       inkscape:original-d="m 162.60948,827.61786 0.97858,-84.14891 67.19523,0.90001 -0.97856,82.7989 z"
       inkscape:connector-curvature="0" />
    <path
       style="fill:#000000;fill-rule:evenodd;stroke:none"
       d="m 260.59427,906.2705 c -0.90388,-0.0144 -1.63014,-6.21578 -1.86949,-17.31942 -0.23935,-11.10365 0.0114,-27.11267 0.73374,-46.42267 10.22267,-0.0123 21.47722,0.0112 33.46695,0.0714 11.98973,0.0602 24.71418,0.1573 37.83493,0.29154 0.17736,0.002 0.35464,0.004 0.53184,0.005 -0.36018,23.73483 -0.80756,46.13573 -1.29365,65.27846 -20.86982,0.52693 -38.30982,0.6155 -50.44144,0.24401 -12.13162,-0.37149 -18.95823,-1.19972 -18.96288,-2.1488 -0.005,-0.94908 6.76053,-1.84391 18.22362,-2.33102 11.46308,-0.48711 27.6207,-0.56318 46.76256,-0.23231 0.0963,-16.91362 0.31543,-35.7783 0.66347,-55.89136 -0.15267,-0.001 -0.30541,-0.003 -0.45821,-0.004 -11.30356,-0.10512 -22.20979,-0.23967 -32.60437,-0.39879 -10.39459,-0.15913 -20.27798,-0.34284 -29.49416,-0.54564 0.13563,17.60405 -0.10288,32.38139 -0.68485,42.8356 -0.58197,10.45421 -1.50418,16.58214 -2.40806,16.56777 z"
       id="path3097-1-7-8-6"
       inkscape:path-effect="#path-effect3099-06-4-8-3"
       inkscape:original-d="m 260.59427,906.2705 0.97858,-61.57273 67.19523,0.65855 -0.97856,60.58491 z"
       inkscape:connector-curvature="0" />
    <path
       style="fill:#000000;fill-rule:evenodd;stroke:none"
       d="m 260.6697,828.83115 c -0.98382,-0.0114 -1.77258,-8.62832 -2.02665,-23.78368 -0.25406,-15.15537 0.0301,-36.85268 0.79193,-62.63462 21.24224,0.11834 45.5658,0.34894 71.21431,0.68951 0.24263,0.003 0.48513,0.006 0.7275,0.01 -0.18511,16.23004 -0.40218,31.92354 -0.64153,46.62829 -0.23935,14.70476 -0.50098,28.42019 -0.77537,40.74652 -21.09856,0.52857 -38.49233,0.6223 -50.53803,0.29244 -12.04571,-0.32986 -18.74635,-1.08033 -18.75216,-1.94814 -0.006,-0.86781 6.64118,-1.70766 18.06811,-2.19472 11.42693,-0.48705 27.63078,-0.61832 47.0322,-0.36098 0.006,-11.39944 0.0528,-23.77867 0.14217,-36.88954 0.0894,-13.11086 0.2214,-26.95393 0.39805,-41.33345 -0.20883,-0.003 -0.41776,-0.006 -0.62679,-0.008 -22.09607,-0.29892 -42.93505,-0.67322 -61.82186,-1.09237 0.18224,24.05617 -0.0229,44.43331 -0.62133,58.89287 -0.59846,14.45957 -1.58673,22.99809 -2.57055,22.98665 z"
       id="path3097-1-7-8-9-9"
       inkscape:path-effect="#path-effect3099-06-4-8-8-5"
       inkscape:original-d="m 260.6697,828.83115 0.97858,-84.14891 67.19523,0.90001 -0.97856,82.7989 z"
       inkscape:connector-curvature="0" />
    <path
       style="fill:#000000;fill-rule:evenodd;stroke:none"
       d="m 700.08605,831.8616 c -0.98382,-0.0114 -1.77258,-8.62832 -2.02665,-23.78368 -0.25406,-15.15537 0.0301,-36.85268 0.79193,-62.63462 21.24224,0.11834 45.5658,0.34894 71.21431,0.68951 0.24263,0.003 0.48513,0.006 0.7275,0.01 -0.18511,16.23004 -0.40218,31.92354 -0.64153,46.62829 -0.23935,14.70476 -0.50098,28.42019 -0.77537,40.74652 -21.09856,0.52857 -38.49233,0.6223 -50.53803,0.29244 -12.04571,-0.32986 -18.74635,-1.08033 -18.75216,-1.94814 -0.006,-0.86781 6.64118,-1.70766 18.06811,-2.19472 11.42693,-0.48705 27.63078,-0.61832 47.0322,-0.36098 0.006,-11.39944 0.0528,-23.77867 0.14217,-36.88954 0.0894,-13.11086 0.2214,-26.95393 0.39805,-41.33345 -0.20883,-0.003 -0.41776,-0.006 -0.62679,-0.008 -22.09607,-0.29892 -42.93505,-0.67322 -61.82186,-1.09237 0.18224,24.05617 -0.0229,44.43331 -0.62133,58.89287 -0.59846,14.45957 -1.58673,22.99809 -2.57055,22.98665 z"
       id="path3097-1-7-8-9-2"
       inkscape:path-effect="#path-effect3099-06-4-8-8-2"
       inkscape:original-d="m 700.08605,831.8616 0.97858,-84.14891 67.19523,0.90001 -0.97856,82.7989 z"
       inkscape:connector-curvature="0" />
    <path
       style="fill:#000000;fill-rule:evenodd;stroke:none"
       d="m 798.07086,834.89206 c -0.98382,-0.0114 -1.77258,-8.62832 -2.02665,-23.78368 -0.25406,-15.15537 0.0301,-36.85268 0.79193,-62.63462 21.24224,0.11834 45.5658,0.34894 71.21431,0.68951 0.24263,0.003 0.48513,0.006 0.7275,0.01 -0.18511,16.23004 -0.40218,31.92354 -0.64153,46.62829 -0.23935,14.70476 -0.50098,28.42019 -0.77537,40.74652 -21.09856,0.52857 -38.49233,0.6223 -50.53803,0.29244 -12.04571,-0.32986 -18.74635,-1.08033 -18.75216,-1.94814 -0.006,-0.86781 6.64118,-1.70766 18.06811,-2.19472 11.42693,-0.48705 27.63078,-0.61832 47.0322,-0.36098 0.006,-11.39944 0.0528,-23.77867 0.14217,-36.88954 0.0894,-13.11086 0.2214,-26.95393 0.39805,-41.33345 -0.20883,-0.003 -0.41776,-0.006 -0.62679,-0.008 -22.09607,-0.29892 -42.93505,-0.67322 -61.82186,-1.09237 0.18224,24.05617 -0.0229,44.43331 -0.62133,58.89287 -0.59846,14.45957 -1.58673,22.99809 -2.57055,22.98665 z"
       id="path3097-1-7-8-9-22"
       inkscape:path-effect="#path-effect3099-06-4-8-8-8"
       inkscape:original-d="m 798.07086,834.89206 0.97858,-84.14891 67.19523,0.90001 -0.97856,82.7989 z"
       inkscape:connector-curvature="0" />
    <path
       style="fill:#000000;fill-rule:evenodd;stroke:none"
       d="m 700.01063,907.28065 c -0.90388,-0.0144 -1.63014,-6.21578 -1.86949,-17.31942 -0.23935,-11.10365 0.0114,-27.11267 0.73374,-46.42267 10.22267,-0.0123 21.47722,0.0112 33.46695,0.0714 11.98973,0.0602 24.71418,0.1573 37.83493,0.29154 0.17736,0.002 0.35464,0.004 0.53184,0.005 -0.36018,23.73483 -0.80756,46.13573 -1.29365,65.27846 -20.86982,0.52693 -38.30982,0.6155 -50.44144,0.24401 -12.13162,-0.37149 -18.95823,-1.19972 -18.96288,-2.1488 -0.005,-0.94908 6.76053,-1.84391 18.22362,-2.33102 11.46308,-0.48711 27.6207,-0.56318 46.76256,-0.23231 0.0963,-16.91362 0.31543,-35.7783 0.66347,-55.89136 -0.15267,-0.001 -0.30541,-0.003 -0.45821,-0.004 -11.30356,-0.10512 -22.20979,-0.23967 -32.60437,-0.39879 -10.39459,-0.15913 -20.27798,-0.34284 -29.49416,-0.54564 0.13563,17.60405 -0.10288,32.38139 -0.68485,42.8356 -0.58197,10.45421 -1.50418,16.58214 -2.40806,16.56777 z"
       id="path3097-1-7-8-6-9"
       inkscape:path-effect="#path-effect3099-06-4-8-3-0"
       inkscape:original-d="m 700.01063,907.28065 0.97858,-61.57273 67.19523,0.65855 -0.97856,60.58491 z"
       inkscape:connector-curvature="0" />
    <path
       style="fill:#000000;fill-rule:evenodd;stroke:none"
       d="m 797.99543,910.31111 c -0.90388,-0.0144 -1.63014,-6.21578 -1.86949,-17.31942 -0.23935,-11.10365 0.0114,-27.11267 0.73374,-46.42267 10.22267,-0.0123 21.47722,0.0112 33.46695,0.0714 11.98973,0.0602 24.71418,0.1573 37.83493,0.29154 0.17736,0.002 0.35464,0.004 0.53184,0.005 -0.36018,23.73483 -0.80756,46.13573 -1.29365,65.27846 -20.86982,0.52693 -38.30982,0.6155 -50.44144,0.24401 -12.13162,-0.37149 -18.95823,-1.19972 -18.96288,-2.1488 -0.005,-0.94908 6.76053,-1.84391 18.22362,-2.33102 11.46308,-0.48711 27.6207,-0.56318 46.76256,-0.23231 0.0963,-16.91362 0.31543,-35.7783 0.66347,-55.89136 -0.15267,-0.001 -0.30541,-0.003 -0.45821,-0.004 -11.30356,-0.10512 -22.20979,-0.23967 -32.60437,-0.39879 -10.39459,-0.15913 -20.27798,-0.34284 -29.49416,-0.54564 0.13563,17.60405 -0.10288,32.38139 -0.68485,42.8356 -0.58197,10.45421 -1.50418,16.58214 -2.40806,16.56777 z"
       id="path3097-1-7-8-6-5"
       inkscape:path-effect="#path-effect3099-06-4-8-3-4"
       inkscape:original-d="m 797.99543,910.31111 0.97858,-61.57273 67.19523,0.65855 -0.97856,60.58491 z"
       inkscape:connector-curvature="0" />
    <path
       style="fill:#000000;fill-rule:evenodd;stroke:none"
       d="m 408.10163,608.73404 c 2.25821,1.58685 -1.79217,11.24687 -9.04103,21.56255 -7.24885,10.31568 -14.96473,17.39995 -17.22294,15.8131 -2.25821,-1.58685 1.79217,-11.24687 9.04103,-21.56255 7.24885,-10.31568 14.96473,-17.39995 17.22294,-15.8131 z"
       id="path3427"
       inkscape:path-effect="#path-effect3429"
       inkscape:original-d="m 408.10163,608.73404 -26.26397,37.37565"
       inkscape:connector-curvature="0"
       transform="translate(0,308.2677)" />
    <path
       style="fill:#000000;fill-rule:evenodd;stroke:none"
       d="m 620.23366,610.75435 c 2.38858,-1.38286 9.30516,6.09323 15.43881,16.68771 6.13365,10.59448 9.17313,20.31522 6.78455,21.69808 -2.38858,1.38286 -9.30516,-6.09323 -15.43881,-16.68771 -6.13365,-10.59448 -9.17313,-20.31522 -6.78455,-21.69808 z"
       id="path3431"
       inkscape:path-effect="#path-effect3433"
       inkscape:original-d="m 620.23366,610.75435 22.22336,38.38579"
       inkscape:connector-curvature="0"
       transform="translate(0,308.2677)" />
    <path
       style="fill:#000000;fill-rule:evenodd;stroke:none"
       d="m 382.84781,650.1503 c 2.7555,0.15746 4.53931,8.20484 3.98171,17.96291 -0.55761,9.75807 -3.24651,17.54988 -6.00201,17.39242 -2.7555,-0.15746 -4.53931,-8.20484 -3.98171,-17.96291 0.55761,-9.75807 3.24651,-17.54988 6.00201,-17.39242 z"
       id="path3435"
       inkscape:path-effect="#path-effect3437"
       inkscape:original-d="m 382.84781,650.1503 -2.0203,35.35533"
       inkscape:connector-curvature="0"
       transform="translate(0,308.2677)" />
    <path
       style="fill:#000000;fill-rule:evenodd;stroke:none"
       d="m 640.43671,649.14014 c 0.64222,0.0338 1.0542,3.70843 1.03717,10.57259 -0.017,6.86416 -0.46479,16.91943 -1.39339,29.574 -27.04576,0.59483 -66.83712,1.21989 -111.33588,1.44963 -41.66688,0.21511 -79.52989,-0.0334 -106.85139,-0.79729 -27.32151,-0.76393 -44.10152,-2.04329 -44.09617,-3.42328 0.005,-1.37999 16.71984,-2.52953 43.52783,-3.08365 26.80799,-0.55412 63.70948,-0.51282 104.58261,0.0222 43.65107,0.5714 83.14118,1.50376 110.84484,2.31079 0.32707,-11.20307 0.88946,-20.34069 1.56866,-26.70503 0.6792,-6.36433 1.4735,-9.95378 2.11572,-9.91998 z"
       id="path3439"
       inkscape:path-effect="#path-effect3441"
       inkscape:original-d="m 640.43671,649.14014 -2.0203,38.3858 -260.61936,-1.01015"
       inkscape:connector-curvature="0"
       transform="translate(0,308.2677)" />
    <path
       style="fill:#ffffff;fill-opacity:1;stroke:#000000;stroke-width:0.10101525;stroke-miterlimit:4;stroke-opacity:1;stroke-dasharray:none"
       d="m 909.56605,606.62104 -28.66586,-0.26849 0.66513,-7.81273 c 0.84001,-9.86721 2.57343,-106.44872 2.60192,-144.97264 0.0166,-22.37829 -0.26928,-29.16972 -1.24119,-29.491 -1.80302,-0.59603 -198.12511,-4.51891 -198.67414,-3.96988 -0.2505,0.2505 -0.48312,42.03784 -0.51695,92.86077 l -0.0615,92.40533 -32.64683,9.5e-4 -32.64685,9.5e-4 0.60428,-7.82868 c 1.42191,-18.42152 2.6065,-61.30903 3.23236,-117.02636 l 0.67059,-59.7002 -13.04333,-0.64588 c -7.17383,-0.35523 -55.15138,-0.94765 -106.61678,-1.31648 l -93.57343,-0.6706 -0.80483,25.15627 c -0.44266,13.83594 -0.83678,55.95246 -0.87583,93.59226 l -0.071,68.43598 -32.22187,0.002 -32.22186,0.002 0.68954,-9.34391 c 0.96541,-13.08209 2.6201,-173.85059 1.7978,-174.66875 -0.76172,-0.75787 -197.37717,-4.99346 -198.10299,-4.26764 -0.25791,0.25791 -0.48941,42.66233 -0.51443,94.23205 l -0.0455,93.76312 -12.02789,0.64747 c -6.61533,0.35611 -18.83416,0.64746 -27.15295,0.64746 l -15.125064,0 0.578547,-4.79822 c 0.318201,-2.63902 1.127576,-30.96796 1.798612,-62.9532 0.955073,-45.52403 0.953832,-67.68341 -0.0057,-102.02541 -0.674178,-24.12874 -1.486486,-45.41903 -1.805128,-47.31175 l -0.57935,-3.44133 19.078243,0.68966 c 43.99061,1.59023 410.5558,2.61147 598.31417,1.66689 106.44192,-0.53549 201.37209,-1.28167 210.95591,-1.65817 10.16236,-0.39923 17.41516,-0.30567 17.40121,0.22448 -0.0132,0.49997 -0.46493,6.36385 -1.00395,13.03086 -2.94433,36.41819 -2.9913,162.24074 -0.0735,196.97974 0.46664,5.55584 0.79172,10.10153 0.72239,10.10153 -0.0693,0 -13.02568,-0.12082 -28.7919,-0.26849 l -10e-6,0 z"
       id="path3476"
       inkscape:connector-curvature="0"
       transform="translate(0,308.2677)" />
    <path
       style="fill:#ffffff;fill-opacity:1;stroke:#000000;stroke-width:0.10101525;stroke-miterlimit:4;stroke-opacity:1;stroke-dasharray:none"
       d="m 435.09567,604.49402 c 1.28965,-2.08669 2.8608,-48.31623 3.46688,-102.00955 l 0.654,-57.93804 14.64721,0.0981 c 8.05597,0.0539 42.99218,0.3996 77.63602,0.76812 l 62.98881,0.67005 -0.60529,3.63182 c -1.07102,6.42621 -1.8913,140.61063 -0.9068,148.33618 l 0.93328,7.32361 -79.67908,0 c -45.02465,0 -79.44245,-0.38285 -79.13503,-0.88028 l 0,0 z"
       id="path3478"
       inkscape:connector-curvature="0"
       transform="translate(0,308.2677)" />
    <path
       style="fill:#ffffff;fill-opacity:1;stroke:#000000;stroke-width:0.10101525;stroke-miterlimit:4;stroke-opacity:1;stroke-dasharray:none"
       d="m 410.89484,598.55577 c 1.31338,-15.1792 2.62344,-62.50977 3.24648,-117.28975 l 0.659,-57.94329 39.98731,0.61445 c 21.99302,0.33795 67.60199,0.89743 101.35327,1.24328 l 61.36596,0.62883 -0.75681,32.96142 c -0.41624,18.12879 -0.75681,58.53096 -0.75681,89.7826 l 0,56.82117 -10.42675,-9e-5 -10.42674,-9e-5 0.59718,-5.3033 c 1.3791,-12.24706 2.56887,-50.28702 3.21973,-102.94331 l 0.69419,-56.16118 -23.14353,-0.62056 c -12.72894,-0.34131 -50.01579,-0.9061 -82.85967,-1.25509 l -59.71613,-0.63453 -0.63183,27.64806 c -1.33019,58.20718 -1.66552,102.09938 -0.91932,120.33053 l 0.77526,18.94135 -11.42538,-9.9e-4 -11.42538,-9.8e-4 0.58997,-6.81853 z"
       id="path3480"
       inkscape:connector-curvature="0"
       transform="translate(0,308.2677)" />
    <path
       style="fill:#ffffff;fill-opacity:1;stroke:#000000;stroke-width:0.10101525;stroke-miterlimit:4;stroke-opacity:1;stroke-dasharray:none"
       d="m 388.76759,642.58802 c 6.36203,-5.86431 12.88256,-14.81591 17.29384,-23.74151 3.59636,-7.27675 3.86917,-7.56112 6.70894,-6.99317 1.62807,0.32562 48.81474,0.59203 104.85927,0.59203 l 101.89914,0 0,2.62907 c 0,3.78424 6.99641,18.02958 12.47618,25.40266 l 4.69223,6.31346 -126.2444,0 -126.24442,0 4.55922,-4.20254 z"
       id="path3482"
       inkscape:connector-curvature="0"
       transform="translate(0,308.2677)" />
    <path
       style="fill:#ffffff;fill-opacity:1;stroke:#000000;stroke-width:0.10101525;stroke-miterlimit:4;stroke-opacity:1;stroke-dasharray:none"
       d="m 383.64737,683.52516 c 2.67536,-6.30235 3.65351,-12.6201 3.26333,-21.07724 l -0.41945,-9.09137 125.86268,0.34274 c 69.22447,0.1885 125.90151,0.41579 125.94897,0.50507 0.0475,0.0893 -0.37216,7.15008 -0.93252,15.69065 l -1.0188,15.5283 -27.35176,-0.76947 c -74.02294,-2.08247 -217.27551,-2.06175 -223.87349,0.0324 -1.94807,0.61829 -2.16275,0.44976 -1.47896,-1.16105 z"
       id="path3484"
       inkscape:connector-curvature="0"
       transform="translate(0,308.2677)" />
    <path
       style="fill:#ffffff;fill-opacity:1;stroke:#000000;stroke-width:0.10101525;stroke-miterlimit:4;stroke-opacity:1;stroke-dasharray:none"
       d="m 684.97205,647.04344 -41.12783,-0.27549 -1.14431,-4.24967 c -1.6442,-6.10607 -7.06581,-16.451 -12.45034,-23.75637 l -4.65115,-6.31036 155.71015,3.2e-4 155.71015,3.1e-4 -0.6561,9.24315 c -0.36085,5.08373 -0.6561,13.03715 -0.6561,17.67427 l 0,8.43111 -104.80332,-0.24089 c -57.64183,-0.13249 -123.31085,-0.36486 -145.93115,-0.51638 z"
       id="path3486"
       inkscape:connector-curvature="0"
       transform="translate(0,308.2677)" />
    <path
       style="fill:#ffffff;fill-opacity:1;stroke:#000000;stroke-width:0.10101525;stroke-miterlimit:4;stroke-opacity:1;stroke-dasharray:none"
       d="m 90.572346,646.1846 c 0.324854,-1.61127 1.103299,-10.42996 1.729876,-19.5971 0.626578,-9.16713 1.255848,-16.79173 1.398379,-16.94356 0.142531,-0.15182 41.121869,0.18456 91.065189,0.74752 49.94332,0.56296 119.16084,1.02811 153.81669,1.03366 l 63.01065,0.0101 -3.96808,4.30486 c -8.37104,9.0815 -16.42578,22.84784 -16.47009,28.14898 l -0.0222,2.65435 -143.6942,0.48193 c -79.03181,0.26506 -144.540804,0.84348 -145.57554,1.28538 -1.649012,0.70423 -1.8084,0.44168 -1.290694,-2.12612 z"
       id="path3488"
       inkscape:connector-curvature="0"
       transform="translate(0,308.2677)" />
    <path
       style="fill:#ffffff;fill-opacity:1;stroke:#000000;stroke-width:0.10101525;stroke-miterlimit:4;stroke-opacity:1;stroke-dasharray:none"
       d="m 151.21455,597.04054 c 0.94733,-11.70664 2.57968,-99.61176 2.60921,-140.51118 l 0.0247,-34.19263 28.53681,0.62058 c 15.69525,0.34131 35.80991,0.8842 44.69925,1.20641 l 16.16244,0.58584 0,90.31189 0,90.31189 -46.35339,4.9e-4 -46.35339,4.7e-4 0.67438,-8.33376 z m 80.13378,0.87113 c 0.16076,-0.16077 0.58917,-14.83709 0.95202,-32.61406 l 0.65972,-32.32175 -35.73557,-0.653 c -19.65457,-0.35915 -36.11592,-0.27266 -36.58078,0.1922 -0.46485,0.46485 -0.70661,14.75347 -0.53723,31.75246 0.23219,23.3032 0.62366,31.2226 1.59114,32.18894 1.85446,1.85227 21.08451,2.75313 47.16959,2.20974 12.20385,-0.25422 22.32034,-0.59377 22.48111,-0.75453 l 0,0 z m 1.75162,-119.88832 c 0.4091,-23.92956 0.43544,-43.81694 0.0585,-44.19417 -0.3769,-0.37724 -16.73212,-0.84278 -36.34494,-1.03455 l -35.65967,-0.34866 -0.74271,26.73955 c -0.76119,27.40473 0.0372,56.46903 1.63463,59.5043 1.2399,2.35597 3.28634,2.49703 38.88518,2.68016 l 31.42517,0.16166 0.7438,-43.50829 z"
       id="path3490"
       inkscape:connector-curvature="0"
       transform="translate(0,308.2677)" />
    <path
       style="fill:#ffffff;fill-opacity:1;stroke:#000000;stroke-width:0.10101525;stroke-miterlimit:4;stroke-opacity:1;stroke-dasharray:none"
       d="m 248.18069,598.01689 c 0.86487,-9.54418 2.5843,-103.50728 2.61701,-143.01417 l 0.0254,-30.6685 30.55711,0.62897 c 16.80642,0.34594 36.92108,0.89213 44.69925,1.21377 l 14.14214,0.5848 0,89.30581 0,89.3058 -46.35381,4.7e-4 -46.35381,4.6e-4 0.66671,-7.35741 z m 82.858,-30.12356 c 0.39747,-17.83661 0.4329,-32.71998 0.0787,-33.07416 -0.35418,-0.35418 -16.67465,-0.81151 -36.26771,-1.01629 l -35.62375,-0.37231 -0.69824,20.30729 c -0.71746,20.86634 -0.0246,40.72784 1.52616,43.74696 1.18725,2.31148 3.55778,2.47223 39.35452,2.66891 l 30.90763,0.16981 0.72267,-32.43021 0,0 z m -0.77002,-45.73732 c 0.0817,-0.0656 0.48115,-19.70508 0.88761,-43.64327 l 0.739,-43.52398 -24.53722,-0.67019 c -13.49548,-0.36861 -29.86638,-0.6702 -36.37979,-0.6702 l -11.84257,0 -0.68836,29.54696 c -0.7312,31.38627 0.24994,55.5017 2.34339,57.59804 1.50667,1.50874 28.14595,2.45828 52.66183,1.87708 9.16713,-0.21732 16.73438,-0.44882 16.81611,-0.51444 z"
       id="path3492"
       inkscape:connector-curvature="0"
       transform="translate(0,308.2677)" />
    <path
       style="fill:#ffffff;fill-opacity:1;stroke:#000000;stroke-width:0.10101525;stroke-miterlimit:4;stroke-opacity:1;stroke-dasharray:none"
       d="m 262.33336,516.38204 c 0.37014,-1.89019 0.94558,-20.19578 1.27875,-40.6791 l 0.60575,-37.2424 4.55529,0.62437 c 2.5054,0.34341 16.31062,0.62437 30.67826,0.62437 l 26.12298,0 0,38.74472 0,38.74473 -29.54697,0.59465 c -16.25082,0.32706 -30.63148,0.91656 -31.95701,1.31 -2.28585,0.67848 -2.37537,0.53823 -1.73705,-2.72134 z"
       id="path3494"
       inkscape:connector-curvature="0"
       transform="translate(0,308.2677)" />
    <path
       style="fill:#ffffff;fill-opacity:1;stroke:#000000;stroke-width:0.10101525;stroke-miterlimit:4;stroke-opacity:1;stroke-dasharray:none"
       d="m 164.338,515.37933 c 0.36554,-1.89428 0.94422,-20.21704 1.28596,-40.71726 l 0.62134,-37.27311 13.65927,0.65508 c 7.5126,0.3603 21.31506,0.65509 30.67214,0.65509 l 17.01288,0 0,38.76506 0,38.76506 -30.05204,0.4893 c -16.52862,0.26912 -30.90977,0.85282 -31.95811,1.29712 -1.71567,0.72711 -1.83968,0.46376 -1.24144,-2.63634 z"
       id="path3496"
       inkscape:connector-curvature="0"
       transform="translate(0,308.2677)" />
    <path
       style="fill:#ffffff;fill-opacity:1;stroke:#000000;stroke-width:0.10101525;stroke-miterlimit:4;stroke-opacity:1;stroke-dasharray:none"
       d="m 163.37388,593.17031 c 0.41733,-1.34377 1.00217,-14.37565 1.29964,-28.95973 l 0.54084,-26.5165 31.32832,0 31.32832,0 -0.637,5.3033 c -0.35035,2.91682 -0.64095,15.35761 -0.64578,27.64621 l -0.009,22.34292 -30.05204,0.50882 c -16.52862,0.27986 -30.9206,0.87094 -31.98218,1.31352 -1.68382,0.702 -1.8333,0.4929 -1.17134,-1.63854 z"
       id="path3498"
       inkscape:connector-curvature="0"
       transform="translate(0,308.2677)" />
    <path
       style="fill:#ffffff;fill-opacity:1;stroke:#000000;stroke-width:0.10101525;stroke-miterlimit:4;stroke-opacity:1;stroke-dasharray:none"
       d="m 262.35953,593.82033 c 0.32909,-1.70128 0.88827,-14.8607 1.24262,-29.24316 l 0.64427,-26.14991 8.18809,0.63751 c 4.50345,0.35063 18.30224,0.64023 30.66398,0.64356 l 22.4759,0.006 0,27.77919 0,27.7792 -26.01143,0.0852 c -14.30629,0.0469 -28.66426,0.41606 -31.90661,0.82039 l -5.89518,0.73516 0.59836,-3.09324 0,0 z"
       id="path3500"
       inkscape:connector-curvature="0"
       transform="translate(0,308.2677)" />
    <path
       style="fill:#ffffff;fill-opacity:1;stroke:#000000;stroke-width:0.10101525;stroke-miterlimit:4;stroke-opacity:1;stroke-dasharray:none"
       d="m 469.13317,604.61699 -33.72298,-0.28041 0.6373,-4.64962 c 0.76271,-5.56458 2.30639,-60.46503 3.24042,-115.24434 l 0.67546,-39.61441 51.64945,0.49635 c 28.40719,0.273 63.01366,0.75996 76.90325,1.08215 l 25.25382,0.5858 -0.77994,17.82413 c -0.42896,9.80327 -0.65625,45.43934 -0.50508,79.19127 l 0.27487,61.36714 -44.95179,-0.23882 c -24.72349,-0.13136 -60.12714,-0.36501 -78.67478,-0.51924 z"
       id="path3502"
       inkscape:connector-curvature="0"
       transform="translate(0,308.2677)" />
    <path
       style="fill:#ffffff;fill-opacity:1;stroke:#000000;stroke-width:0.10101525;stroke-miterlimit:4;stroke-opacity:1;stroke-dasharray:none"
       d="m 701.74971,519.41249 c 0.37015,-1.89018 0.94559,-20.19577 1.27876,-40.67909 l 0.60575,-37.2424 4.55528,0.62437 c 2.50541,0.3434 16.31063,0.62437 30.67827,0.62437 l 26.12297,0 0,38.74472 0,38.74472 -29.54696,0.59466 c -16.25083,0.32706 -30.63148,0.91656 -31.95701,1.31 -2.28585,0.67848 -2.37537,0.53823 -1.73706,-2.72135 z"
       id="path3504"
       inkscape:connector-curvature="0"
       transform="translate(0,308.2677)" />
    <path
       style="fill:#ffffff;fill-opacity:1;stroke:#000000;stroke-width:0.10101525;stroke-miterlimit:4;stroke-opacity:1;stroke-dasharray:none"
       d="m 701.77588,594.83048 c 0.3291,-1.70128 0.88828,-14.8607 1.24263,-29.24316 l 0.64427,-26.14991 8.18809,0.63751 c 4.50345,0.35063 18.30224,0.64023 30.66398,0.64356 l 22.47589,0.006 0,27.77919 0,27.7792 -26.01142,0.0852 c -14.30629,0.0469 -28.66426,0.41606 -31.90661,0.8204 l -5.89518,0.73515 0.59835,-3.09324 0,0 z"
       id="path3506"
       inkscape:connector-curvature="0"
       transform="translate(0,308.2677)" />
    <path
       style="fill:#ffffff;fill-opacity:1;stroke:#000000;stroke-width:0.10101525;stroke-miterlimit:4;stroke-opacity:1;stroke-dasharray:none"
       d="m 799.76068,597.86094 c 0.32909,-1.70128 0.88827,-14.8607 1.24262,-29.24316 l 0.64428,-26.14991 8.18808,0.63751 c 4.50345,0.35063 18.30225,0.64023 30.66399,0.64356 l 22.47589,0.006 0,27.77919 0,27.7792 -26.01143,0.0852 c -14.30628,0.0469 -28.66426,0.41606 -31.9066,0.82039 l -5.89518,0.73516 0.59835,-3.09324 0,0 z"
       id="path3508"
       inkscape:connector-curvature="0"
       transform="translate(0,308.2677)" />
    <path
       style="fill:#ffffff;fill-opacity:1;stroke:#000000;stroke-width:0.10101525;stroke-miterlimit:4;stroke-opacity:1;stroke-dasharray:none"
       d="m 799.73451,522.44295 c 0.37015,-1.89018 0.94559,-20.19577 1.27875,-40.67909 l 0.60576,-37.2424 4.55528,0.62437 c 2.50541,0.3434 16.31062,0.62437 30.67826,0.62437 l 26.12298,0 0,38.74472 0,38.74472 -29.54696,0.59466 c -16.25083,0.32706 -30.63149,0.91656 -31.95702,1.31 -2.28584,0.67848 -2.37536,0.53823 -1.73705,-2.72135 z"
       id="path3510"
       inkscape:connector-curvature="0"
       transform="translate(0,308.2677)" />
    <path
       style="fill:#ffffff;fill-opacity:1;stroke:#000000;stroke-width:0.10101525;stroke-miterlimit:4;stroke-opacity:1;stroke-dasharray:none"
       d="m 785.60644,601.08115 c 0.88004,-7.23094 2.57621,-98.59704 2.59915,-140.0061 l 0.0187,-33.68755 28.53681,0.62057 c 15.69525,0.34131 35.80991,0.88421 44.69925,1.20643 l 16.16244,0.58586 0,88.29128 0,88.29128 -46.33087,7.7e-4 -46.33087,7.6e-4 0.64543,-5.3033 z m 82.83341,-29.14721 c 0.39747,-17.83661 0.43289,-32.71998 0.0787,-33.07416 -0.35418,-0.35418 -16.67465,-0.81151 -36.26771,-1.01629 l -35.62374,-0.37231 -0.69824,20.30729 c -0.71746,20.86634 -0.0246,40.72784 1.52615,43.74696 1.18726,2.31148 3.55778,2.47224 39.35453,2.66891 l 30.90762,0.16981 0.72268,-32.43021 z m -0.77002,-43.71701 c 0.0817,-0.0656 0.48115,-19.70509 0.8876,-43.64327 l 0.739,-43.52398 -24.53722,-0.6702 c -13.49547,-0.36861 -29.86638,-0.6702 -36.37979,-0.6702 l -11.84257,0 -0.68835,29.54697 c -0.73121,31.38626 0.24994,55.50169 2.34338,57.59803 1.50667,1.50875 28.14595,2.45828 52.66183,1.87708 9.16713,-0.21732 16.73439,-0.44881 16.81612,-0.51443 l 0,0 z"
       id="path3512"
       inkscape:connector-curvature="0"
       transform="translate(0,308.2677)" />
    <path
       style="fill:#ffffff;fill-opacity:1;stroke:#000000;stroke-width:0.10101525;stroke-miterlimit:4;stroke-opacity:1;stroke-dasharray:none"
       d="m 697.94167,605.62938 -10.9856,-0.32599 0.64582,-5.77292 c 0.89026,-7.95796 2.59618,-99.46221 2.6189,-140.47573 l 0.0187,-33.68755 28.53681,0.62057 c 15.69524,0.34132 35.8099,0.88421 44.69925,1.20642 l 16.16244,0.58584 0,89.30161 0,89.3016 -35.35534,-0.21393 c -19.44544,-0.11765 -40.29887,-0.36062 -46.34095,-0.53992 l 0,0 z m 72.51338,-36.7259 c 0.39747,-17.83661 0.43289,-32.71998 0.0787,-33.07416 -0.35418,-0.35418 -16.67464,-0.81151 -36.2677,-1.01629 l -35.62375,-0.37231 -0.69824,20.30729 c -0.71746,20.86634 -0.0246,40.72785 1.52615,43.74696 1.18726,2.31148 3.55779,2.47224 39.35453,2.66891 l 30.90763,0.16981 0.72267,-32.43021 0,0 z m -0.77002,-43.71701 c 0.0817,-0.0656 0.48115,-19.70509 0.8876,-43.64327 l 0.73901,-43.52398 -24.53723,-0.6702 c -13.49547,-0.36861 -29.86638,-0.67019 -36.37979,-0.67019 l -11.84256,0 -0.68836,29.54696 c -0.7312,31.38626 0.24994,55.5017 2.34339,57.59803 1.50666,1.50875 28.14594,2.45828 52.66182,1.87708 9.16714,-0.21732 16.73439,-0.44881 16.81612,-0.51443 z"
       id="path3514"
       inkscape:connector-curvature="0"
       transform="translate(0,308.2677)" />
    <path
       style="fill:#ffffff;fill-opacity:1;stroke:#000000;stroke-width:0.10101525;stroke-miterlimit:4;stroke-opacity:1;stroke-dasharray:none"
       d="m 93.606124,603.65212 c 0.301054,-1.55293 1.092031,-23.05181 1.757726,-47.77529 1.185752,-44.03807 0.657062,-129.66515 -0.969858,-157.07872 -0.395668,-6.66701 -0.703695,-12.17368 -0.684505,-12.23705 0.01919,-0.0634 21.854183,0.28492 48.522213,0.77398 65.76487,1.20604 531.49899,1.56233 677.71488,0.51846 l 118.09037,-0.84307 -0.67718,9.42937 c -2.50136,34.83028 -2.50383,179.38749 -0.003,203.6312 l 0.65113,6.31345 -28.53699,0 -28.53699,0 0.57156,-3.28299 c 1.1248,-6.46083 2.81807,-100.99626 2.50139,-139.65359 l -0.32317,-39.39595 -16.16244,-0.64769 c -8.88934,-0.35624 -41.391,-1.14705 -72.22591,-1.75737 -30.83491,-0.61032 -68.37809,-1.37076 -83.42931,-1.68987 l -27.36583,-0.5802 -0.66254,15.97462 c -0.36438,8.78605 -0.66404,50.63549 -0.66589,92.99876 l -0.003,77.02413 -32.34413,0 -32.34412,0 0.48399,-2.27284 c 1.52826,-7.17676 5.39078,-181.12611 4.05161,-182.46528 -0.59158,-0.59159 -68.01802,-1.70064 -154.10911,-2.53483 l -59.20335,-0.57365 -0.62658,6.79764 c -0.34462,3.73871 -0.93792,46.00419 -1.31845,93.9233 l -0.69189,87.12566 -31.76926,0 -31.76927,0 0.57312,-3.28299 c 1.05562,-6.04693 3.07689,-179.57018 2.1026,-180.50479 -1.48863,-1.42798 -196.84711,-6.00593 -198.20888,-4.64475 -0.39171,0.39155 -0.86749,42.70015 -1.05729,94.01913 l -0.34508,93.30721 -4.2006,0.50823 c -2.31034,0.27952 -14.35539,0.77621 -26.76678,1.10375 l -22.566168,0.59554 0.547372,-2.82351 0,0 z"
       id="path3516"
       inkscape:connector-curvature="0"
       transform="translate(0,308.2677)" />
    <path
       style="fill:#ffffff;fill-opacity:1;stroke:#000000;stroke-width:0.10101525;stroke-miterlimit:4;stroke-opacity:1;stroke-dasharray:none"
       d="m 848.32833,289.1101 c -40.55763,-0.41523 -173.74624,-1.25184 -295.9747,-1.85915 -205.38909,-1.0205 -265.13296,-0.95405 -401.72139,0.44679 l -50.18832,0.51473 0.95862,-3.29603 c 2.28102,-7.84292 0.92434,-38.77006 -2.043228,-46.57785 l -0.826689,-2.17504 284.994277,-0.28183 c 156.74685,-0.155 344.77005,-0.61859 417.82934,-1.03018 73.05928,-0.4116 132.83566,-0.73935 132.8364,-0.72833 7.5e-4,0.011 -0.14758,11.74961 -0.32962,26.08577 l -0.33097,26.06574 -2.70084,0.95628 c -1.48545,0.52595 -3.49015,1.41065 -4.45489,1.96599 -0.96474,0.55534 -2.32844,0.93285 -3.03046,0.83889 -0.70201,-0.094 -34.45991,-0.51055 -75.01753,-0.92578 z"
       id="path3518"
       inkscape:connector-curvature="0"
       transform="translate(0,308.2677)" />
    <path
       style="fill:#ffffff;fill-opacity:1;stroke:#000000;stroke-width:0.10101525;stroke-miterlimit:4;stroke-opacity:1;stroke-dasharray:none"
       d="m 33.939049,228.96118 c 2.036313,-2.7057 12.234431,-16.86969 22.662485,-31.47552 l 18.960098,-26.55605 25.253818,0.53907 c 13.88959,0.29649 65.71042,0.83078 115.15739,1.1873 61.37881,0.44256 90.121,0.98698 90.58885,1.71589 0.48033,0.74836 1.40079,0.74164 3.0778,-0.0224 1.70691,-0.77772 49.85366,-0.82971 168.0102,-0.18143 91.08972,0.49977 189.93709,1.01616 219.66083,1.14754 30.26117,0.13375 54.89401,0.6478 55.97664,1.16814 1.49836,0.72015 1.746,0.62592 1.1004,-0.41867 -0.69037,-1.11705 3.6352,-1.23298 25.25196,-0.67674 14.34677,0.36916 61.23869,0.67121 104.20427,0.67121 l 78.11922,0 13.13572,26.25648 c 7.22465,14.44107 13.13573,26.4189 13.13573,26.61739 0,0.1985 -176.48628,0.64496 -392.19173,0.99213 -361.88044,0.58244 -555.473179,1.72253 -562.841558,3.31463 l -2.964511,0.64055 3.702388,-4.91947 z"
       id="path3520"
       inkscape:connector-curvature="0"
       transform="translate(0,308.2677)" />
    <path
       style="fill:#ffffff;fill-opacity:1;stroke:#000000;stroke-width:0.10101525;stroke-miterlimit:4;stroke-opacity:1;stroke-dasharray:none"
       d="m 464.29301,166.97347 -138.56825,-0.51045 14.25455,-8.08122 C 385.21547,132.73641 458.386,86.418792 486.32024,65.746647 c 9.76442,-7.225953 11.98202,-8.471723 13.13199,-7.377127 11.45059,10.899188 131.83194,84.16405 168.30837,102.43355 3.47076,1.73837 7.78917,4.06222 9.59645,5.16415 l 3.28596,2.00347 -38.89088,-0.24338 c -21.38998,-0.13387 -101.24659,-0.47309 -177.45912,-0.75384 z"
       id="path3522"
       inkscape:connector-curvature="0"
       transform="translate(0,308.2677)" />
    <path
       style="fill:#ffffff;fill-opacity:1;stroke:#000000;stroke-width:0.10101525;stroke-miterlimit:4;stroke-opacity:1;stroke-dasharray:none"
       d="M 680.64301,161.28862 C 636.20973,129.436 495.28001,47.707204 495.28001,53.791814 c 0,0.484736 -5.34118,3.718037 -11.86929,7.185115 C 444.0061,81.904715 359.25926,134.60986 321.82666,161.46813 l -7.66536,5.49997 -28.38611,-0.0169 -28.3861,-0.0169 8.08122,-4.34432 c 25.95778,-13.9544 108.56263,-62.981433 195.7413,-116.174944 21.54221,-13.144336 39.65715,-23.898794 40.25544,-23.898794 0.59828,0 24.33858,14.708685 52.75622,32.685967 65.39037,41.36659 118.96558,74.610111 153.18878,95.053921 14.72297,8.79502 27.20088,16.38045 27.72869,16.85651 0.53563,0.48313 -9.28354,0.8275 -22.22336,0.77939 l -23.183,-0.0862 -9.09137,-6.51729 z"
       id="path3524"
       inkscape:connector-curvature="0"
       transform="translate(0,308.2677)" />
    <path
       style="fill:#ffffff;fill-opacity:1;stroke:#000000;stroke-width:0.10101525;stroke-miterlimit:4;stroke-opacity:1;stroke-dasharray:none"
       d="m 22.796511,380.00516 c 11.51133,-16.19585 36.082451,-65.0975 41.736331,-83.064 1.787981,-5.68171 1.959527,-5.8714 4.796697,-5.30397 12.274423,2.45489 342.525271,3.69769 700.206891,2.63502 122.0565,-0.36263 164.15922,-0.18299 171.97847,0.73378 9.73965,1.14193 25.69684,0.4829 32.16236,-1.32829 1.87264,-0.52458 2.48494,0.41281 5.43661,8.32298 6.9033,18.5002 24.40863,52.46256 37.07413,71.92824 l 5.5084,8.46585 -15.9734,-0.64619 c -56.34154,-2.27924 -182.9093,-3.08559 -483.16887,-3.07822 -300.71887,0.007 -414.01876,0.73399 -482.316386,3.09317 l -19.161448,0.66188 1.720215,-2.42025 0,0 z"
       id="path3526"
       inkscape:connector-curvature="0"
       transform="translate(0,308.2677)" />
  </g>
</svg>
