<?xml version="1.0" encoding="UTF-8" standalone="no"?>
<!-- Created with Inkscape (http://www.inkscape.org/) -->

<svg
   xmlns:dc="http://purl.org/dc/elements/1.1/"
   xmlns:cc="http://creativecommons.org/ns#"
   xmlns:rdf="http://www.w3.org/1999/02/22-rdf-syntax-ns#"
   xmlns:svg="http://www.w3.org/2000/svg"
   xmlns="http://www.w3.org/2000/svg"
   xmlns:sodipodi="http://sodipodi.sourceforge.net/DTD/sodipodi-0.dtd"
   xmlns:inkscape="http://www.inkscape.org/namespaces/inkscape"
   id="svg13327"
   version="1.1"
   inkscape:version="0.48.4 r9939"
   width="261"
   height="94"
   sodipodi:docname="slash.svg">
  <metadata
     id="metadata13333">
    <rdf:RDF>
      <cc:Work
         rdf:about="">
        <dc:format>image/svg+xml</dc:format>
        <dc:type
           rdf:resource="http://purl.org/dc/dcmitype/StillImage" />
        <dc:title />
      </cc:Work>
    </rdf:RDF>
  </metadata>
  <defs
     id="defs13331" />
  <sodipodi:namedview
     pagecolor="#ffffff"
     bordercolor="#666666"
     borderopacity="1"
     objecttolerance="10"
     gridtolerance="10"
     guidetolerance="10"
     inkscape:pageopacity="0"
     inkscape:pageshadow="2"
     inkscape:window-width="1920"
     inkscape:window-height="1056"
     id="namedview13329"
     showgrid="false"
     inkscape:zoom="15.431725"
     inkscape:cx="198.15013"
     inkscape:cy="46.316703"
     inkscape:window-x="1920"
     inkscape:window-y="0"
     inkscape:window-maximized="1"
     inkscape:current-layer="svg13327"
     showborder="false"
     inkscape:showpageshadow="false" />
  <g
     id="g13355"
     transform="translate(0.36657402,-0.36657349)">
    <path
       style="fill:#f6f9f3"
       d="M 0,47 0,0 130.5,0 261,0 261,47 261,94 130.5,94 0,94 0,47 z M 260,47 260,1 130.5,1 1,1 1,47 1,93 130.5,93 260,93 260,47 z M 170.69217,81.069128 C 171.17405,79.226425 187.54759,59.711263 190.55955,57.389757 191.3518,56.779124 192,55.853198 192,55.332145 192,53.134623 227.37205,20.685606 236.75,14.280137 239.26911,12.5595 240,12.390832 240,13.530137 240,14.338562 239.59878,15 239.10841,15 c -0.49038,0 -1.15291,1.041184 -1.47231,2.313742 -0.31939,1.272558 -2.28067,3.939205 -4.3584,5.925882 -2.07774,1.986677 -4.99025,5.107993 -6.47226,6.936258 -1.48201,1.828265 -4.7165,5.799118 -7.18775,8.824118 -3.72488,4.55953 -11.83817,12.657652 -24.15286,24.107722 -1.11934,1.040753 -2.46934,1.896361 -3,1.901352 -0.53066,0.005 -2.02798,1.354991 -3.32739,3 C 187.83803,69.654083 186.39292,71 185.92608,71 c -0.46684,0 -2.61575,1.6875 -4.77535,3.75 -5.21706,4.982477 -6.8615,6.25 -8.10852,6.25 C 172.46899,81 172,81.45 172,82 c 0,0.55 -0.40787,1 -0.90638,1 -0.49851,0 -0.67916,-0.868892 -0.40145,-1.930872 z M 194,62.14291 C 205.64621,52.552451 219.86734,37.400361 225.57586,28.5 l 1.92414,-3 -3,1.924141 C 212.89988,34.86423 191.73691,56.021829 184.41397,67.5 l -1.91397,3 3,-1.913966 c 1.65,-1.052681 5.475,-3.952087 8.5,-6.443124 z m -96.996262,4.968418 c 0.0093,-1.522944 4.490062,-7.909969 7.583882,-10.810345 1.87681,-1.75946 3.41238,-3.571528 3.41238,-4.02682 0,-2.331214 23.03734,-22.619013 26.71045,-23.522516 2.08485,-0.512828 2.14167,-0.38089 1,2.3221 C 133.87891,35.410049 114.93123,57 112.95716,57 c -0.39309,0 -3.0187,2.197432 -5.83468,4.883182 -4.40336,4.199716 -10.130547,7.158837 -10.118742,5.228146 z m 14.080112,-10.73157 c 7.24283,-5.993 13.05782,-12.21242 19.47488,-20.829343 3.57998,-4.807248 2.19345,-4.068894 -7.64258,4.069827 -7.24283,5.993 -13.05782,12.21242 -19.47488,20.829343 -3.579976,4.807248 -2.19345,4.068894 7.64258,-4.069827 z M 17,58.654988 C 17,57.915231 17.9,56.495486 19,55.5 20.1,54.504514 21,53.25988 21,52.734147 21,51.687263 32.353873,40 33.370894,40 33.716902,40 34.9,39.1 36,38 c 2.373638,-2.373638 5,-2.619789 5,-0.468615 0,0.842261 -0.675,1.790406 -1.5,2.106989 C 38.675,39.954956 38,40.865792 38,41.662454 38,43.342687 26.891296,55 25.290137,55 24.69825,55 23.954956,55.675 23.638374,56.5 23.321791,57.325 22.373646,58 21.531385,58 20.689123,58 20,58.45 20,59 20,59.55 19.325,60 18.5,60 17.675,60 17,59.394744 17,58.654988 z m 10.133354,-6.91487 c 3.696143,-2.937266 11.431628,-12.802814 8.804574,-11.229024 -4.0106,2.402631 -9.052657,7.120768 -12.00921,11.237694 -3.451515,4.806149 -2.852108,4.804527 3.204636,-0.0087 z"
       id="path13373"
       inkscape:connector-curvature="0" />
    <path
       style="fill:#f1f5ec"
       d="M 129.75,93.250032 260,92.992539 260,47 260,1.0074614 129.75,0.74996759 -0.5,0.49247378 130.25,0.24623689 261,0 261,47 261,94 130.25,93.753763 -0.5,93.507526 129.75,93.250032 z m 40.99801,-12.394416 c 0.29123,-1.113685 1.14207,-2.259943 1.89075,-2.547238 C 173.38744,78.021082 174,77.331281 174,76.775487 174,75.798723 186.45432,61.215807 190.17182,57.839707 191.17732,56.926546 192,55.775621 192,55.282095 192,54.463974 211.82066,34.888812 215.10099,32.467234 215.87045,31.899212 220.325,28.06682 225,23.950806 c 9.59476,-8.447523 13.86783,-11.440997 14.83676,-10.393804 0.36478,0.394244 0.10074,0.9177 -0.58676,1.163236 C 238.5625,14.965774 238,15.804167 238,16.583333 238,17.3625 237.55,18 237,18 c -0.55,0 -1,0.482251 -1,1.07167 0,1.013146 -6.84917,8.720495 -11.75,13.222227 -1.2375,1.136726 -2.25,2.451703 -2.25,2.922172 0,1.178762 -2.87618,4.33346 -14.5,15.904145 C 194.60012,63.961124 193.4687,65 192.38378,65 c -0.49815,0 -2.02085,1.35 -3.38378,3 -1.36293,1.65 -2.8031,3 -3.20038,3 -0.39728,0 -2.48929,1.6875 -4.64889,3.75 -4.18641,3.998166 -5.53448,5.056241 -8.84241,6.940249 -1.85994,1.05932 -2.03158,0.967508 -1.56031,-0.834633 z M 194,62.14291 C 205.64621,52.552451 219.86734,37.400361 225.57586,28.5 l 1.92414,-3 -3,1.924141 C 212.89988,34.86423 191.73691,56.021829 184.41397,67.5 l -1.91397,3 3,-1.913966 c 1.65,-1.052681 5.475,-3.952087 8.5,-6.443124 z M 97.753349,65.835193 C 98.017302,64.825837 98.630779,64 99.116631,64 99.602484,64 100,63.289711 100,62.421581 c 0,-0.868131 1.8,-3.36052 4,-5.538643 2.2,-2.178123 4,-4.189575 4,-4.469894 0,-0.280319 3.0375,-3.547815 6.75,-7.261103 C 127.86556,32.033599 137.52218,25.28719 136.2566,30.126771 135.98717,31.157047 135.36922,32 134.88337,32 134.39752,32 134,32.584585 134,33.299077 134,35.030447 114.10337,57 112.53536,57 c -0.22976,0 -2.7136,2.201248 -5.51965,4.891662 -5.48243,5.256503 -10.122308,7.231972 -9.262361,3.943531 z m 13.330501,-9.455435 c 7.24283,-5.993 13.05782,-12.21242 19.47488,-20.829343 3.57998,-4.807248 2.19345,-4.068894 -7.64258,4.069827 -7.24283,5.993 -13.05782,12.21242 -19.47488,20.829343 -3.579976,4.807248 -2.19345,4.068894 7.64258,-4.069827 z M 17,58.5 c 0,-0.825 0.438444,-1.5 0.97432,-1.5 0.535876,0 1.695747,-1.395087 2.577491,-3.100192 C 22.108272,50.889945 32.167822,40 33.391712,40 33.72627,40 34.9,39.1 36,38 c 2.310447,-2.310447 5,-2.636953 5,-0.606989 0,0.766156 -0.675,1.652033 -1.5,1.968615 C 38.675,39.678209 38,40.645713 38,41.511635 38,43.233897 26.854879,55 25.223513,55 24.668268,55 23.954956,55.675 23.638374,56.5 23.321791,57.325 22.373646,58 21.531385,58 20.689123,58 20,58.45 20,59 20,59.55 19.325,60 18.5,60 17.675,60 17,59.325 17,58.5 z m 10.133354,-6.759882 c 3.696143,-2.937266 11.431628,-12.802814 8.804574,-11.229024 -4.0106,2.402631 -9.052657,7.120768 -12.00921,11.237694 -3.451515,4.806149 -2.852108,4.804527 3.204636,-0.0087 z"
       id="path13371"
       inkscape:connector-curvature="0" />
    <path
       style="fill:#d1fef4"
       d="m 170.74801,80.855616 c 0.29123,-1.113685 1.14207,-2.259943 1.89075,-2.547238 C 173.38744,78.021082 174,77.208985 174,76.503717 c 0,-0.705268 1.575,-2.538048 3.5,-4.072844 1.925,-1.534796 3.50985,-3.272113 3.52189,-3.860705 0.012,-0.588593 2.48704,-3.699039 5.5,-6.912104 C 189.53485,58.444999 192,55.638748 192,55.42195 192,54.047158 216.0307,31.443068 223.27886,26 c 1.09859,-0.825 3.62277,-3.104175 5.60929,-5.064834 4.84155,-4.778525 10.06839,-8.32423 10.91943,-7.407353 0.38083,0.410298 0.12992,0.946889 -0.55758,1.192425 C 238.5625,14.965774 238,15.804167 238,16.583333 238,17.3625 237.55,18 237,18 c -0.55,0 -1,0.480791 -1,1.068425 0,0.587634 -1.9125,2.974858 -4.25,5.304943 -4.89051,4.874996 -9.37746,10.01182 -12.25,14.024241 -2.33754,3.265123 -20.26382,21.181632 -24.11554,24.102391 -1.45062,1.1 -4.11803,3.4625 -5.9276,5.25 -1.80956,1.7875 -3.60529,3.25 -3.99051,3.25 -0.38522,0 -2.41573,1.6875 -4.51226,3.75 -4.12748,4.060482 -5.44146,5.11526 -8.64577,6.940249 -1.85994,1.05932 -2.03158,0.967508 -1.56031,-0.834633 z M 194,62.14291 C 205.64621,52.552451 219.86734,37.400361 225.57586,28.5 l 1.92414,-3 -3,1.924141 C 212.89988,34.86423 191.73691,56.021829 184.41397,67.5 l -1.91397,3 3,-1.913966 c 1.65,-1.052681 5.475,-3.952087 8.5,-6.443124 z m -96.246443,4.033793 c 0.348995,-0.922186 1.222214,-2.271346 1.940489,-2.998132 C 100.41232,62.451786 101,61.297085 101,60.61257 c 0,-0.684514 1.575,-2.638971 3.5,-4.343237 1.925,-1.704265 3.5,-3.440222 3.5,-3.857681 0,-1.042056 19.28383,-19.403934 20.3827,-19.408214 0.48549,-0.0019 1.61049,-0.828151 2.5,-1.836135 0.88952,-1.007983 2.59613,-2.08205 3.79248,-2.386815 1.71226,-0.43619 2.04224,-0.20577 1.55049,1.082697 -0.34358,0.900248 -1.43491,2.509168 -2.42518,3.575376 C 132.81022,34.50477 132,35.772489 132,36.255714 c 0,0.483225 -1.4625,2.361025 -3.25,4.17289 -1.7875,1.811864 -6.08525,6.281646 -9.55055,9.932847 C 115.73415,54.012653 112.68149,57 112.41575,57 c -0.26574,0 -1.80282,1.35 -3.41575,3 -1.61293,1.65 -3.36026,3 -3.88296,3 -0.52271,0 -1.11524,0.494591 -1.31674,1.099092 -0.2015,0.604501 -1.78722,1.696517 -3.52382,2.426703 -2.851922,1.199144 -3.096056,1.165363 -2.522923,-0.349092 z m 13.330293,-9.796945 c 7.24283,-5.993 13.05782,-12.21242 19.47488,-20.829343 3.57998,-4.807248 2.19345,-4.068894 -7.64258,4.069827 -7.24283,5.993 -13.05782,12.21242 -19.47488,20.829343 -3.579976,4.807248 -2.19345,4.068894 7.64258,-4.069827 z M 17.190945,59.25 C 20.084433,53.18164 29.738068,42.043562 33.25,40.721537 34.2125,40.359215 35,39.598646 35,39.031385 35,38.464123 35.675,38 36.5,38 c 0.825,0 1.5,-0.45 1.5,-1 0,-0.55 0.675,-1 1.5,-1 0.825,0 1.5,0.3949 1.5,0.877555 C 41,37.360211 40.325,38.315311 39.5,39 38.675,39.684689 38,40.864789 38,41.622445 38,42.3801 37.55,43 37,43 36.45,43 36,43.498644 36,44.108099 36,45.533136 26.510721,55 25.08231,55 24.487039,55 24,55.417041 24,55.926758 c 0,0.509717 -1.419137,1.634717 -3.153638,2.5 -3.537482,1.764729 -4.172526,1.907748 -3.655417,0.823242 z m 9.942409,-7.509882 c 3.696143,-2.937266 11.431628,-12.802814 8.804574,-11.229024 -4.0106,2.402631 -9.052657,7.120768 -12.00921,11.237694 -3.451515,4.806149 -2.852108,4.804527 3.204636,-0.0087 z"
       id="path13369"
       inkscape:connector-curvature="0" />
    <path
       style="fill:#ebf2e5"
       d="m 170.74801,80.855616 c 0.29123,-1.113685 1.14207,-2.259943 1.89075,-2.547238 C 173.38744,78.021082 174,77.208985 174,76.503717 c 0,-0.705268 1.575,-2.538048 3.5,-4.072844 1.925,-1.534796 3.50985,-3.272113 3.52189,-3.860705 0.012,-0.588593 2.48704,-3.699039 5.5,-6.912104 C 189.53485,58.444999 192,55.638748 192,55.42195 192,54.047158 216.0307,31.443068 223.27886,26 c 1.09859,-0.825 3.62277,-3.104175 5.60929,-5.064834 4.84155,-4.778525 10.06839,-8.32423 10.91943,-7.407353 0.38083,0.410298 0.12992,0.946889 -0.55758,1.192425 C 238.5625,14.965774 238,15.804167 238,16.583333 238,17.3625 237.55,18 237,18 c -0.55,0 -1,0.480791 -1,1.068425 0,0.587634 -1.9125,2.974858 -4.25,5.304943 -4.89051,4.874996 -9.37746,10.01182 -12.25,14.024241 -2.33754,3.265123 -20.26382,21.181632 -24.11554,24.102391 -1.45062,1.1 -4.11803,3.4625 -5.9276,5.25 -1.80956,1.7875 -3.60529,3.25 -3.99051,3.25 -0.38522,0 -2.41573,1.6875 -4.51226,3.75 -4.12748,4.060482 -5.44146,5.11526 -8.64577,6.940249 -1.85994,1.05932 -2.03158,0.967508 -1.56031,-0.834633 z M 190.72674,65.02199 c 12.98198,-10.818809 31.25838,-29.895847 36.8149,-38.42766 2.68596,-4.124189 0.63725,-3.038015 -8.26838,4.38368 -12.98198,10.818809 -31.25838,29.895847 -36.8149,38.42766 -2.68596,4.124189 -0.63725,3.038015 8.26838,-4.38368 z m -92.973183,1.154713 c 0.348995,-0.922186 1.222214,-2.271346 1.940489,-2.998132 C 100.41232,62.451786 101,61.297085 101,60.61257 c 0,-0.684514 1.575,-2.638971 3.5,-4.343237 1.925,-1.704265 3.5,-3.440222 3.5,-3.857681 0,-1.042056 19.28383,-19.403934 20.3827,-19.408214 0.48549,-0.0019 1.61049,-0.828151 2.5,-1.836135 0.88952,-1.007983 2.59613,-2.08205 3.79248,-2.386815 1.71226,-0.43619 2.04224,-0.20577 1.55049,1.082697 -0.34358,0.900248 -1.43491,2.509168 -2.42518,3.575376 C 132.81022,34.50477 132,35.772489 132,36.255714 c 0,0.483225 -1.4625,2.361025 -3.25,4.17289 -1.7875,1.811864 -6.08525,6.281646 -9.55055,9.932847 C 115.73415,54.012653 112.68149,57 112.41575,57 c -0.26574,0 -1.80282,1.35 -3.41575,3 -1.61293,1.65 -3.36026,3 -3.88296,3 -0.52271,0 -1.11524,0.494591 -1.31674,1.099092 -0.2015,0.604501 -1.78722,1.696517 -3.52382,2.426703 -2.851922,1.199144 -3.096056,1.165363 -2.522923,-0.349092 z M 110.46049,57.104465 C 120.89,48.219133 136.06353,30.795079 132.24027,32.09433 c -4.286,1.456505 -24.82887,21.670436 -29.78832,29.31134 -2.692682,4.148557 -0.57413,3.010731 8.00854,-4.301205 z M 17.190945,59.25 C 20.084433,53.18164 29.738068,42.043562 33.25,40.721537 34.2125,40.359215 35,39.598646 35,39.031385 35,38.464123 35.675,38 36.5,38 c 0.825,0 1.5,-0.45 1.5,-1 0,-0.55 0.675,-1 1.5,-1 0.825,0 1.5,0.3949 1.5,0.877555 C 41,37.360211 40.325,38.315311 39.5,39 38.675,39.684689 38,40.864789 38,41.622445 38,42.3801 37.55,43 37,43 36.45,43 36,43.498644 36,44.108099 36,45.533136 26.510721,55 25.08231,55 24.487039,55 24,55.417041 24,55.926758 c 0,0.509717 -1.419137,1.634717 -3.153638,2.5 C 17.30888,60.191487 16.673836,60.334506 17.190945,59.25 z M 28.050383,51.116011 C 33.296151,46.414713 38.031452,40 36.256153,40 34.735793,40 24.5573,49.669143 22.693464,52.883989 c -2.555821,4.408419 -0.939593,3.875004 5.356919,-1.767978 z"
       id="path13367"
       inkscape:connector-curvature="0" />
    <path
       style="fill:#c2effe"
       d="M 171.15986,80.548492 C 171.7985,79.146821 172.6988,78 173.16052,78 173.62223,78 174,77.536099 174,76.969109 c 0,-0.566991 1.575,-2.476375 3.5,-4.243076 1.925,-1.766701 3.5,-3.696875 3.5,-4.289276 0,-0.592401 1.575,-2.332834 3.5,-3.86763 1.925,-1.534796 3.5,-3.411907 3.5,-4.171359 0,-0.759451 0.9,-1.94288 2,-2.629841 1.1,-0.686961 2,-1.584526 2,-1.994587 C 192,54.382816 216.28265,31 217.72669,31 c 0.30623,0 1.84692,-1.35 3.42374,-3 1.57683,-1.65 3.15509,-3 3.50725,-3 0.35215,0 2.14601,-1.550395 3.98634,-3.445321 4.40303,-4.533657 10.27055,-8.973443 10.9548,-8.289189 0.58351,0.583502 -0.55815,2.118135 -7.59882,10.214495 -2.475,2.846105 -6.50877,7.614924 -8.96394,10.597375 C 216.09929,42.503907 186.81984,71 185.09841,71 c -0.39832,0 -2.04592,1.394934 -3.66132,3.099854 -1.6154,1.70492 -4.84988,4.426741 -7.18775,6.048492 l -4.25065,2.948637 1.16117,-2.548491 z M 190.72674,65.02199 c 12.98198,-10.818809 31.25838,-29.895847 36.8149,-38.42766 2.68596,-4.124189 0.63725,-3.038015 -8.26838,4.38368 -12.98198,10.818809 -31.25838,29.895847 -36.8149,38.42766 -2.68596,4.124189 -0.63725,3.038015 8.26838,-4.38368 z m -93.004724,1.251149 c 0.372353,-0.975226 1.487226,-2.645492 2.477494,-3.7117 C 101.18978,61.49523 102,60.117356 102,59.499497 c 0,-0.617859 1.35,-2.121478 3,-3.341376 1.65,-1.219898 3,-2.717547 3,-3.328109 0,-1.260879 9.45423,-10.581933 16.05618,-15.830012 2.42161,-1.925 5.38125,-4.448674 6.57699,-5.608164 1.19574,-1.159491 3.14658,-2.362483 4.33521,-2.673317 2.06909,-0.541078 2.09449,-0.461921 0.59639,1.858164 -5.57869,8.639589 -4.67292,7.543049 -16.36532,19.812058 C 115.73415,54.024934 112.49401,57 111.99914,57 c -0.49487,0 -1.25962,0.574632 -1.69945,1.27696 -0.96724,1.5445 -7.93804,6.981902 -11.027185,8.601485 -1.956596,1.025807 -2.14516,0.952192 -1.550489,-0.605306 z M 110.46049,57.104465 C 120.89,48.219133 136.06353,30.795079 132.24027,32.09433 c -4.286,1.456505 -24.82887,21.670436 -29.78832,29.31134 -2.692682,4.148557 -0.57413,3.010731 8.00854,-4.301205 z m -92.312732,0.774328 c 0.850605,-1.308336 2.177834,-3.420494 2.949398,-4.693684 C 22.821521,50.339663 31.783382,41 32.789361,41 c 0.402092,0 1.944338,-1.125 3.427213,-2.5 3.452155,-3.201018 5.565693,-3.349805 3.55128,-0.25 -0.804192,1.2375 -2.093446,3.340549 -2.86501,4.673441 -1.568782,2.710102 -9.564719,10.907818 -12.49844,12.813839 -1.047422,0.680505 -3.231633,1.975962 -4.853802,2.878794 l -2.949399,1.641512 1.546555,-2.378793 z m 9.902625,-6.762782 C 33.296151,46.414713 38.031452,40 36.256153,40 34.735793,40 24.5573,49.669143 22.693464,52.883989 c -2.555821,4.408419 -0.939593,3.875004 5.356919,-1.767978 z"
       id="path13365"
       inkscape:connector-curvature="0" />
    <path
       style="fill:#e3ecdb"
       d="M 171.15986,80.548492 C 171.7985,79.146821 172.6988,78 173.16052,78 173.62223,78 174,77.536099 174,76.969109 c 0,-0.566991 1.575,-2.476375 3.5,-4.243076 1.925,-1.766701 3.5,-3.677791 3.5,-4.246867 0,-0.569077 0.9,-1.805288 2,-2.747138 2.91083,-2.492333 2.45125,-1.089592 -1.12055,3.420182 -3.21091,4.054102 -3.29771,6.184649 -0.15362,3.770552 0.9758,-0.749232 0.64917,-0.09055 -0.72583,1.463732 -1.375,1.554285 -4.41279,4.149989 -6.75066,5.768231 l -4.25065,2.942258 1.16117,-2.548491 z M 185,70.622445 c 0,-0.207656 0.6853,-0.946305 1.52289,-1.641444 1.27335,-1.056784 1.41968,-0.994917 0.89301,0.377555 C 186.87801,70.760293 185,71.742779 185,70.622445 z M 98.631483,66.29815 c -1.301755,-1.301755 -0.551495,-2.081961 1.867807,-1.942363 1.37462,0.07932 2.49962,0.24088 2.5,0.359029 0.002,0.708727 -3.847021,2.10412 -4.367807,1.583334 z M 192,64.59106 c 0,-0.190394 0.675,-0.906371 1.5,-1.59106 0.86459,-0.717549 1.5,-0.814738 1.5,-0.229434 0,0.558501 -0.675,1.274478 -1.5,1.59106 -0.825,0.316583 -1.5,0.419828 -1.5,0.229434 z m -87,-1.968615 c 0,-0.207656 0.7875,-0.995156 1.75,-1.75 1.58606,-1.243871 1.62143,-1.208501 0.37756,0.377555 C 105.82119,62.915748 105,63.445479 105,62.622445 z m 83,-2.377556 c 0,-0.55 0.675,-1.5602 1.5,-2.244889 0.83674,-0.694433 1.5,-0.802716 1.5,-0.244889 0,0.55 -0.675,1.5602 -1.5,2.244889 -0.83674,0.694433 -1.5,0.802716 -1.5,0.244889 z m 9,0.377556 c 0,-0.207656 0.7875,-0.995156 1.75,-1.75 1.58606,-1.243871 1.62143,-1.208501 0.37756,0.377555 C 197.82119,60.915748 197,61.445479 197,60.622445 z m -95,-1.440983 c 0,-1.208555 1.8972,-2.617596 2.5907,-1.924098 0.2517,0.251699 -0.22824,1.02686 -1.06653,1.72258 C 102.57378,59.768693 102,59.844555 102,59.181462 z M 18.501671,58.002704 C 17.800848,56.868749 17.719863,56.919858 20.75,56.583786 c 2.75854,-0.30595 2.834635,0.03296 0.310688,1.383735 -1.289647,0.690198 -2.146911,0.701984 -2.559017,0.03518 z M 112,56.622445 c 0,-0.207656 0.6853,-0.946305 1.52289,-1.641444 1.27335,-1.056784 1.41968,-0.994917 0.89301,0.377555 C 113.87801,56.760293 112,57.742779 112,56.622445 z m 80,-1.515456 c 0,-0.491156 0.73865,-1.176458 1.64144,-1.522892 1.37248,-0.526667 1.43434,-0.380336 0.37756,0.893011 -1.44013,1.735245 -2.019,1.91584 -2.019,0.629881 z M 26,53.5 c 0.684689,-0.825 1.671932,-1.5 2.193873,-1.5 0.521941,0 0.273984,0.675 -0.551016,1.5 -0.825,0.825 -1.812243,1.5 -2.193873,1.5 C 25.067354,55 25.315311,54.325 26,53.5 z m 82,-1.318538 c 0,-1.208555 1.8972,-2.617596 2.5907,-1.924098 0.2517,0.251699 -0.22824,1.02686 -1.06653,1.72258 C 108.57378,52.768693 108,52.844555 108,52.181462 z M 22,51.106989 c 0,-0.491156 0.73865,-1.176458 1.641444,-1.522892 1.372472,-0.526667 1.434339,-0.380336 0.377555,0.893011 C 22.578873,52.212353 22,52.392948 22,51.106989 z M 33,47.193873 C 33,46.671932 33.675,45.684689 34.5,45 35.325,44.315311 36,44.067354 36,44.448984 c 0,0.38163 -0.675,1.368873 -1.5,2.193873 -0.825,0.825 -1.5,1.072957 -1.5,0.551016 z m 90,-1.571428 c 0,-0.207656 0.6853,-0.946305 1.52289,-1.641444 1.27335,-1.056784 1.41968,-0.994917 0.89301,0.377555 C 124.87801,45.760293 123,46.742779 123,45.622445 z M 30.357143,42.5 c 0.825,-0.825 1.812243,-1.5 2.193873,-1.5 0.38163,0 0.133673,0.675 -0.551016,1.5 -0.684689,0.825 -1.671932,1.5 -2.193873,1.5 -0.521941,0 -0.273984,-0.675 0.551016,-1.5 z M 215,42.622445 c 0,-0.207656 0.7875,-0.995156 1.75,-1.75 1.58606,-1.243871 1.62143,-1.208501 0.37756,0.377555 C 215.82119,42.915748 215,43.445479 215,42.622445 z m -96.91667,-0.883102 c 0.22917,-0.143361 1.54167,-1.155861 2.91667,-2.25 L 123.5,37.5 l -1.90499,2.25 c -1.04774,1.2375 -2.36024,2.25 -2.91666,2.25 -0.55643,0 -0.82418,-0.117296 -0.59502,-0.260657 z M 36.948218,37.833615 c 1.082485,-1.008488 2.549471,-1.826724 3.259969,-1.818302 1.022445,0.01212 1.013355,0.191822 -0.0436,0.861803 -0.734476,0.46557 -1.409476,1.225459 -1.5,1.688642 -0.09052,0.463184 -0.956576,0.900499 -1.924559,0.971812 -1.59171,0.117265 -1.571807,-0.04564 0.208187,-1.703955 z M 129,38.622445 c 0,-0.207656 0.6853,-0.946305 1.52289,-1.641444 1.27335,-1.056784 1.41968,-0.994917 0.89301,0.377555 C 130.87801,38.760293 129,39.742779 129,38.622445 z m 80,-1.007435 c 0,-0.211745 1.2375,-1.181405 2.75,-2.154802 l 2.75,-1.769811 -1.90499,2.154801 C 210.90926,37.752019 209,38.691939 209,37.61501 z m 10,0.0074 c 0,-0.207656 0.7875,-0.995156 1.75,-1.75 1.58606,-1.243871 1.62143,-1.208501 0.37756,0.377555 C 219.82119,37.915748 219,38.445479 219,37.622445 z m -93,-2 c 0,-0.207656 0.7875,-0.995156 1.75,-1.75 1.58606,-1.243871 1.62143,-1.208501 0.37756,0.377555 C 126.82119,35.915748 126,36.445479 126,35.622445 z M 215.63837,32.5 c 0.31659,-0.825 1.03256,-1.5 1.59106,-1.5 0.58531,0 0.48812,0.635407 -0.22943,1.5 -0.68469,0.825 -1.40067,1.5 -1.59106,1.5 -0.19039,0 -0.0872,-0.675 0.22943,-1.5 z m -83.91425,-2.223452 c 0.29014,-0.756103 1.16968,-1.240141 1.95453,-1.07564 1.89741,0.397689 1.26387,2.1744 -0.83036,2.328687 -1.01592,0.07484 -1.44864,-0.407487 -1.12417,-1.253047 z M 225,31.289111 c 0,-0.574322 0.7875,-1.661822 1.75,-2.416666 1.61876,-1.269516 1.63998,-1.222451 0.28297,0.627555 -0.80687,1.1 -1.59437,2.1875 -1.75,2.416667 C 225.12734,32.145833 225,31.863433 225,31.289111 z M 222.63837,26.5 c 0.31659,-0.825 1.03256,-1.5 1.59106,-1.5 0.58531,0 0.48812,0.635407 -0.22943,1.5 -0.68469,0.825 -1.40067,1.5 -1.59106,1.5 -0.19039,0 -0.0872,-0.675 0.22943,-1.5 z m 6.86062,-1.256131 c 2.05962,-2.550254 1.35156,-4.194649 -0.97482,-2.263925 -2.64662,2.196493 -1.64854,0.04088 1.22583,-2.64752 4.55931,-4.264326 9.27077,-7.64499 9.84882,-7.066934 0.65471,0.654707 -1.58802,3.542347 -7.51036,9.670019 -2.42635,2.51047 -3.59161,3.549232 -2.58947,2.30836 z"
       id="path13363"
       inkscape:connector-curvature="0" />
    <path
       style="fill:#dbe6cf"
       d="m 171.35575,80.483085 c 0.62934,-1.357115 1.48175,-2.470992 1.89425,-2.475283 0.4125,-0.0043 0.75,-0.386263 0.75,-0.848827 0,-0.462564 2.55206,-3.500064 5.67125,-6.75 4.48946,-4.677646 4.98529,-5.013738 2.37945,-1.612861 -3.35504,4.37864 -3.52887,6.586743 -0.32487,4.126648 0.9758,-0.749232 0.64917,-0.09055 -0.72583,1.463732 -1.375,1.554285 -4.36491,4.117045 -6.64425,5.695022 l -4.14425,2.86905 1.14425,-2.467481 z M 185,70.622445 c 0,-0.207656 0.7875,-0.995156 1.75,-1.75 1.58606,-1.243871 1.62143,-1.208501 0.37756,0.377555 C 185.82119,70.915748 185,71.445479 185,70.622445 z M 98.631483,66.29815 c -1.301755,-1.301755 -0.551495,-2.081961 1.867807,-1.942363 1.37462,0.07932 2.49962,0.24088 2.5,0.359029 0.002,0.708727 -3.847021,2.10412 -4.367807,1.583334 z M 192,64.622445 c 0,-0.207656 0.7875,-0.995156 1.75,-1.75 1.58606,-1.243871 1.62143,-1.208501 0.37756,0.377555 C 192.82119,64.915748 192,65.445479 192,64.622445 z m -87,-2 c 0,-0.207656 0.7875,-0.995156 1.75,-1.75 1.58606,-1.243871 1.62143,-1.208501 0.37756,0.377555 C 105.82119,62.915748 105,63.445479 105,62.622445 z m 83,-2.515456 c 0,-0.491156 0.73865,-1.176458 1.64144,-1.522892 1.37248,-0.526667 1.43434,-0.380336 0.37756,0.893011 -1.44013,1.735245 -2.019,1.91584 -2.019,0.629881 z m 9,0.515456 c 0,-0.207656 0.7875,-0.995156 1.75,-1.75 1.58606,-1.243871 1.62143,-1.208501 0.37756,0.377555 C 197.82119,60.915748 197,61.445479 197,60.622445 z m -95,-1 c 0,-0.207656 0.7875,-0.995156 1.75,-1.75 1.58606,-1.243871 1.62143,-1.208501 0.37756,0.377555 C 102.82119,59.915748 102,60.445479 102,59.622445 z M 18.501671,58.002704 C 17.800848,56.868749 17.719863,56.919858 20.75,56.583786 c 2.75854,-0.30595 2.834635,0.03296 0.310688,1.383735 -1.289647,0.690198 -2.146911,0.701984 -2.559017,0.03518 z M 112,56.622445 c 0,-0.207656 0.7875,-0.995156 1.75,-1.75 1.58606,-1.243871 1.62143,-1.208501 0.37756,0.377555 C 112.82119,56.915748 112,57.445479 112,56.622445 z m 80,-1.515456 c 0,-0.491156 0.73865,-1.176458 1.64144,-1.522892 1.37248,-0.526667 1.43434,-0.380336 0.37756,0.893011 -1.44013,1.735245 -2.019,1.91584 -2.019,0.629881 z M 25,54.622445 c 0,-0.207656 0.7875,-0.995156 1.75,-1.75 C 28.336056,51.628574 28.371426,51.663944 27.127555,53.25 25.821186,54.915748 25,55.445479 25,54.622445 z m 83,-2 c 0,-0.207656 0.7875,-0.995156 1.75,-1.75 1.58606,-1.243871 1.62143,-1.208501 0.37756,0.377555 C 108.82119,52.915748 108,53.445479 108,52.622445 z m -86,-1 c 0,-0.207656 0.7875,-0.995156 1.75,-1.75 C 25.336056,48.628574 25.371426,48.663944 24.127555,50.25 22.821186,51.915748 22,52.445479 22,51.622445 z m 11,-5 c 0,-0.207656 0.7875,-0.995156 1.75,-1.75 C 36.336056,43.628574 36.371426,43.663944 35.127555,45.25 33.821186,46.915748 33,47.445479 33,46.622445 z m 90,-1 c 0,-0.207656 0.7875,-0.995156 1.75,-1.75 1.58606,-1.243871 1.62143,-1.208501 0.37756,0.377555 C 123.82119,45.915748 123,46.445479 123,45.622445 z m -93,-2 c 0,-0.207656 0.7875,-0.995156 1.75,-1.75 C 33.336056,40.628574 33.371426,40.663944 32.127555,42.25 30.821186,43.915748 30,44.445479 30,43.622445 z m 185,-1 c 0,-0.207656 0.7875,-0.995156 1.75,-1.75 1.58606,-1.243871 1.62143,-1.208501 0.37756,0.377555 C 215.82119,42.915748 215,43.445479 215,42.622445 z m -96,-1 c 0,-0.207656 0.7875,-0.995156 1.75,-1.75 1.58606,-1.243871 1.62143,-1.208501 0.37756,0.377555 C 119.82119,41.915748 119,42.445479 119,41.622445 z m -83.285496,-2.71552 c 1.246863,-1.212849 3.099941,-1.498793 2.935496,-0.45297 -0.0825,0.524675 -0.953473,1.013148 -1.935496,1.085496 -0.982023,0.07235 -1.432023,-0.212289 -1,-0.632526 z M 129,38.622445 c 0,-0.207656 0.7875,-0.995156 1.75,-1.75 1.58606,-1.243871 1.62143,-1.208501 0.37756,0.377555 C 129.82119,38.915748 129,39.445479 129,38.622445 z m 80,-1.087261 c 0,-0.255649 1.0125,-1.004323 2.25,-1.66372 2.04022,-1.087124 2.12204,-1.043787 0.87756,0.464816 C 210.84973,37.885299 209,38.594367 209,37.535184 z m 10,0.08726 c 0,-0.207656 0.7875,-0.995156 1.75,-1.75 1.58606,-1.243871 1.62143,-1.208501 0.37756,0.377555 C 219.82119,37.915748 219,38.445479 219,37.622445 z m -93,-2 c 0,-0.207656 0.7875,-0.995156 1.75,-1.75 1.58606,-1.243871 1.62143,-1.208501 0.37756,0.377555 C 126.82119,35.915748 126,36.445479 126,35.622445 z M 215.63837,32.5 c 0.31659,-0.825 1.03256,-1.5 1.59106,-1.5 0.58531,0 0.48812,0.635407 -0.22943,1.5 -0.68469,0.825 -1.40067,1.5 -1.59106,1.5 -0.19039,0 -0.0872,-0.675 0.22943,-1.5 z M 132.1674,30.298301 c 0.62302,-0.750701 1.54898,-1.226174 2.05769,-1.056606 1.48753,0.495846 0.43342,2.154537 -1.45778,2.293866 -1.35448,0.09979 -1.48543,-0.170281 -0.59991,-1.23726 z M 225,30.622445 c 0,-0.207656 0.7875,-0.995156 1.75,-1.75 1.58606,-1.243871 1.62143,-1.208501 0.37756,0.377555 C 225.82119,30.915748 225,31.445479 225,30.622445 z m -3,-3 c 0,-0.207656 0.7875,-0.995156 1.75,-1.75 1.58606,-1.243871 1.62143,-1.208501 0.37756,0.377555 C 222.82119,27.915748 222,28.445479 222,27.622445 z m 7.42617,-2.378576 c 2.12562,-2.530837 1.45319,-4.218565 -0.902,-2.263925 -0.8383,0.69572 -1.52417,0.983674 -1.52417,0.639898 0,-0.969264 7.85199,-7.830418 10.58228,-9.246909 2.40937,-1.249993 2.40341,-1.212924 -0.47117,2.93053 -1.60127,2.308095 -4.4118,5.546537 -6.24562,7.196537 -1.83382,1.65 -2.48152,1.984741 -1.43932,0.743869 z"
       id="path13361"
       inkscape:connector-curvature="0" />
    <path
       style="fill:#aadbfb"
       d="M 172.74616,78.903985 C 174.42593,76.481793 177.30069,73.15 179.13451,71.5 c 1.83382,-1.65 2.48152,-1.984741 1.43932,-0.743869 -2.21941,2.642506 -1.42171,4.142782 1.152,2.166631 0.9758,-0.749232 0.64917,-0.09055 -0.72583,1.463732 -1.375,1.554285 -4.48179,4.197461 -6.90399,5.873725 l -4.40398,3.047752 3.05413,-4.403986 z M 185,70.622445 c 0,-0.207656 0.7875,-0.995156 1.75,-1.75 1.58606,-1.243871 1.62143,-1.208501 0.37756,0.377555 C 185.82119,70.915748 185,71.445479 185,70.622445 z m -3,-3 c 0,-0.207656 0.7875,-0.995156 1.75,-1.75 1.58606,-1.243871 1.62143,-1.208501 0.37756,0.377555 C 182.82119,67.915748 182,68.445479 182,67.622445 z M 98.501671,66.002704 c -0.700823,-1.133955 -0.781808,-1.082846 2.248329,-1.418918 2.75854,-0.30595 2.83464,0.03296 0.31069,1.383735 -1.289649,0.690198 -2.146913,0.701984 -2.559019,0.03518 z M 192,64.622445 c 0,-0.207656 0.7875,-0.995156 1.75,-1.75 1.58606,-1.243871 1.62143,-1.208501 0.37756,0.377555 C 192.82119,64.915748 192,65.445479 192,64.622445 z m -87,-2 c 0,-0.207656 0.7875,-0.995156 1.75,-1.75 1.58606,-1.243871 1.62143,-1.208501 0.37756,0.377555 C 105.82119,62.915748 105,63.445479 105,62.622445 z m 83,-2 c 0,-0.207656 0.7875,-0.995156 1.75,-1.75 1.58606,-1.243871 1.62143,-1.208501 0.37756,0.377555 C 188.82119,60.915748 188,61.445479 188,60.622445 z m 9,0 c 0,-0.207656 0.7875,-0.995156 1.75,-1.75 1.58606,-1.243871 1.62143,-1.208501 0.37756,0.377555 C 197.82119,60.915748 197,61.445479 197,60.622445 z m -95,-1 c 0,-0.207656 0.7875,-0.995156 1.75,-1.75 1.58606,-1.243871 1.62143,-1.208501 0.37756,0.377555 C 102.82119,59.915748 102,60.445479 102,59.622445 z M 18.501671,58.002704 C 17.800848,56.868749 17.719863,56.919858 20.75,56.583786 c 2.75854,-0.30595 2.834635,0.03296 0.310688,1.383735 -1.289647,0.690198 -2.146911,0.701984 -2.559017,0.03518 z M 112,56.622445 c 0,-0.207656 0.7875,-0.995156 1.75,-1.75 1.58606,-1.243871 1.62143,-1.208501 0.37756,0.377555 C 112.82119,56.915748 112,57.445479 112,56.622445 z m 80,-1 c 0,-0.207656 0.7875,-0.995156 1.75,-1.75 1.58606,-1.243871 1.62143,-1.208501 0.37756,0.377555 C 192.82119,55.915748 192,56.445479 192,55.622445 z m -167,-1 c 0,-0.207656 0.7875,-0.995156 1.75,-1.75 C 28.336056,51.628574 28.371426,51.663944 27.127555,53.25 25.821186,54.915748 25,55.445479 25,54.622445 z m 83,-2 c 0,-0.207656 0.7875,-0.995156 1.75,-1.75 1.58606,-1.243871 1.62143,-1.208501 0.37756,0.377555 C 108.82119,52.915748 108,53.445479 108,52.622445 z m -86,-1 c 0,-0.207656 0.7875,-0.995156 1.75,-1.75 C 25.336056,48.628574 25.371426,48.663944 24.127555,50.25 22.821186,51.915748 22,52.445479 22,51.622445 z m 11,-5 c 0,-0.207656 0.7875,-0.995156 1.75,-1.75 C 36.336056,43.628574 36.371426,43.663944 35.127555,45.25 33.821186,46.915748 33,47.445479 33,46.622445 z m 90,-1 c 0,-0.207656 0.7875,-0.995156 1.75,-1.75 1.58606,-1.243871 1.62143,-1.208501 0.37756,0.377555 C 123.82119,45.915748 123,46.445479 123,45.622445 z m -93,-2 c 0,-0.207656 0.7875,-0.995156 1.75,-1.75 C 33.336056,40.628574 33.371426,40.663944 32.127555,42.25 30.821186,43.915748 30,44.445479 30,43.622445 z m 185,-1 c 0,-0.207656 0.7875,-0.995156 1.75,-1.75 1.58606,-1.243871 1.62143,-1.208501 0.37756,0.377555 C 215.82119,42.915748 215,43.445479 215,42.622445 z m -96,-1 c 0,-0.207656 0.7875,-0.995156 1.75,-1.75 1.58606,-1.243871 1.62143,-1.208501 0.37756,0.377555 C 119.82119,41.915748 119,42.445479 119,41.622445 z m -83.285496,-2.71552 c 1.246863,-1.212849 3.099941,-1.498793 2.935496,-0.45297 -0.0825,0.524675 -0.953473,1.013148 -1.935496,1.085496 -0.982023,0.07235 -1.432023,-0.212289 -1,-0.632526 z M 129,38.622445 c 0,-0.207656 0.7875,-0.995156 1.75,-1.75 1.58606,-1.243871 1.62143,-1.208501 0.37756,0.377555 C 129.82119,38.915748 129,39.445479 129,38.622445 z m 81,-1 c 0,-0.207656 0.7875,-0.995156 1.75,-1.75 1.58606,-1.243871 1.62143,-1.208501 0.37756,0.377555 C 210.82119,37.915748 210,38.445479 210,37.622445 z m 9,0 c 0,-0.207656 0.7875,-0.995156 1.75,-1.75 1.58606,-1.243871 1.62143,-1.208501 0.37756,0.377555 C 219.82119,37.915748 219,38.445479 219,37.622445 z m -93,-2 c 0,-0.207656 0.7875,-0.995156 1.75,-1.75 1.58606,-1.243871 1.62143,-1.208501 0.37756,0.377555 C 126.82119,35.915748 126,36.445479 126,35.622445 z m 89,-2 c 0,-0.207656 0.7875,-0.995156 1.75,-1.75 1.58606,-1.243871 1.62143,-1.208501 0.37756,0.377555 C 215.82119,33.915748 215,34.445479 215,33.622445 z m -83.2855,-2.71552 c 1.24687,-1.212849 3.09995,-1.498793 2.9355,-0.45297 -0.0825,0.524675 -0.95347,1.013148 -1.9355,1.085496 -0.98202,0.07235 -1.43202,-0.212289 -1,-0.632526 z M 225,30.622445 c 0,-0.207656 0.7875,-0.995156 1.75,-1.75 1.58606,-1.243871 1.62143,-1.208501 0.37756,0.377555 C 225.82119,30.915748 225,31.445479 225,30.622445 z m -3,-3 c 0,-0.207656 0.7875,-0.995156 1.75,-1.75 1.58606,-1.243871 1.62143,-1.208501 0.37756,0.377555 C 222.82119,27.915748 222,28.445479 222,27.622445 z m 7.42617,-2.378576 c 2.21941,-2.642506 1.42171,-4.142782 -1.152,-2.166631 -0.9758,0.749232 -0.64917,0.09055 0.72583,-1.463732 1.375,-1.554285 4.48179,-4.197461 6.90399,-5.873725 l 4.40398,-3.047752 -3.05413,4.403986 C 235.57407,19.518207 232.69931,22.85 230.86549,24.5 c -1.83382,1.65 -2.48152,1.984741 -1.43932,0.743869 z"
       id="path13359"
       inkscape:connector-curvature="0" />
    <path
       style="fill:#91c7f5"
       d="M 172.73978,78.903985 C 174.41604,76.481793 177.06962,73.375 178.63661,72 c 2.44536,-2.145744 2.57937,-2.1803 0.9457,-0.243869 -2.23002,2.643304 -1.43056,4.148935 1.14352,2.153603 1.36433,-1.057574 1.31216,-0.832599 -0.22583,0.973895 -1.1,1.292039 -3.98179,3.716078 -6.40399,5.386752 l -4.40398,3.03759 3.04775,-4.403986 z M 176.5,77 c 0.99549,-1.1 1.58498,-2 1.30998,-2 -0.275,0 -1.31449,0.9 -2.30998,2 -0.99549,1.1 -1.58498,2 -1.30998,2 0.275,0 1.31449,-0.9 2.30998,-2 z m 53.91769,-52.756131 c 2.23002,-2.643304 1.43056,-4.148935 -1.14352,-2.153603 -1.36433,1.057574 -1.31216,0.832599 0.22583,-0.973895 1.1,-1.292039 3.98179,-3.716078 6.40399,-5.386752 l 4.40398,-3.03759 -3.04775,4.403986 C 235.58396,19.518207 232.93038,22.625 231.36339,24 c -2.44536,2.145744 -2.57937,2.1803 -0.9457,0.243869 z M 234.5,19 c 0.99549,-1.1 1.58498,-2 1.30998,-2 -0.275,0 -1.31449,0.9 -2.30998,2 -0.99549,1.1 -1.58498,2 -1.30998,2 0.275,0 1.31449,-0.9 2.30998,-2 z"
       id="path13357"
       inkscape:connector-curvature="0" />
  </g>
  <path
     sodipodi:type="arc"
     style="fill:#ffffff;fill-opacity:1;stroke:none"
     id="path13652"
     sodipodi:cx="52.489273"
     sodipodi:cy="48.509296"
     sodipodi:rx="4.7953162"
     sodipodi:ry="1.6848408"
     d="m 57.284589,48.509296 a 4.7953162,1.6848408 0 1 1 -9.590632,0 4.7953162,1.6848408 0 1 1 9.590632,0 z"
     transform="matrix(2.8594233,-2.5496341,-3.3465475,5.1376797,129.57289,-67.762298)" />
  <rect
     style="fill:#ffffff;fill-opacity:1;stroke:none"
     id="rect13667"
     width="18.586647"
     height="7.8360143"
     x="89.940376"
     y="117.8621"
     ry="3.9180071"
     rx="9.2933235"
     transform="matrix(0.74683502,-0.66500937,-0.36591934,0.93064657,0,0)" />
  <path
     sodipodi:type="arc"
     style="fill:#ffffff;fill-opacity:1;stroke:none"
     id="path13652-8"
     sodipodi:cx="52.489273"
     sodipodi:cy="48.509296"
     sodipodi:rx="4.7953162"
     sodipodi:ry="1.6848408"
     d="m 57.284589,48.509296 a 4.7953162,1.6848408 0 1 1 -9.590632,0 4.7953162,1.6848408 0 1 1 9.590632,0 z"
     transform="matrix(3.992165,-3.5184625,-5.2681945,7.6664726,251.62595,-140.03279)" />
</svg>
